<svg viewBox="0 0 472 477" fill="none" xmlns="http://www.w3.org/2000/svg">
<path d="M187.409 204.497C190.828 206.262 194.189 207.866 197.391 209.743C198.171 210.201 198.861 211.547 198.864 212.487C198.928 233.433 198.88 254.378 198.875 275.325C198.872 287.308 198.907 299.292 198.923 311.276C198.925 312.538 198.923 313.8 198.923 315.525C195.941 315.525 193.239 315.525 190.535 315.525C186.896 315.525 183.257 315.549 179.619 315.517C175.471 315.481 173.816 314.146 173.523 310C172.401 294.13 169.031 278.774 163.401 263.902C156.419 245.458 146.381 228.802 134.121 213.411C117.176 192.139 107.72 167.892 105.795 140.771C101.24 76.6288 143.751 18.1808 206.521 3.97014C248.48 -5.52986 286.423 4.38483 319.175 32.4435C341.235 51.3422 354.904 75.4728 361.157 103.765C364.037 116.793 364.629 129.994 363.451 143.324C360.907 172.1 349.105 196.664 331.132 218.99C313.028 241.482 302.943 267.764 298.243 296.144C297.46 300.878 297.019 305.67 296.443 310.437C296.081 313.434 294.447 315.409 291.625 315.467C284.855 315.605 278.08 315.512 271.04 315.512C270.961 314.501 270.84 313.661 270.84 312.821C270.832 279.391 270.86 245.962 270.788 212.533C270.783 210.328 271.428 209.175 273.476 208.369C276.207 207.293 278.8 205.869 281.759 204.447C283.812 206.506 286.027 208.692 288.201 210.916C293.368 216.2 299.845 216.298 305.08 211.094C309.683 206.521 314.267 201.926 318.808 197.29C323.995 191.996 323.925 185.646 318.611 180.385C316.38 178.177 314.007 176.111 312.443 174.669C315.809 165.779 318.819 157.749 321.945 149.763C322.163 149.206 323.229 148.698 323.929 148.66C327.064 148.488 330.211 148.515 333.352 148.433C340.515 148.245 345.045 143.665 345.061 136.49C345.077 129.904 345.029 123.315 344.919 116.73C344.827 111.205 340.956 106.769 335.417 106.159C331.916 105.774 328.352 105.867 324.817 105.887C323.1 105.895 322.395 105.351 321.737 103.611C319.041 96.4795 316.096 89.4368 313.071 82.4355C312.432 80.9582 312.237 80.0608 313.539 78.8995C315.443 77.2008 317.165 75.2995 318.944 73.4622C323.524 68.7315 323.612 62.3382 319.064 57.6648C314.332 52.8022 309.552 47.9861 304.72 43.2235C299.359 37.9368 292.859 38.1448 287.643 43.6728C285.831 45.5915 284.029 47.5195 282.668 48.9702C274.683 45.7795 267.124 42.8035 259.621 39.6915C258.868 39.3795 258.097 38.2982 257.967 37.4742C257.708 35.8435 257.889 34.1421 257.892 32.4701C257.904 22.8648 253.911 18.7648 244.373 18.7408C237.212 18.7221 230.049 18.8221 222.888 18.8755C216.459 18.9235 211.708 23.5581 211.572 29.9675C211.512 32.8128 211.563 35.6608 211.563 38.5941C207.267 40.1341 202.972 41.4475 198.869 43.2075C194.821 44.9448 190.967 47.1342 186.829 49.2248C184.975 47.3582 182.976 45.3528 180.984 43.3422C175.617 37.9248 169.259 37.8702 163.88 43.2328C159.283 47.8142 154.692 52.4022 150.145 57.0328C145.083 62.1888 145.125 68.6555 150.267 73.7288C152.431 75.8648 154.725 77.8675 156.92 79.8928C154.996 83.8061 153.129 87.1368 151.693 90.6435C149.952 94.9008 148.465 99.2728 147.092 103.666C146.549 105.403 145.764 105.947 143.992 105.903C140.756 105.823 137.492 105.81 134.277 106.139C128.96 106.683 124.997 110.417 124.707 115.669C124.299 123.014 124.095 130.405 124.424 137.747C124.724 144.406 129.433 148.325 136.16 148.429C139.012 148.473 141.872 148.334 144.712 148.515C145.549 148.57 146.792 149.258 147.075 149.963C150.22 157.847 153.213 165.791 156.66 174.797C155.071 176.239 152.504 178.378 150.159 180.736C145.296 185.626 145.344 192.016 150.213 196.953C154.976 201.785 159.779 206.578 164.605 211.345C169.397 216.076 175.723 216.055 180.592 211.319C182.907 209.067 185.159 206.754 187.409 204.497Z" fill="#EC2027"/>
<path d="M350.678 354.084C351.054 338.228 354.657 323.387 364.333 310.434C370.657 301.967 378.517 295.196 387.6 289.892C390.12 288.42 391.432 286.582 392.149 283.831C394.177 276.055 396.341 268.31 398.621 260.602C400.184 255.315 403.557 251.668 409.204 250.754C414.542 249.887 418.914 251.722 421.956 256.23C424.354 259.789 424.622 263.763 423.496 267.823C417.497 289.442 411.469 311.054 405.45 332.668C405.32 333.14 405.172 333.607 405.045 334.08C404.048 337.794 404.896 340.002 407.622 340.804C410.081 341.528 412.14 339.916 413.118 336.42C419.242 314.516 425.38 292.616 431.456 270.699C433.392 263.714 432.692 257.055 429.117 250.59C420.521 235.044 412.064 219.422 403.661 203.77C397.672 192.614 403.71 179.755 415.956 177.292C423.36 175.803 430.581 179.491 434.764 186.982C443.237 202.152 451.676 217.34 460.13 232.522C462.805 237.323 465.416 242.163 468.182 246.911C471.632 252.834 472.386 259.006 470.541 265.602C458.128 309.969 445.752 354.347 433.36 398.72C432.157 403.024 430.006 404.256 425.68 403.054C403.674 396.936 381.678 390.783 359.666 384.69C357.057 383.967 355.537 382.506 354.69 379.875C351.989 371.48 350.564 362.923 350.678 354.084Z" fill="#EC2027"/>
<path d="M120.614 352.657C120.846 363.733 119.287 372.216 116.382 380.402C115.797 382.05 113.897 383.916 112.233 384.393C89.8075 390.834 67.3208 397.062 44.8368 403.301C41.4421 404.242 39.1541 402.753 38.0955 398.988C34.3288 385.585 30.6035 372.172 26.8661 358.761C18.3408 328.165 9.91947 297.54 1.2208 266.994C-0.940533 259.405 -0.113864 252.653 3.75414 245.834C14.8915 226.204 25.7341 206.406 36.8075 186.74C43.2835 175.238 57.7288 173.645 65.9328 183.377C70.6581 188.982 71.4381 196.838 67.7061 203.776C59.3368 219.334 50.9568 234.888 42.3928 250.34C38.7061 256.992 37.9888 263.798 39.9981 271.006C46.0528 292.725 52.1195 314.44 58.1875 336.156C58.2928 336.532 58.4555 336.893 58.5781 337.265C59.5328 340.142 61.4728 341.469 63.7528 340.801C66.2715 340.062 67.3675 337.861 66.5675 334.952C64.6435 327.957 62.6768 320.974 60.7315 313.986C56.4461 298.593 52.1181 283.212 47.8928 267.801C45.1128 257.657 52.5341 248.994 62.4861 250.798C67.9608 251.79 71.2555 255.432 72.7728 260.617C75.0568 268.425 77.2355 276.265 79.3061 284.132C79.9755 286.682 81.2408 288.38 83.5461 289.749C98.0435 298.369 109.343 309.909 115.603 325.85C119.277 335.204 120.61 344.99 120.614 352.657Z" fill="#EC2027"/>
<path d="M198.571 201.054C195.37 199.171 192.526 197.639 189.835 195.875C187.232 194.17 185.152 194.504 183.082 196.759C180.491 199.582 177.712 202.232 175.094 205.03C173.367 206.874 171.84 206.811 170.099 205.043C165.544 200.419 160.948 195.838 156.323 191.286C154.538 189.53 154.607 187.987 156.38 186.266C159.272 183.459 162.043 180.526 164.924 177.707C167.002 175.674 167.267 173.567 165.646 171.13C160.144 162.863 156.416 153.834 154.371 144.134C153.75 141.184 152.04 139.991 149.218 139.986C144.99 139.979 140.76 139.911 136.535 140.004C133.868 140.063 132.82 138.876 132.852 136.28C132.928 130.09 132.918 123.898 132.898 117.706C132.89 115.48 133.916 114.494 136.127 114.496C140.45 114.502 144.775 114.492 149.095 114.366C152.547 114.266 153.678 113.126 154.392 109.706C156.359 100.302 159.763 91.4696 164.947 83.3456C167.123 79.9376 166.964 78.7589 164.131 75.8656C161.587 73.2669 159.074 70.6336 156.436 68.1309C154.459 66.2549 154.334 64.5789 156.312 62.6296C160.794 58.2136 165.238 53.7576 169.635 49.2589C171.554 47.2976 173.215 47.2723 175.107 49.3203C177.572 51.9923 180.226 54.4896 182.728 57.1283C184.727 59.2363 186.783 59.5589 189.268 57.9323C197.544 52.5149 206.338 48.3456 216.19 46.5843C218.544 46.1629 220.072 44.5483 219.948 41.7336C219.792 38.2016 219.938 34.6563 219.902 31.1176C219.874 28.4763 220.934 27.1309 223.762 27.1629C231.118 27.2443 238.475 27.2243 245.832 27.1656C248.303 27.1456 249.467 28.1736 249.432 30.6723C249.382 34.3069 249.42 37.9443 249.42 41.5789C249.422 44.1749 250.666 45.7803 253.162 46.5523C262.728 49.5109 272.111 52.8963 280.619 58.3389C282.806 59.7376 284.719 59.0203 286.388 57.2203C288.795 54.6269 291.231 52.0589 293.678 49.5003C295.828 47.2509 296.848 47.2136 299.064 49.4163C303.596 53.9216 308.055 58.5003 312.612 62.9789C314.404 64.7389 314.384 66.2803 312.627 68.0029C309.958 70.6163 307.346 73.2896 304.716 75.9443C301.971 78.7163 301.764 79.9683 303.791 83.1483C309.124 91.5176 312.819 100.546 314.746 110.278C315.324 113.2 317.094 114.41 319.927 114.42C324.351 114.438 328.778 114.578 333.198 114.463C335.636 114.399 336.631 115.416 336.62 117.736C336.586 124.127 336.543 130.518 336.563 136.908C336.571 139.027 335.57 139.98 333.527 139.97C329.399 139.946 325.27 139.875 321.142 139.894C316.374 139.915 315.283 140.758 314.286 145.359C312.31 154.478 308.72 162.908 303.691 170.751C301.624 173.974 301.75 175.138 304.495 177.967C307.234 180.79 309.972 183.614 312.798 186.347C314.587 188.078 314.615 189.662 312.884 191.396C308.303 195.99 303.732 200.596 299.171 205.211C297.411 206.992 295.824 206.836 294.15 205.03C291.812 202.507 289.352 200.098 286.979 197.608C283.598 194.062 282.003 193.899 277.848 196.683C276.792 197.391 275.69 198.039 274.567 198.636C273.547 199.18 272.472 199.619 271.128 200.239C271.018 199.282 270.864 198.56 270.862 197.839C270.842 192.038 270.943 186.234 270.803 180.436C270.747 178.164 271.45 176.682 273.242 175.215C288.922 162.394 296.698 145.728 296.398 125.532C295.95 95.3269 272.183 69.4096 242.175 66.0149C209.184 62.2816 179.224 84.2443 173.98 116.846C170.182 140.451 178.052 160.178 196.515 175.496C198.159 176.86 199.055 178.122 198.984 180.375C198.807 186.072 198.946 191.779 198.919 197.482C198.914 198.512 198.724 199.542 198.571 201.054Z" fill="#EC2027"/>
<path d="M201.19 168.281C186.151 156.989 176.995 134.269 183.581 112.295C190.326 89.7919 210.634 74.1999 233.578 73.8493C256.906 73.4919 277.859 88.1866 285.235 110.079C292.289 131.013 285.161 156 268.43 168.259C266.705 165.801 264.965 163.353 263.255 160.885C255.311 149.416 247.379 137.94 239.437 126.471C236.178 121.765 233.542 121.757 230.249 126.499C221.115 139.652 212.01 152.825 202.889 165.987C202.346 166.768 201.757 167.517 201.19 168.281Z" fill="#EC2027"/>
<path d="M230.575 246.624C230.628 246.624 230.683 246.624 230.736 246.624C230.736 262.055 230.733 277.484 230.74 292.915C230.74 294.094 230.729 295.279 230.835 296.45C231.033 298.638 232.508 300.134 234.449 299.995C235.913 299.891 237.519 298.639 238.6 297.471C239.247 296.77 239.14 295.247 239.14 294.094C239.164 266.675 239.161 239.258 239.151 211.839C239.148 207.22 239.297 202.584 238.936 197.991C238.82 196.512 237.58 194.704 236.313 193.878C235.431 193.302 233.157 193.667 232.348 194.466C231.313 195.486 230.657 197.362 230.647 198.875C230.529 214.791 230.575 230.708 230.575 246.624ZM207.5 178.418H262.239V315.386H207.5V178.418Z" fill="#EC2027"/>
<path d="M97.3317 476.271C80.0317 476.272 62.7317 476.276 45.4317 476.271C38.9251 476.268 35.7211 473.814 33.9704 467.532C32.4184 461.963 30.8197 456.407 29.3224 450.823C27.6677 444.655 30.6251 439.44 36.5491 437.79C59.9531 431.264 83.3531 424.72 106.754 418.183C116.005 415.6 125.252 413 134.51 410.444C140.821 408.7 145.965 411.516 147.73 417.792C151.95 432.79 156.112 447.804 160.254 462.823C162.349 470.412 157.928 476.256 150.116 476.264C132.521 476.282 114.926 476.27 97.3317 476.271Z" fill="#EC2027"/>
<path d="M373.759 476.272C356.46 476.272 339.163 476.279 321.864 476.27C313.243 476.264 308.936 470.6 311.254 462.256C315.344 447.528 319.458 432.804 323.608 418.092C325.495 411.403 330.443 408.667 337.155 410.535C369.155 419.44 401.154 428.352 433.148 437.28C441.428 439.59 443.938 444.172 441.595 452.527C440.167 457.622 438.77 462.726 437.331 467.818C435.652 473.762 432.38 476.264 426.243 476.268C408.748 476.28 391.254 476.272 373.759 476.272Z" fill="#EC2027"/>
<path d="M198.925 323.953C198.925 328.997 199.169 333.713 198.877 338.394C198.158 349.913 207.588 358.893 218.629 358.353C229.616 357.814 240.648 358.254 251.661 358.229C263.04 358.202 270.726 350.594 270.84 339.248C270.889 334.257 270.848 329.265 270.848 323.985C278.005 323.985 284.865 323.849 291.714 324.058C294.094 324.132 295.681 325.985 295.826 328.384C297.064 348.784 292.693 367.289 277.133 381.786C266.13 392.037 253.057 397.245 237.981 397.828C221.818 398.453 207.188 394.53 194.772 383.92C181.373 372.469 174.293 357.838 173.742 340.157C173.626 336.424 173.602 332.684 173.672 328.949C173.726 325.954 175.496 324.024 178.358 323.984C185.037 323.889 191.717 323.953 198.925 323.953Z" fill="#EC2027"/>
<path d="M262.247 324.127C262.247 330.139 262.502 336.016 262.163 341.861C261.912 346.201 257.576 349.835 252.983 349.875C240.911 349.98 228.835 349.976 216.763 349.877C211.936 349.837 207.672 346.024 207.44 341.331C207.162 335.671 207.375 329.985 207.375 324.127H262.247Z" fill="#EC2027"/>
<path d="M33.2584 422.126C33.2131 417.571 35.6344 414.586 40.6478 413.175C49.6038 410.652 58.5731 408.184 67.5358 405.684C84.5038 400.952 101.468 396.211 118.436 391.48C123.225 390.144 127.074 391.354 129.337 394.874C132.052 399.099 130.714 402.786 125.896 404.14C112.696 407.847 99.4864 411.516 86.2784 415.192C71.1051 419.415 55.9358 423.644 40.7544 427.838C36.1358 429.114 33.3064 426.915 33.2584 422.126Z" fill="#EC2027"/>
<path d="M438.134 421.938C438.116 426.958 435.329 429.157 430.52 427.82C402.098 419.921 373.681 412.002 345.27 404.066C340.842 402.829 339.505 399.464 341.726 395.42C343.88 391.498 347.856 390.048 352.926 391.456C363.79 394.472 374.637 397.55 385.498 400.578C400.512 404.765 415.532 408.929 430.55 413.102C435.542 414.49 438.152 417.529 438.134 421.938Z" fill="#EC2027"/>
<path d="M259.169 169.691H210.555C218.704 157.897 226.673 146.362 234.839 134.545C242.987 146.314 250.931 157.791 259.169 169.691Z" fill="#EC2027"/>
</svg>
