<?xml version="1.0" encoding="utf-8"?>
<!-- Generator: Adobe Illustrator 28.1.0, SVG Export Plug-In . SVG Version: 6.00 Build 0)  -->
<svg version="1.1" id="Layer_1" xmlns="http://www.w3.org/2000/svg" xmlns:xlink="http://www.w3.org/1999/xlink" x="0px" y="0px"
	 viewBox="0 0 350.5 304.6" style="enable-background:new 0 0 350.5 304.6;" xml:space="preserve">
<style type="text/css">
	.st0{fill:#EB2127;}
</style>
<g>
	<path class="st0" d="M200.2,246.6c-28.7,0-57.3,0-86,0c-12.2,0-15.7-3.5-15.7-15.3c0-32.8,0-65.5,0-98.3c0-11.2,3.5-14.9,14.5-14.9
		c58.2-0.1,116.3-0.1,174.5,0c11,0,14.5,3.7,14.5,14.9c0,32.8,0,65.5,0,98.3c0,11.9-3.5,15.3-15.7,15.3
		C257.5,246.6,228.8,246.6,200.2,246.6z"/>
	<path class="st0" d="M53.5,141.7c-2.4-5.9-4.9-11.2-6.7-16.9c-2.2-6.9,1.1-12.2,9.4-15.5c26.5-10.6,53.1-21.2,79.7-31.7
		c26.8-10.6,53.7-21.3,80.5-31.9c12.7-5,16.6-3.3,21.8,9.5c1.4,3.5,2.8,7,4.5,11.3c-17.4,7-34.5,13.9-51.6,20.7
		c-9.1,3.6-18.3,7-27.3,10.8c-16.6,7.1-33.2,13.2-52,11.4c-10.2-1-17.6,4.5-21.4,14.5c-0.7,2-2.7,4.1-4.6,4.9
		C75.3,133.2,64.7,137.3,53.5,141.7z"/>
	<path class="st0" d="M87.4,227.2c-8-20.1-16-40.1-24.5-61.2c8.8-3.5,17.2-6.9,26.5-10.6c0,24.5,0,47.8,0,71
		C88.8,226.7,88.1,226.9,87.4,227.2z"/>
	<path class="st0" d="M259.5,108.7c-16.9,0-32.8,0-48.7,0c-0.2-0.4-0.3-0.8-0.5-1.1c13.7-5.5,27.5-11.1,42-16.9
		C254.6,96.6,256.9,102.2,259.5,108.7z"/>
</g>
</svg>
