<?xml version="1.0" encoding="utf-8"?>
<!-- Generator: Adobe Illustrator 28.1.0, SVG Export Plug-In . SVG Version: 6.00 Build 0)  -->
<svg version="1.1" id="Layer_1" xmlns="http://www.w3.org/2000/svg" xmlns:xlink="http://www.w3.org/1999/xlink" x="0px" y="0px"
	 viewBox="0 0 314 314" style="enable-background:new 0 0 314 314;" xml:space="preserve">
<style type="text/css">
	.st0{fill:#EB2127;}
</style>
<g>
	<path class="st0" d="M278,55.9c-26.1,65-51.9,129.3-78,194.4c-50.3-12.4-99.6-24.6-150.5-37.2c4.3-10.7,8.2-20.5,12.1-30.4
		C82.4,130.8,103.3,79,123.9,27.1c2.6-6.5,5.1-9.9,13-8c45.5,11.6,91.1,22.7,136.6,34.1C274.6,53.5,275.5,54.4,278,55.9z
		 M123.5,93.8c33.3,8.2,65.1,16.2,96.9,23.8c2.2,0.5,6.7-1.4,7.6-3.4c6.8-15.8,12.9-31.8,19.5-48.5c-34.7-8.6-68-16.9-102.3-25.4
		C138.1,57.7,131.2,74.7,123.5,93.8z"/>
	<path class="st0" d="M273.4,83.5c7.1,3.1,12.9,5.6,19.8,8.6c-26.2,65.3-52.1,130-78.4,195.5C162.4,266,111,244.8,59.6,223.5
		c0.2-0.6,0.4-1.3,0.6-1.9c24.8,6.1,49.6,12.2,74.3,18.3c19.5,4.8,39.1,9.1,58.4,14.7c8.7,2.5,11.7-0.2,14.8-8
		c20.3-51.5,41.2-102.9,61.9-154.3C270.6,89.7,271.8,87.2,273.4,83.5z"/>
	<path class="st0" d="M92.8,8.6c10.1,2.6,19.3,4.9,29.5,7.5C96,81.6,70.2,145.9,44,211.3c-9.6-2.3-18.8-4.5-29.6-7.1
		C40.7,138.6,66.6,73.9,92.8,8.6z"/>
	<path class="st0" d="M193.9,285.2c-3.6,8.9-6.4,15.9-9.7,24.2c-43.2-26.5-85.9-52.6-128.5-78.7c0.3-0.7,0.7-1.4,1-2.2
		C102,247.2,147.3,266,193.9,285.2z"/>
</g>
</svg>
