<svg viewBox="0 0 110 135" fill="none" xmlns="http://www.w3.org/2000/svg">
<path d="M43.9111 112.495H43.1211C32.8657 112.495 22.6112 112.495 12.3572 112.495C9.41186 112.549 6.56072 111.457 4.40514 109.449C2.27813 107.556 0.964687 104.914 0.739123 102.076C0.668123 101.292 0.645129 100.502 0.645129 99.714C0.639795 81.052 0.64481 62.3897 0.660143 43.727C0.664208 40.8724 1.78386 38.1325 3.78014 36.092C5.6211 34.1289 8.08638 32.8657 10.7551 32.518C11.2938 32.4426 11.8372 32.4072 12.3811 32.412C19.2051 32.4054 26.0291 32.4074 32.8531 32.418C33.0413 32.4434 33.2325 32.4021 33.3934 32.3012C33.5543 32.2004 33.6749 32.0465 33.7341 31.866C34.1389 30.8543 34.8174 29.9752 35.6936 29.3274C36.5698 28.6796 37.6092 28.2885 38.6952 28.198C40.0688 28.1175 41.4456 28.1075 42.8202 28.168C43.3082 28.168 43.7961 28.168 44.4421 28.168C40.7571 24.468 38.9261 20.161 39.4021 15.013C39.5742 12.5832 40.3245 10.2297 41.5904 8.14857C42.8564 6.06747 44.6015 4.31906 46.6802 3.04902C50.0273 0.922933 54.0491 0.12701 57.9537 0.817939C61.8584 1.50887 65.3629 3.63659 67.7772 6.78217C70.1915 9.92775 71.3406 13.8632 70.9984 17.8137C70.6562 21.7642 68.8474 25.4435 65.9281 28.127C66.1371 28.144 66.2912 28.166 66.4452 28.166C68.0092 28.166 69.5742 28.166 71.1382 28.166C72.3103 28.1911 73.4502 28.5535 74.4217 29.2097C75.3933 29.8659 76.1551 30.7881 76.6161 31.866C76.658 32.0438 76.7651 32.1994 76.9162 32.302C77.0674 32.4046 77.2514 32.4467 77.4321 32.42C84.2374 32.406 91.0425 32.406 97.8472 32.42C100.559 32.3613 103.205 33.2568 105.324 34.95C106.508 35.8659 107.495 37.0124 108.223 38.3202C108.952 39.628 109.408 41.07 109.564 42.559C109.629 43.1752 109.66 43.7945 109.656 44.414C109.66 63.414 109.657 82.414 109.647 101.414C109.624 103.939 108.706 106.374 107.058 108.287C105.208 110.554 102.56 112.026 99.6581 112.403C99.1551 112.472 98.6477 112.503 98.1401 112.496C87.8288 112.501 77.5175 112.501 67.2062 112.496H66.3511C66.4051 113.933 66.3881 115.315 66.5301 116.681C66.6301 117.696 66.9532 118.689 67.1592 119.694C67.2462 120.114 67.4521 120.258 67.8971 120.254C70.6111 120.232 73.3261 120.267 76.0401 120.235C77.0651 120.182 78.0899 120.34 79.0505 120.702C80.0111 121.063 80.8867 121.619 81.6222 122.335C82.927 123.581 83.6976 125.285 83.7721 127.088C83.8612 128.189 83.6919 129.296 83.2775 130.321C82.863 131.345 82.215 132.258 81.3851 132.988C80.1608 134.157 78.5367 134.814 76.8441 134.827C62.4241 134.833 48.0038 134.833 33.5831 134.827C32.0318 134.796 30.5322 134.264 29.3083 133.31C28.0845 132.356 27.2021 131.032 26.7931 129.535C26.335 127.94 26.4358 126.236 27.0785 124.705C27.7212 123.175 28.8673 121.91 30.3271 121.12C31.3835 120.532 32.5742 120.228 33.7831 120.238C36.6864 120.228 39.5895 120.228 42.4922 120.238C42.8362 120.238 43.0341 120.177 43.1391 119.807C43.8577 117.437 44.1183 114.951 43.9071 112.483M42.5071 40.918C41.5431 40.918 40.4552 40.918 39.3672 40.918C38.1481 40.9117 36.9579 40.5461 35.9455 39.867C34.9332 39.188 34.1435 38.2255 33.6752 37.1C33.6299 36.9234 33.5205 36.77 33.3684 36.6694C33.2163 36.5689 33.0324 36.5285 32.8522 36.556C26.4432 36.571 20.0351 36.563 13.6261 36.57C12.8761 36.57 12.1262 36.593 11.3782 36.67C9.61047 36.8453 7.96789 37.6612 6.76024 38.9639C5.55259 40.2666 4.86326 41.9661 4.82213 43.742C4.77813 60.537 4.80306 77.332 4.80406 94.126C4.80406 94.326 4.82116 94.526 4.83116 94.756H22.0242C21.9919 94.6023 21.9481 94.4512 21.8932 94.304C21.0795 92.4548 20.992 90.3669 21.6484 88.4561C22.3048 86.5454 23.6568 84.9519 25.4352 83.993C26.8304 83.3231 28.3765 83.0294 29.9202 83.141C30.4802 83.149 31.0391 83.141 31.6471 83.141C31.6471 82.008 31.6042 80.953 31.6592 79.902C31.7071 78.7808 31.8169 77.6631 31.9881 76.554C32.4603 74.3427 33.3996 72.2578 34.7432 70.439C36.971 67.1075 38.7625 63.5041 40.0741 59.717C41.6428 54.7833 42.4617 49.642 42.5032 44.465C42.5362 43.308 42.5032 42.149 42.5032 40.921M105.475 94.755V94.07C105.475 77.35 105.478 60.6297 105.483 43.909C105.478 41.9981 104.727 40.1647 103.39 38.7993C102.054 37.4338 100.237 36.6444 98.3262 36.599C91.2972 36.485 84.2641 36.569 77.2331 36.563C77.1154 36.5475 76.996 36.5764 76.8984 36.6441C76.8008 36.7117 76.7319 36.8133 76.7051 36.929C76.4389 37.6768 76.0221 38.362 75.4805 38.9422C74.9388 39.5224 74.2839 39.9852 73.5561 40.302C72.7424 40.63 71.883 40.8304 71.0082 40.896C69.9302 40.996 68.8361 40.92 67.6881 40.92C67.6881 41.179 67.6811 41.363 67.6881 41.546C67.7481 42.857 67.7752 44.171 67.8882 45.478C68.0882 47.902 68.2701 50.331 68.5881 52.741C69.1283 56.8802 70.3779 60.8953 72.2821 64.61C73.4921 66.981 74.9151 69.246 76.2821 71.534C77.2304 73.0462 77.9208 74.7055 78.3251 76.444C78.6288 78.4132 78.736 80.4077 78.6451 82.398C78.6451 82.634 78.6451 82.869 78.6451 83.242C79.9486 83.1515 81.2571 83.1615 82.5591 83.272C87.7961 84.111 90.2082 89.154 88.6232 93.832C88.5232 94.138 88.3861 94.432 88.2591 94.755H105.475ZM74.4681 83.11C74.4681 82.256 74.5021 81.431 74.4601 80.61C74.4366 79.4115 74.3395 78.2156 74.1692 77.029C73.7777 75.4965 73.0759 74.0605 72.1072 72.81C70.4229 70.2494 68.9558 67.5523 67.7212 64.747C66.1951 61.2758 65.1196 57.6234 64.5211 53.879C64.4421 53.387 64.2671 53.245 63.7711 53.247C58.0431 53.265 52.3142 53.258 46.5862 53.258H45.9512C45.9002 53.458 45.8512 53.62 45.8202 53.784C44.8374 59.7058 42.733 65.3855 39.6201 70.518C38.8891 71.743 38.1142 72.941 37.3572 74.151C36.3779 75.7193 35.8457 77.5253 35.8181 79.374C35.7871 80.61 35.8121 81.848 35.8121 83.11H74.4681ZM4.75511 98.885C4.80311 99.941 4.78516 100.938 4.90416 101.92C5.14159 103.675 6.00051 105.287 7.32494 106.462C8.64936 107.638 10.3515 108.299 12.1222 108.327C40.7715 108.327 69.4208 108.325 98.0702 108.32C99.1244 108.328 100.168 108.108 101.129 107.673C102.089 107.239 102.944 106.601 103.634 105.804C105.462 103.804 105.643 101.419 105.422 98.885H4.75511ZM55.1201 87.312C46.4301 87.312 37.7398 87.312 29.0492 87.312C28.5513 87.3194 28.0599 87.4261 27.6039 87.6259C27.1478 87.8258 26.7363 88.1147 26.3934 88.4758C26.0506 88.8369 25.7834 89.2628 25.6074 89.7286C25.4314 90.1944 25.3503 90.6906 25.3688 91.1881C25.3872 91.6857 25.5048 92.1746 25.7148 92.626C25.9248 93.0775 26.2229 93.4825 26.5915 93.8172C26.9602 94.1519 27.392 94.4095 27.8616 94.5751C28.3312 94.7406 28.8291 94.8106 29.3262 94.781C46.4595 94.781 63.5948 94.781 80.7322 94.781C81.1632 94.7935 81.5943 94.76 82.0182 94.681C82.9226 94.5304 83.7333 94.0347 84.2796 93.2983C84.826 92.562 85.0653 91.6423 84.9471 90.733C84.7281 88.469 83.2741 87.313 80.9641 87.313H55.1201M66.8281 16.42C66.823 14.1126 66.1345 11.8584 64.8495 9.94196C63.5645 8.02548 61.7405 6.53258 59.6079 5.65168C57.4753 4.77077 55.1295 4.54134 52.8666 4.99232C50.6037 5.4433 48.5249 6.55447 46.8929 8.18565C45.2609 9.81682 44.1487 11.8949 43.6965 14.1576C43.2444 16.4203 43.4727 18.7661 44.3525 20.8992C45.2323 23.0323 46.7243 24.857 48.6401 26.143C50.5559 27.429 52.8098 28.1187 55.1172 28.125C56.6571 28.1341 58.1835 27.8375 59.608 27.2525C61.0325 26.6675 62.3268 25.8058 63.416 24.7172C64.5052 23.6285 65.3677 22.3347 65.9534 20.9104C66.539 19.4862 66.8363 17.9599 66.8281 16.42ZM55.1802 124.403H43.3071C40.1601 124.403 37.0071 124.396 33.8651 124.403C33.3181 124.398 32.7793 124.536 32.3017 124.802C31.8242 125.069 31.4242 125.455 31.1416 125.924C30.8589 126.392 30.7032 126.926 30.6898 127.473C30.6764 128.02 30.8058 128.56 31.0652 129.042C31.3638 129.592 31.8141 130.045 32.3627 130.346C32.9112 130.647 33.5348 130.785 34.1592 130.742C39.7372 130.756 45.3162 130.748 50.8942 130.748H76.1111C76.8093 130.784 77.502 130.606 78.0956 130.236C78.6892 129.867 79.1553 129.324 79.4311 128.682C79.6132 128.196 79.6731 127.674 79.6057 127.16C79.5383 126.645 79.3457 126.156 79.0447 125.733C78.7436 125.311 78.3435 124.97 77.8794 124.738C77.4153 124.507 76.9015 124.393 76.3832 124.407C69.3165 124.403 62.2498 124.403 55.1831 124.407M55.1742 32.323C49.9352 32.323 44.6961 32.317 39.4571 32.336C39.0474 32.3332 38.644 32.4365 38.2861 32.636C37.8899 32.8953 37.5872 33.2745 37.422 33.7182C37.2568 34.1619 37.2379 34.6468 37.3682 35.102C37.4786 35.5942 37.7606 36.031 38.1637 36.3342C38.5668 36.6374 39.0646 36.7873 39.5681 36.757C49.9894 36.757 60.4105 36.757 70.8312 36.757C71.1232 36.7614 71.4131 36.706 71.683 36.5942C71.9528 36.4823 72.1968 36.3164 72.4001 36.1066C72.6034 35.8969 72.7616 35.6477 72.865 35.3745C72.9683 35.1013 73.0146 34.8098 73.0011 34.518C73.0258 34.226 72.9872 33.9322 72.8878 33.6565C72.7884 33.3809 72.6305 33.13 72.425 32.9211C72.2196 32.7121 71.9714 32.5501 71.6975 32.446C71.4236 32.3419 71.1305 32.2982 70.8381 32.318C65.6181 32.318 60.3981 32.318 55.1781 32.318M46.4621 49.054H63.8741C63.7401 46.33 63.6081 43.644 63.4741 40.974H46.8212C46.7002 43.685 46.5801 46.343 46.4591 49.054M48.0812 112.514C48.2567 115.096 48.0183 117.689 47.3751 120.195H62.9751C62.3259 117.69 62.0789 115.097 62.2432 112.514H48.0812Z" fill="#EC1C24"/>
<path d="M22.8343 44.235C26.5083 44.235 30.1819 44.235 33.8552 44.235C34.1287 44.2131 34.4037 44.2504 34.6614 44.3444C34.9191 44.4384 35.1536 44.5868 35.3488 44.7795C35.544 44.9723 35.6954 45.2048 35.7926 45.4613C35.8899 45.7179 35.9307 45.9923 35.9123 46.266C35.9289 46.5393 35.8873 46.813 35.7903 47.069C35.6933 47.3251 35.543 47.5575 35.3494 47.7511C35.1558 47.9447 34.9233 48.095 34.6673 48.1921C34.4112 48.2891 34.1376 48.3307 33.8643 48.314H11.7643C11.4919 48.3325 11.2187 48.2936 10.9622 48.2C10.7057 48.1064 10.4716 47.9602 10.275 47.7706C10.0785 47.5811 9.92398 47.3525 9.82119 47.0995C9.7184 46.8466 9.66966 46.5749 9.67825 46.302C9.65743 46.0244 9.69704 45.7456 9.79421 45.4848C9.89139 45.2239 10.0439 44.9872 10.2412 44.7909C10.4386 44.5946 10.676 44.4434 10.9374 44.3476C11.1988 44.2518 11.4778 44.2137 11.7553 44.236C15.4479 44.236 19.1406 44.236 22.8333 44.236" fill="#EC1C24"/>
<path d="M18.0461 52.646C20.0791 52.646 22.113 52.684 24.146 52.632C24.4317 52.6052 24.7198 52.6374 24.9925 52.7265C25.2651 52.8156 25.5165 52.9598 25.7311 53.1502C25.9457 53.3405 26.1191 53.573 26.2402 53.833C26.3612 54.0931 26.4276 54.3753 26.4351 54.662C26.4462 54.9505 26.3967 55.2382 26.2901 55.5065C26.1834 55.7748 26.0218 56.0178 25.8157 56.22C25.6096 56.4222 25.3635 56.579 25.0932 56.6805C24.8229 56.7819 24.5343 56.8257 24.246 56.809C20.104 56.836 15.9631 56.829 11.8211 56.809C11.3091 56.83 10.8073 56.6612 10.4122 56.3349C10.017 56.0085 9.75632 55.5478 9.68009 55.041C9.58957 54.5453 9.68612 54.0336 9.95121 53.605C10.2163 53.1764 10.631 52.8614 11.115 52.721C11.3127 52.6673 11.5172 52.6423 11.7221 52.647C13.8301 52.6417 15.9384 52.6417 18.047 52.647" fill="#EC1C24"/>
<path d="M87.5411 48.315H76.4622C76.1905 48.3206 75.9205 48.2719 75.668 48.1717C75.4154 48.0715 75.1854 47.9219 74.9915 47.7317C74.7975 47.5414 74.6436 47.3143 74.5386 47.0637C74.4336 46.8132 74.3797 46.5441 74.3801 46.2724C74.3805 46.0008 74.4352 45.7319 74.5409 45.4816C74.6466 45.2313 74.8012 45.0047 74.9957 44.815C75.1902 44.6253 75.4206 44.4764 75.6735 44.3769C75.9263 44.2775 76.1965 44.2296 76.4681 44.236C83.8341 44.236 91.1991 44.246 98.5681 44.226C98.8503 44.2099 99.1327 44.2534 99.397 44.3536C99.6612 44.4538 99.9015 44.6085 100.102 44.8076C100.303 45.0067 100.459 45.2457 100.561 45.5092C100.663 45.7727 100.709 46.0547 100.695 46.337C100.698 46.6111 100.643 46.8827 100.535 47.1345C100.427 47.3864 100.267 47.6128 100.066 47.7995C99.8656 47.9862 99.6281 48.129 99.3691 48.2188C99.1102 48.3086 98.8353 48.3434 98.5621 48.321C94.8891 48.304 91.2141 48.315 87.5411 48.315Z" fill="#EC1C24"/>
<path d="M92.3092 52.646C94.3432 52.646 96.3793 52.693 98.4093 52.628C98.7002 52.6011 98.9934 52.6356 99.2701 52.7292C99.5468 52.8228 99.8008 52.9735 100.016 53.1714C100.23 53.3693 100.401 53.6102 100.517 53.8783C100.633 54.1465 100.691 54.4359 100.688 54.728C100.703 55.0147 100.656 55.3012 100.55 55.5679C100.444 55.8345 100.281 56.0749 100.073 56.2726C99.8644 56.4702 99.6159 56.6203 99.3441 56.7126C99.0723 56.8048 98.7837 56.8371 98.4983 56.807C94.3543 56.852 90.2093 56.838 86.0653 56.813C85.5583 56.8332 85.0612 56.6681 84.6671 56.3486C84.2729 56.029 84.0086 55.5768 83.9236 55.0766C83.8385 54.5763 83.9386 54.0622 84.2051 53.6304C84.4715 53.1985 84.886 52.8785 85.3712 52.73C85.5685 52.6756 85.7727 52.65 85.9773 52.654C88.0866 52.6487 90.1963 52.6487 92.3063 52.654" fill="#EC1C24"/>
<path d="M55.1682 101.566C57.4112 101.566 59.6563 101.623 61.8963 101.545C62.1852 101.52 62.4763 101.555 62.7509 101.649C63.0255 101.742 63.2777 101.892 63.4916 102.087C63.7055 102.283 63.8763 102.522 63.9933 102.787C64.1103 103.052 64.171 103.339 64.1714 103.629C64.1718 103.919 64.112 104.206 63.9957 104.472C63.8795 104.738 63.7093 104.976 63.496 105.173C63.2827 105.369 63.0308 105.52 62.7565 105.614C62.4822 105.708 62.1913 105.744 61.9022 105.72C60.1682 105.735 58.4343 105.72 56.7023 105.72C53.9503 105.72 51.2023 105.726 48.4463 105.72C48.1494 105.744 47.8508 105.705 47.5702 105.605C47.2896 105.505 47.0336 105.347 46.819 105.14C46.6044 104.933 46.4362 104.684 46.3256 104.407C46.2149 104.131 46.1644 103.834 46.1773 103.536C46.1778 103.277 46.2295 103.02 46.3294 102.78C46.4292 102.541 46.5753 102.323 46.7593 102.14C46.9433 101.957 47.1616 101.812 47.4016 101.714C47.6417 101.615 47.8987 101.565 48.1582 101.566C50.4952 101.559 52.8333 101.566 55.1703 101.566" fill="#EC1C24"/>
</svg>
