<?xml version="1.0" encoding="utf-8"?>
<!-- Generator: Adobe Illustrator 28.1.0, SVG Export Plug-In . SVG Version: 6.00 Build 0)  -->
<svg version="1.1" id="Layer_1" xmlns="http://www.w3.org/2000/svg" xmlns:xlink="http://www.w3.org/1999/xlink" x="0px" y="0px"
	 viewBox="0 0 403.1 329" style="enable-background:new 0 0 403.1 329;" xml:space="preserve">
<style type="text/css">
	.st0{fill:#EB2127;}
</style>
<path class="st0" d="M97.6,10c8.5,0,16.1,0,24.3,0c0,7.9,0,15.3,0,23.8c2.7,0,4.9,0,7.1,0c48.4,0,96.7-0.1,145.1,0.2
	c6.1,0,8.2-1.6,7.6-7.7c-0.5-5.2-0.1-10.4-0.1-16.1c7.9,0,15.5,0,23.9,0c0,7.7,0,15.3,0,23.7c5.5,0,10.2-0.1,15,0
	c19.9,0.4,35.7,16.3,35.7,36.2c0,70.6,0,141.1,0,211.7c0,21.2-15.5,37.1-36.7,37.2c-78.7,0.1-157.4,0.1-236.2,0
	c-20.4,0-36.3-16-36.3-36.3c-0.1-71-0.1-142,0-212.9C47,50,62.8,34.4,82.5,33.8c15.1-0.5,15.1-0.5,15.1-15.6
	C97.6,15.6,97.6,12.9,97.6,10z M201.4,123c-41.2,0-82.5,0.1-123.7-0.1c-5,0-7,1.2-6.9,6.6c0.2,50,0.1,100.1,0.2,150.1
	c0,10.9,4.4,15.3,15.3,15.3c76.8,0.1,153.7,0.1,230.5,0c11.2,0,15.4-4.4,15.4-15.7c0-49.8,0-99.7,0.2-149.5c0-5.7-1.9-6.9-7.2-6.9
	C283.9,123.1,242.6,123,201.4,123z M281.6,81.5c0-5.7-0.4-11.1,0.1-16.5c0.5-5.8-1.5-7.4-7.3-7.4c-48.4,0.2-96.7,0.1-145.1,0.1
	c-2.2,0-4.5,0-7.5,0c0,8.4,0,16,0,23.8c-8.3,0-15.8,0-24.2,0c0-4,0-7.7,0-11.4c0.1-12.7,0.1-12.7-12.5-12.4
	c-9.3,0.2-13.9,4.6-14.2,13.8c-0.2,6.9,0.3,13.8-0.2,20.7c-0.4,5.7,1.8,7,7.2,7c53.6-0.2,107.2-0.1,160.7-0.1
	c28.9,0,57.8-0.2,86.7,0.1c5.7,0.1,7.2-1.7,6.9-7.1c-0.5-7.3,0-14.6-0.2-22c-0.2-6.7-4.1-11.6-10.3-12.2c-5.1-0.5-10.3-0.1-16.3-0.1
	c0,8.2,0,15.8,0,23.6C297.2,81.5,289.8,81.5,281.6,81.5z"/>
<path class="st0" d="M189.5,148.4c7.7,0,14.2-0.2,20.6,0.2c1.3,0.1,3.5,2.3,3.6,3.6c0.4,5.6,0.4,11.3,0,16.9
	c-0.1,1.3-2.3,3.5-3.6,3.6c-5.6,0.4-11.3,0.4-16.9,0c-1.3-0.1-3.4-1.9-3.5-3C189.4,162.9,189.5,156,189.5,148.4z"/>
<path class="st0" d="M189.5,246.3c1.2-0.8,1.3-1,1.5-1c7.4,0.3,14.8,0.6,22.3,0.8c0,7.5,0,14.9,0,23.4c-6.9,0-14,0.1-21-0.1
	c-1,0-2.6-1.7-2.6-2.7C189.4,259.6,189.5,252.6,189.5,246.3z"/>
<path class="st0" d="M286.8,148.4c7,0,13.6-0.2,20.2,0.2c1.2,0.1,3.2,2.4,3.3,3.8c0.4,5.4,0,10.8,0.2,16.3c0.1,3.5-1.7,4.3-4.7,4.2
	c-24.6-0.8-18.9,4.9-19.7-19.1C286.2,152.2,286.6,150.5,286.8,148.4z"/>
<path class="st0" d="M238.1,172.3c0-7.9,0-15.3,0-23.4c7.7,0,15.3,0,23.4,0c0,7.6,0,15.2,0,23.4
	C253.8,172.3,246.1,172.3,238.1,172.3z"/>
<path class="st0" d="M116.9,245.6c0,8,0,15.4,0,23.8c-7.3,0-14.3,0.1-21.3-0.1c-0.9,0-1.9-1.7-2.6-2.7c-0.3-0.4-0.1-1.2-0.1-1.8
	c0.4-6.4,0.7-12.7,1.1-19.1C101.4,245.6,108.8,245.6,116.9,245.6z"/>
<path class="st0" d="M164.7,269.1c-7.7,0-15.3,0-23.2,0c0-8,0-15.6,0-23.6c7.8,0,15.2,0,23.2,0C164.7,253.2,164.7,260.9,164.7,269.1
	z"/>
<path class="st0" d="M92.9,172.7c0-7.4-0.2-14,0.2-20.6c0.1-1.3,2.2-3.4,3.6-3.5c5.6-0.4,11.2-0.4,16.8,0c1.3,0.1,3.4,2.3,3.5,3.7
	c0.4,5.6,0.4,11.2,0,16.8c-0.1,1.3-2.3,3.4-3.7,3.5C106.9,172.9,100.4,172.7,92.9,172.7z"/>
<path class="st0" d="M164.6,172.3c-7.7,0-15.3,0-23.5,0c0-7-0.3-13.4,0.2-19.9c0.1-1.5,2.9-3.8,4.5-3.9c6-0.5,12.1-0.2,18.8-0.2
	C164.6,156.5,164.6,164.2,164.6,172.3z"/>
<path class="st0" d="M190.1,197.3c7.7,0,15.4,0,23.4,0c0,7.7,0,15.2,0,23.2c-7.5,0-15.1,0-23.4,0
	C190.1,213.1,190.1,205.4,190.1,197.3z"/>
<path class="st0" d="M310.2,197.3c0,8.2,0,15.6,0,23.4c-8,0-15.6,0-23.6,0c0-7.9,0-15.5,0-23.4C294.5,197.3,302.1,197.3,310.2,197.3
	z"/>
<path class="st0" d="M238.1,245.4c7.9,0,15.3,0,23.3,0c0,7.7,0,15.3,0,23.5c-7.6,0-15.3,0-23.3,0
	C238.1,261.1,238.1,253.7,238.1,245.4z"/>
<path class="st0" d="M93.4,197.3c7.8,0,15.3,0,23.2,0c0,7.7,0,15.2,0,23.3c-7.5,0-15.1,0-23.2,0C93.4,213.1,93.4,205.5,93.4,197.3z"
	/>
<path class="st0" d="M141.5,197.3c8,0,15.4,0,23.3,0c0,7.8,0,15.4,0,23.4c-7.8,0-15.4,0-23.3,0C141.5,212.9,141.5,205.5,141.5,197.3
	z"/>
<path class="st0" d="M261.5,220.7c-8,0-15.5,0-23.3,0c0-7.8,0-15.2,0-23.2c7.6,0,15.2,0,23.3,0C261.5,205,261.5,212.6,261.5,220.7z"
	/>
</svg>
