<svg viewBox="0 0 101 100" fill="none" xmlns="http://www.w3.org/2000/svg">
<path d="M100.027 50.0134C100.027 22.3914 77.6355 -8.13291e-05 50.0135 -8.13291e-05C22.3924 -8.13291e-05 0 22.3914 0 50.0134C0 74.9763 18.2891 95.6673 42.199 99.4189V64.4699H29.5007V50.0134H42.199V38.9945C42.199 26.46 49.6657 19.5367 61.0902 19.5367C66.5616 19.5367 72.2855 20.5136 72.2855 20.5136V32.8217H65.9788C59.7655 32.8217 57.828 36.6764 57.828 40.6314V50.0134H71.6987L69.4819 64.4699H57.828V99.4189C81.7379 95.6673 100.027 74.9763 100.027 50.0134Z" fill="#496DBE"/>
<path d="M69.6081 64.444L71.8259 49.9875H57.9542V40.6054C57.9542 36.6505 59.8917 32.7948 66.105 32.7948H72.4117V20.4867C72.4117 20.4867 66.6879 19.5098 61.2165 19.5098C49.7919 19.5098 42.3252 26.4341 42.3252 38.9685V49.9875H29.627V64.444H42.3252V99.393C44.8716 99.7919 47.4816 100 50.1397 100C52.7988 100 55.4078 99.7919 57.9542 99.393V64.444H69.6081Z" fill="white"/>
</svg>
