<?xml version="1.0" encoding="utf-8"?>
<!-- Generator: Adobe Illustrator 28.1.0, SVG Export Plug-In . SVG Version: 6.00 Build 0)  -->
<svg version="1.1" id="Layer_1" xmlns="http://www.w3.org/2000/svg" xmlns:xlink="http://www.w3.org/1999/xlink" x="0px" y="0px"
	 viewBox="0 0 350.5 304.6" style="enable-background:new 0 0 350.5 304.6;" xml:space="preserve">
<style type="text/css">
	.st0{fill:#EB2127;}
</style>
<g>
	<path class="st0" d="M248.2,226.7c-4.4,0.7-8.1,1.3-12.2,1.9c0.4,9.3,0.8,18.3,1.3,27.2c0.5,8.5-3.5,14.3-10.6,15
		c-7.8,0.7-13.3-3.9-13.9-12.5c-1-13.5-1.6-27-2-40.5c-0.2-7.2,4.3-11.7,11.9-12.5c6.7-0.8,13.5-1.5,20.9-2.4
		c-1.2-5.5-2.3-10.2-3.3-14.8c-8.9,2.4-17.5,4.8-26.2,7c-6.2,1.5-11.8-1.5-13.3-6.9c-1.8-6.3,1.4-11.9,8-13.9
		c0.4-0.1,0.8-0.2,1.3-0.2c12-2,22-6.1,28.2-18.1c3.7-7.3,11.2-11.7,20.3-11.5c8,0.2,14.7,4.2,16.4,11.9c3.8,16.5,6.9,33.1,9.8,49.8
		c1.1,6.7-2.3,11.9-7.8,15.9c-1.8,1.3-3.8,4-3.8,6c0,3.5-0.1,7.6,4.7,9.5c6.8,2.7,13.3,6,19.8,9.2c8.3,4,11.3,10.9,7.9,17.7
		c-3.3,6.5-10.4,8.4-18.3,4.7c-9.1-4.2-18.1-8.8-27.4-12.8c-6-2.6-9-6.8-9.7-13.2C249.6,237.8,248.9,232.7,248.2,226.7z"/>
	<path class="st0" d="M136.6,161.2c2.5-1.5,4.5-2.9,6.6-3.9c3.3-1.7,4.8-3.9,4.9-8c0.3-11.5,8.1-20.5,19.5-23.5
		c10.4-2.7,21.3,2,27.1,11.5c5.7,9.5,4.7,21.7-2.4,30c-7.2,8.4-19.1,11.3-29.2,6.4c-3.6-1.7-6.1-1.6-9.2,0.6
		c-3.6,2.7-7.7,4.7-11.4,7.2c-5.5,3.7-10.4,3.1-15.1-1.4c-2.9-2.8-6-5.3-9.6-8.6c-2,6.1-3.7,11.3-5.7,17.5c6.6,0,12.3-0.1,18,0
		c11.8,0.2,17.9,6.3,17.9,17.9c0,16.8,0,33.5,0,50.3c0,8.4-4.3,13.3-11.4,13.3c-7,0-11.4-5-11.5-13.4c-0.1-12.7-0.3-25.4,0.1-38
		c0.2-6.1-2.2-7.9-8-7.7c-10.1,0.3-20.2,0.2-30.3,0c-12.5-0.2-18.9-9.4-15.1-21.5c4.4-13.9,8.8-27.8,13.4-41.6
		c3.1-9.5,9.6-12.1,19.2-9.3C117.2,143,126.7,151.9,136.6,161.2z M188.2,150.7c0-8.5-6.9-15.3-15.2-15.1
		c-7.8,0.2-14.8,7.1-14.9,14.9c-0.2,8.1,6.9,15.3,15.1,15.4C181.6,166,188.3,159.2,188.2,150.7z"/>
	<path class="st0" d="M179.8,99.1c-16.4,0.1-30.7-10.2-35.4-25.6c-4.8-15.5,1-32.2,14.4-41.4c13.2-9.1,31.1-8.5,43.7,1.5
		c12.6,10.1,17.3,27.2,10.9,42.3c-1.7,4-1.7,7.1,0.4,10.7c1.6,2.8,3,5.7,4.1,8.7c1.4,3.8-1.5,7.3-4.7,5.3
		c-9.8-6.2-19.4-5.3-29.5-1.6C182.5,99.4,181.1,99.1,179.8,99.1z M157.5,69.4c0.9,0,1.9,0,2.8,0c1.6-2.3,4.5-4.8,4.3-6.9
		c-0.2-2.3-3.2-5.4-5.5-6c-3.8-0.9-6.9,1.8-6.1,6C153.4,64.9,155.9,67.1,157.5,69.4z M180.6,55.1c-1,0-1.9,0.1-2.9,0.1
		c-1.4,2.4-3.8,4.6-4.1,7.1c-0.5,4.1,2.5,6.8,6.4,5.7c2.3-0.7,5.1-4,5.2-6.2C185.3,59.7,182.3,57.4,180.6,55.1z M201.2,55.1
		c-1,0-1.9,0.1-2.9,0.1c-1.4,2.4-3.8,4.6-4.1,7.1c-0.5,4.1,2.6,6.8,6.4,5.7c2.3-0.7,5.1-4,5.2-6.3C205.9,59.7,202.9,57.4,201.2,55.1
		z"/>
	<path class="st0" d="M142.7,117.1c0,12.5-9.6,22.1-21.9,22c-11.8-0.1-21.7-10-21.8-21.7c-0.1-12.1,10-22.1,22.2-22
		C133.2,95.5,142.6,104.9,142.7,117.1z"/>
	<path class="st0" d="M262.5,121c-0.1,11.9-9.9,21.7-21.7,21.7c-11.8,0-22.1-10.4-22-22.4c0.1-12.2,10-21.6,22.6-21.4
		C253.5,99.2,262.6,108.7,262.5,121z"/>
	<path class="st0" d="M90.4,236.6c-6.8,0-13.7-0.2-20.5,0.1c-6.1,0.2-6.3-3.4-6.2-7.9c0.1-4.2-0.4-8.3,5.9-8.2
		c13.7,0.2,27.4,0.2,41.1,0c5.5-0.1,6.4,2.8,6.2,7.3c-0.2,4.3,0.9,9-6,8.7C104.1,236.5,97.2,236.6,90.4,236.6z"/>
	<path class="st0" d="M182.2,150.6c-4,3-6.4,6.2-8.6,6.1c-2.2-0.1-5.5-3.2-6.2-5.5c-1-3.9,2-6.9,5.9-6.4
		C175.9,145.1,178.1,147.8,182.2,150.6z"/>
</g>
</svg>
