<?xml version="1.0" encoding="utf-8"?>
<!-- Generator: Adobe Illustrator 28.1.0, SVG Export Plug-In . SVG Version: 6.00 Build 0)  -->
<svg version="1.1" id="Layer_1" xmlns="http://www.w3.org/2000/svg" xmlns:xlink="http://www.w3.org/1999/xlink" x="0px" y="0px"
	 viewBox="0 0 314 314" style="enable-background:new 0 0 314 314;" xml:space="preserve">
<style type="text/css">
	.st0{fill:#EB2127;}
</style>
<g>
	<path class="st0" d="M33.8,157c0-40.6,0-81.2,0-121.8c0-1.6,0.5-2.8,1.9-3.6c0.6-0.3,1.4-0.4,2.1-0.4c12.6,0,25.2,0,37.8,0
		c39.6,0,79.2,0,118.8,0c2.7,0,4.2,1.4,4.2,4.2c0,81.1,0,162.1,0,243.2c0,2.8-1.4,4.2-4.2,4.2c-52.1,0-104.2,0-156.3,0
		c-1.4,0-2.6-0.3-3.4-1.5c-0.4-0.6-0.5-1.3-0.7-1.9c-0.1-0.3,0-0.7,0-1C33.8,237.9,33.8,197.5,33.8,157z M116.1,156.5
		c16.3,0,32.6,0,48.9,0c7.7,0,13.7-6,13.7-13.6c0-26.1,0-52.2,0-78.3c0-7.7-5.9-13.7-13.7-13.7c-32.7,0-65.3,0-98,0
		c-7.7,0-13.6,6-13.6,13.7c0,26.1,0,52.2,0,78.3c0,1.5,0.3,3.2,0.8,4.6c1.9,5.5,7,9.1,12.8,9.1C83.4,156.5,99.7,156.5,116.1,156.5z
		 M116.1,263.2c16.1,0,32.2,0,48.2,0c0.5,0,0.9,0,1.4,0c7.3-0.3,13-6.2,13-13.5c0-21.3,0-42.6,0-63.9c0-7.5-6-13.5-13.5-13.5
		c-32.7,0-65.3,0-98,0c-7.8,0-13.8,5.9-13.8,13.8c0,21.1,0,42.2,0,63.3c0,1,0.1,2,0.3,3c1.3,6.4,6.8,10.8,13.5,10.8
		C83.5,263.2,99.8,263.1,116.1,263.2z"/>
	<path class="st0" d="M203.3,54.4c2,1.1,3.8,2.2,5.7,3.3c14.9,8.6,29.8,17.2,44.7,25.8c9.7,5.6,19.4,11.2,29.2,16.8
		c2.7,1.5,3.2,3.5,1.6,6.1c-11.3,19.6-22.6,39.1-33.9,58.7c-14.4,24.9-28.7,49.8-43.1,74.6c-1.2,2.1-2.4,4.2-3.7,6.3
		c-0.1,0.2-0.3,0.5-0.6,0.9c0-0.5,0-0.7,0-0.9c0-12.5,0-25.1,0-37.6c0-0.4,0.1-0.9,0.3-1.3c9-15.7,18.1-31.4,27.1-47
		c7.8-13.4,15.5-26.9,23.3-40.3c2.4-4.2,2.4-8.3-0.2-12.3c-0.9-1.4-2.1-2.5-3.6-3.3c-9.6-5.6-19.2-11.1-28.9-16.7
		c-5.8-3.4-11.7-6.7-17.5-10.1c-0.3-0.2-0.6-0.6-0.6-0.9c0-7.2,0-14.4,0-21.7C203.3,54.8,203.3,54.7,203.3,54.4z"/>
	<path class="st0" d="M203.3,85.6c1.8,1,3.4,2,5.1,2.9c12.6,7.2,25.1,14.5,37.7,21.7c2.6,1.5,3.1,3.4,1.6,6
		c-4.4,7.6-8.8,15.2-13.2,22.8c-0.1,0.2-0.3,0.5-0.5,0.8c-2.6-1.5-5.2-3-7.8-4.5c-7.4-4.3-14.8-8.6-22.2-12.8
		c-0.4-0.2-0.7-0.4-0.7-1c0-11.8,0-23.6,0-35.3C203.3,86,203.3,85.9,203.3,85.6z"/>
	<path class="st0" d="M230.4,146.2c-9,15.6-18,31.1-26.9,46.6c0,0-0.1,0-0.1,0c0-20.7,0-41.3,0-62.2
		C212.4,135.8,221.4,141,230.4,146.2z"/>
	<path class="st0" d="M60.8,142c0-0.3,0-0.5,0-0.8c0-25.5,0-51.1,0-76.6c0-3.3,1.8-5.6,4.9-6.3c0.5-0.1,1-0.1,1.5-0.1
		c32.6,0,65.2,0,97.9,0c3.7,0,6.3,2.6,6.3,6.3c0,25.5,0,51.1,0,76.6c0,0.3,0,0.6,0,0.9c-0.1,0-0.1,0.1-0.2,0.1
		c-0.2-0.2-0.4-0.5-0.6-0.7c-10.6-13.2-21.2-26.5-31.8-39.7c-1.8-2.3-4.6-2.2-6.3,0.3c-5.3,7.9-10.5,15.8-15.8,23.7
		c-0.2,0.3-0.4,0.6-0.6,0.9c-0.2-0.3-0.4-0.5-0.5-0.7c-5.3-7.9-10.6-15.9-15.9-23.8c-1.7-2.5-4.5-2.6-6.4-0.3
		c-10.5,13.2-21.1,26.3-31.6,39.5c-0.2,0.3-0.5,0.6-0.7,0.9C60.9,142.1,60.9,142.1,60.8,142z M116.1,65.6c-8.7,0-15.9,7.2-15.9,15.9
		c0,8.8,7.2,16,16,16c8.7,0,15.9-7.2,15.9-15.9C132.1,72.8,124.9,65.6,116.1,65.6z"/>
	<path class="st0" d="M96.2,109.9c1.1,1.6,2,3,3,4.5c4,6,8,12.1,12.1,18.1c0.4,0.5,0.4,0.9,0,1.4c-0.3,0.4-0.6,0.9-0.9,1.3
		c-1.2,1.9-0.9,4.1,0.9,5.2c1.7,1.2,4,0.7,5.2-1.2c2.6-3.9,5.2-7.7,7.7-11.6c3.7-5.6,7.5-11.3,11.2-16.9c0.2-0.2,0.3-0.5,0.6-0.8
		c10.4,13,20.7,25.9,31.2,38.9c-0.6,0.1-1,0.2-1.4,0.3c-0.5,0-1,0-1.5,0c-32.4,0-64.7,0-97.1,0c-0.7,0-1.3-0.1-2.2-0.2
		C75.4,135.8,85.7,122.9,96.2,109.9z"/>
	<path class="st0" d="M60.9,199.3c36.9,0,73.6,0,110.5,0c0,0.3,0,0.6,0,0.9c0,16.5,0,32.9,0,49.4c0,3.4-2.6,6-5.9,6.2
		c-0.2,0-0.4,0-0.6,0c-32.4,0-64.9,0-97.3,0c-2.4,0-4.4-0.8-5.7-2.8c-0.7-1-1-2.2-1-3.4c0-16.5,0-33,0-49.5
		C60.8,199.8,60.8,199.6,60.9,199.3z M116.2,236.1c-12.9,0-25.8,0-38.7,0c-0.3,0-0.6,0-0.9,0c-1.9,0.2-3.2,1.4-3.5,3.3
		c-0.2,1.5,0.9,3.2,2.4,3.7c0.6,0.2,1.2,0.3,1.9,0.3c25.8,0,51.6,0,77.4,0c0.2,0,0.4,0,0.6,0c2.7-0.2,4.4-2.7,3.4-5.1
		c-0.7-1.6-2-2.2-3.7-2.2C142.1,236.1,129.1,236.1,116.2,236.1z M126,211.6c-9.6,0-19.2,0-28.8,0c-0.3,0-0.6,0-0.9,0
		c-1.6,0.1-3,1.2-3.4,2.7c-0.4,1.5,0.1,3.1,1.5,3.9c0.8,0.4,1.8,0.7,2.7,0.7c19.3,0,38.5,0,57.8,0c0.6,0,1.2-0.1,1.7-0.2
		c2.4-0.7,3.3-3.6,1.9-5.6c-0.8-1.1-2-1.6-3.4-1.6C145.3,211.6,135.6,211.6,126,211.6z M79.2,218.9
		C79.2,218.9,79.2,218.9,79.2,218.9c0.8,0,1.6,0,2.4,0c2.2-0.1,3.8-1.7,3.8-3.7c0-2.1-1.7-3.6-3.9-3.6c-1.5,0-3,0-4.5,0
		c-2.2,0-3.9,1.6-3.9,3.7c0,2,1.6,3.6,3.8,3.7C77.6,219,78.4,218.9,79.2,218.9z"/>
	<path class="st0" d="M171.3,191.9c-36.8,0-73.6,0-110.5,0c0-1,0-2,0-2.9c0-1.1,0-2.1,0-3.2c0-3.6,2.7-6.2,6.2-6.2
		c11.5,0,22.9,0,34.4,0c21.2,0,42.4,0,63.6,0c2.9,0,5.1,1.5,6,4c0.1,0.3,0.2,0.6,0.2,0.9C171.3,187,171.3,189.4,171.3,191.9z"/>
	<path class="st0" d="M116,90.2c-4.7,0-8.6-3.8-8.6-8.5c0-4.8,3.8-8.7,8.6-8.7c4.8,0,8.6,3.9,8.6,8.6
		C124.7,86.4,120.9,90.2,116,90.2z"/>
</g>
</svg>
