<svg viewBox="0 0 490 491" fill="none" xmlns="http://www.w3.org/2000/svg">
<path d="M244.085 467.966C367.306 468.063 467.538 368.801 467.681 246.534C467.825 123.465 368.161 22.5468 246.379 22.4481C123.394 22.3481 22.2541 122.084 22.1181 243.593C21.9794 367.896 120.879 467.868 244.085 467.966ZM489.598 246.156C489.303 380.786 380.37 490.455 246.77 490.623C108.746 490.796 0.195406 381.654 0.136739 243.335C0.0807394 107.993 114.102 -1.18517 246.955 0.478827C381.727 2.16816 489.893 110.459 489.598 246.156Z" fill="#EC2027"/>
<path d="M249.089 370.846C260.227 371.041 269.373 362.711 269.88 351.911C270.416 340.497 261.421 330.983 249.897 330.777C238.841 330.578 229.583 339.05 229.064 349.838C228.503 361.51 237.204 370.638 249.089 370.846ZM305.089 49.8341C360.593 65.9141 401.807 99.3007 428.011 149.851C492.22 273.719 420.367 421.203 282.809 448.941C229.439 459.703 183.301 439.078 161.992 394.931C132.393 333.61 170.572 261.741 238.455 251.598C270.841 246.759 300.545 237.679 322.324 210.694C359.379 164.781 356.229 100.843 314.097 59.1594C311.027 56.1207 308.089 52.9461 305.089 49.8341Z" fill="#EC2027"/>
<path d="M259.701 138.543C259.968 149.71 251.329 159.135 240.656 159.326C230.265 159.511 220.32 149.731 220.285 139.293C220.248 128.87 228.62 120.223 239.259 119.695C250.86 119.121 259.425 127.018 259.701 138.543Z" fill="#EC2027"/>
</svg>
