<svg viewBox="0 0 100 100" fill="none" xmlns="http://www.w3.org/2000/svg">
<path d="M12.3652 80.26L12.8575 78.7918L11.9459 77.54C6.31332 69.8059 3 60.2799 3 49.9996C3 24.0978 24.0562 3.02285 49.9434 3.00002L49.9717 3.00083H50.0145C75.921 3.00083 97 24.0846 97 50.0004C97 75.9155 75.9209 97 50.0145 97C40.453 97 31.5932 94.1559 24.1651 89.2391L22.9659 88.4453L21.596 88.8831L8.01793 93.2226L12.3652 80.26Z" fill="#00C70A" stroke="white" stroke-width="6"/>
<path d="M32.277 22.558C33.7458 22.6178 34.4805 22.7057 35.4501 25.0277C36.6551 27.937 39.5934 35.1096 39.9459 35.8446C40.2984 36.5796 40.6518 37.5792 40.1517 38.549C39.6814 39.5486 39.27 39.99 38.5352 40.842C37.8004 41.6948 37.0954 42.341 36.3606 43.2527L36.3254 43.2941L36.3253 43.2941C35.6594 44.0756 34.9358 44.925 35.7735 46.3686C36.6253 47.8088 39.5636 52.5996 43.8837 56.4496C49.4677 61.4172 53.9925 63.0058 55.6089 63.6811C56.8132 64.1814 58.2538 64.0636 59.1354 63.1228C60.2525 61.9183 61.6333 59.9189 63.044 57.9495C64.0426 56.5384 65.3056 56.3617 66.6285 56.8611C67.9803 57.3315 75.1218 60.8589 76.5905 61.5939C78.0593 62.3297 79.0297 62.6815 79.3821 63.2987C79.7354 63.9159 79.7355 66.8261 78.5304 70.2365C77.3254 73.6452 72.5351 76.4683 68.7151 77.2912C66.1002 77.8495 62.6907 78.2909 51.2009 73.5291C36.5083 67.4433 27.0455 52.5108 26.3107 51.5419C25.6057 50.5713 20.375 43.6343 20.375 36.4618C20.375 29.2892 24.0192 25.7918 25.488 24.2927C26.693 23.0583 28.6909 22.5 30.6017 22.5C31.2196 22.5 31.7769 22.529 32.277 22.558Z" fill="white"/>
</svg>
