<svg viewBox="0 0 505 507" fill="none" xmlns="http://www.w3.org/2000/svg">
<path d="M297.627 381.42H297.618C297.618 385.142 297.594 388.864 297.624 392.586C297.651 395.891 299.224 397.868 301.862 398.012C304.606 398.162 306.555 396.199 306.592 392.703C306.672 385.058 306.606 377.411 306.476 369.766C306.427 366.868 304.651 365.306 301.968 365.384C299.214 365.464 297.698 366.986 297.644 369.946C297.575 373.77 297.627 377.595 297.627 381.42ZM104.36 473.834V473.82C107.78 473.82 111.199 473.831 114.619 473.818C118.332 473.802 120.602 472.171 120.688 469.484C120.783 466.543 118.538 464.624 114.75 464.599C107.704 464.55 100.658 464.559 93.6124 464.6C90.0391 464.62 87.8511 466.484 87.8711 469.334C87.8911 472.031 90.0258 473.78 93.4818 473.824C97.1071 473.87 100.734 473.834 104.36 473.834ZM58.7818 414.683V410.242C58.7818 389.084 58.8578 367.928 58.7058 346.772C58.6804 343.39 58.9978 340.952 62.9178 340.462C63.6938 340.366 64.4124 339.778 65.1471 339.399C74.3324 334.663 79.5964 323.344 77.0898 313.731C74.1751 302.55 64.2684 294.816 53.5298 295.339C42.6858 295.866 32.9004 304.298 31.2471 314.542C29.3858 326.072 35.6564 337.011 46.7324 340.82C49.3818 341.732 49.8538 342.935 49.8498 345.398C49.7845 386.359 49.8031 427.319 49.8071 468.279C49.8071 469.315 49.7498 470.362 49.8644 471.387C50.1458 473.91 51.6858 475.436 54.1364 475.487C56.5671 475.538 58.2285 474.128 58.6458 471.622C58.8138 470.608 58.7764 469.555 58.7764 468.52C58.7844 454.623 58.8018 440.726 58.7578 426.828C58.7525 424.956 58.8351 423.675 61.3218 423.714C69.0978 423.834 76.8778 423.692 84.6538 423.835C85.5178 423.851 86.8511 424.876 87.1324 425.714C88.6231 430.144 90.9991 433.876 94.5551 436.942C102.25 443.572 113.224 444.363 122.26 438.824C130.262 433.919 134.587 423.219 132.311 413.959C129.706 403.358 121.036 396.251 110.28 395.9C99.5911 395.552 90.6071 402.116 87.1751 412.635C86.9058 413.46 85.7951 414.583 85.0604 414.595C76.4658 414.732 67.8684 414.683 58.7818 414.683ZM277.87 464.391H190.086C190.086 457.47 190.222 450.763 190.019 444.066C189.936 441.303 190.666 439.97 193.432 438.967C206.095 434.378 211.114 418.254 203.49 407.298C198.432 400.028 189.615 396.367 181.544 398.183C172.555 400.206 165.834 407.016 164.491 415.459C163.046 424.552 166.778 433.826 175.315 437.544C181.003 440.022 181.587 443.295 181.228 448.318C180.904 452.858 181.166 457.44 181.144 462.003C181.142 462.795 181.023 463.586 180.939 464.591C174.939 464.591 169.143 464.591 163.347 464.591C158.576 464.591 153.804 464.543 149.035 464.608C145.622 464.656 143.507 466.472 143.443 469.211C143.379 471.924 145.538 473.739 148.947 473.832C149.466 473.847 149.984 473.834 150.503 473.834C192.28 473.834 234.058 473.862 275.835 473.768C278.607 473.763 279.859 474.492 280.95 477.179C285.135 487.496 297.3 493.242 307.836 490.247C319.636 486.892 326.915 476.274 325.207 464.698C323.771 454.96 318.154 448.556 308.947 445.403C306.919 444.708 306.467 443.736 306.494 441.848C306.576 436.146 306.586 430.44 306.502 424.738C306.451 421.388 304.716 419.595 301.938 419.683C299.103 419.774 297.646 421.512 297.627 424.959C297.596 430.559 297.544 436.162 297.651 441.76C297.688 443.752 297.184 444.578 295.15 445.518C291.471 447.219 287.586 449.283 284.959 452.238C281.984 455.583 280.299 460.074 277.87 464.391ZM271.114 273.542C267.152 282.31 263.375 290.678 259.591 299.042C257.502 303.659 255.339 308.243 253.32 312.89C250.31 319.819 251.48 323.802 257.899 328.222C255.916 332.66 253.931 337.171 251.892 341.658C242.69 361.908 233.784 382.306 224.11 402.328C219.99 410.855 218.096 419.378 218.856 428.668C219.007 430.526 218.826 432.408 218.956 434.267C219.175 437.367 220.508 439.744 223.464 441.155C226.588 442.647 229.36 441.972 231.811 439.906C236.407 436.032 240.94 432.078 245.371 428.016C246.543 426.942 247.458 425.451 248.127 423.984C260.392 397.064 272.608 370.122 284.808 343.172C285.535 341.566 286.255 340.694 288.386 340.692C292.804 340.69 295.915 338.28 297.75 334.204C301.655 325.526 305.615 316.871 309.558 308.208C313.492 299.562 317.432 290.918 321.503 281.98C329.391 286.755 336.996 287.768 344.644 280.264C345.49 282.871 346.552 284.99 346.81 287.203C347.204 290.586 347.103 294.032 347.11 297.454C347.142 316.743 347.155 336.034 347.155 355.324C347.151 400.959 347.144 446.592 347.119 492.227C347.114 501.935 342.788 506.328 333.099 506.33C290.564 506.334 248.031 506.267 205.498 506.268C144.596 506.272 83.6938 506.172 22.7938 506.46C10.9111 506.516 6.11511 501.596 6.16444 489.708C6.44044 422.38 6.29645 355.052 6.29778 287.724C6.29778 278.156 11.0324 273.438 20.5924 273.439C57.5284 273.442 94.4631 273.44 131.399 273.442C136.422 273.442 137.182 274.188 137.194 279.156C137.204 283.514 137.174 287.871 137.196 292.228C137.268 305.626 146.519 315.142 159.908 315.568C162.388 315.647 164.872 315.539 167.352 315.579C175.639 315.714 181.17 321.24 181.188 329.495C181.224 345.887 181.2 362.28 181.211 378.672C181.214 382.438 182.776 384.318 185.818 384.284C188.688 384.254 190.284 382.338 190.288 378.762C190.307 362.162 190.371 345.562 190.279 328.963C190.208 316.146 180.384 306.498 167.522 306.39C164.928 306.368 162.334 306.408 159.74 306.382C152.374 306.306 146.703 300.895 146.491 293.528C146.343 288.346 146.408 283.154 146.496 277.967C146.551 274.716 147.871 273.448 151.076 273.45C182.712 273.467 214.348 273.51 245.984 273.54C254.168 273.548 262.352 273.542 271.114 273.542Z" fill="#EC2027"/>
<path d="M97.2763 190.766C97.2763 178.839 97.2723 166.912 97.279 154.986C97.2803 151.254 95.4697 148.794 92.6643 148.766C89.779 148.736 87.9417 151.044 87.9337 154.842C87.8963 175.376 87.4803 195.92 88.027 216.439C88.2843 226.139 80.5857 229.296 73.3617 227.708C68.343 226.604 63.4363 222.482 63.5177 215.544C63.791 192.104 63.635 168.659 63.6457 145.216C63.647 141.702 62.0577 139.648 59.287 139.602C56.4163 139.554 54.7617 141.243 54.7323 144.999C54.595 162.21 54.5923 179.422 54.5297 196.634C54.523 198.394 54.5417 200.164 54.367 201.911C53.8417 207.155 51.0123 210.724 46.771 211.652C41.8817 212.722 36.635 210.32 33.9403 206.066C31.3483 201.975 32.0283 197.46 31.9617 193.06C31.8457 185.298 31.931 177.531 31.923 169.766C31.9097 157.836 31.887 145.907 31.8683 133.978C31.867 133.252 31.891 132.523 31.8363 131.8C31.6297 129.119 30.1417 127.619 27.487 127.446C24.9603 127.279 22.919 129.114 22.831 131.82C22.699 135.86 22.8017 139.908 22.8177 143.954C22.8803 158.992 22.9497 174.032 23.0163 189.072C23.035 193.479 20.6417 196.846 16.4963 198.242C11.847 199.807 5.92699 198.328 3.39499 194.39C2.00699 192.232 0.869652 189.463 0.840318 186.955C0.628318 168.598 0.417658 150.23 0.828325 131.879C1.13499 118.214 1.66566 104.48 3.38033 90.939C5.35499 75.3483 12.859 61.9563 24.6097 51.5857C30.347 46.5217 33.963 42.091 32.7297 33.7097C31.4283 24.859 32.1777 15.707 32.031 6.68698C31.9777 3.36032 33.1337 1.91098 36.6283 1.81898C45.8537 1.57765 55.0843 1.49365 64.3137 1.42299C78.1083 1.31899 91.9043 1.26565 105.699 1.21899C109.728 1.20565 110.207 1.70432 110.254 5.66165C110.363 15.1003 110.518 24.539 110.532 33.9777C110.538 37.1817 111.595 39.207 114.611 40.867C126.647 47.4937 135.615 57.5163 144.023 68.1497C153.488 80.1217 158.412 94.343 164.498 108.036C171.342 123.439 176.382 139.323 179.036 155.946C181.184 169.403 182.303 182.912 179.344 196.411C178.798 198.903 177.98 201.408 176.843 203.684C174.49 208.391 169.631 210.166 164.792 208.406C160.287 206.768 158.468 202.582 159.22 197.324C161.24 183.186 161.795 169.07 156.89 155.298C155.299 150.827 152.92 146.782 149.062 143.939C140.334 137.506 135.524 138.648 128.47 145.896C123.744 150.75 121.732 156.887 121.751 163.727C121.808 184.472 121.771 205.219 121.771 225.966C121.77 234.799 116.956 239.054 108.175 237.858C102.612 237.099 96.7417 233.034 97.0177 225.304C97.4283 213.806 97.1243 202.28 97.1243 190.766C97.175 190.766 97.2257 190.766 97.2763 190.766Z" fill="#EC2027"/>
<path d="M430.34 197.901C431.626 191.245 433.278 184.823 434.04 178.295C435.664 164.371 432.28 151.371 425.608 139.169C420.863 130.489 414.942 122.86 405.95 118.161C404.14 117.216 402.216 116.316 400.24 115.907C397.946 115.431 396.134 116.629 395.504 118.928C394.907 121.112 395.476 123.004 397.668 124.193C418.556 135.517 426.156 154.328 424.996 176.619C423.523 204.944 401.934 227.179 375.602 231.099C371.414 231.723 367.167 232.008 362.936 232.253C361.538 232.335 360.016 232.019 358.7 231.503C354.159 229.723 353.491 228.021 355.454 223.619C357.35 219.369 359.143 215.059 361.354 210.976C361.967 209.841 363.842 208.927 365.243 208.752C383.692 206.455 397.628 190.776 397.166 172.291C396.916 162.321 392.154 154.272 385.178 147.483C375.37 137.939 363.084 133.145 350.151 129.757C347.46 129.052 345.582 130.703 344.51 133.089C340.738 141.493 337.036 149.929 333.284 158.341C327.26 171.848 321.33 185.397 315.122 198.819C312.899 203.627 308.444 205.616 303.328 205.36C298.324 205.111 294.122 202.747 292.634 197.773C291.864 195.201 292.32 192.076 292.859 189.327C296.536 170.563 300.57 151.869 304.108 133.081C306.616 119.769 308.478 106.337 310.727 92.9761C311.98 85.5334 313.419 78.1227 314.812 70.7041C315.504 67.0161 314.358 64.5934 311.576 64.0761C308.496 63.5027 306.44 65.2761 305.798 69.0254C305.187 72.5787 304.551 76.1267 303.847 80.1267C300.231 78.0347 296.946 76.1574 293.683 74.2401C290.38 72.2987 287.107 70.3067 283.808 68.3587C280.304 66.2894 279.811 64.6201 281.938 60.9894C287.694 51.1654 293.498 41.3694 299.311 31.5801C305.022 21.9641 310.736 12.3521 316.515 2.7774C318.49 -0.494602 319.118 -0.569258 322.435 1.38807C330.191 5.96541 337.975 10.4961 345.678 15.1614C347.928 16.5241 349.92 16.6307 351.966 15.0027C360.334 8.33607 369.447 8.90008 378.243 13.3281C387.656 18.0667 396.595 23.7481 405.723 29.0507C420.483 37.6267 435.291 46.1254 449.966 54.8481C469.502 66.4614 486.091 81.2587 497.743 100.996C502.346 108.793 505.927 117.053 504.366 126.619C503.215 133.675 498.478 137.381 491.366 136.492C489.13 130.333 487.466 123.969 484.602 118.203C476.26 101.415 466.196 85.7721 451.779 73.3947C450.223 72.0587 448.435 70.9241 446.603 69.9961C444.163 68.7614 442.082 69.7561 440.752 71.9001C439.498 73.9241 439.91 76.0721 441.868 77.4147C456.356 87.3534 465.28 101.917 473.667 116.663C480.144 128.052 484.434 140.448 483.174 153.984C482.38 162.495 473.911 167.139 467.24 167.393C466.575 167.419 465.315 166.181 465.247 165.445C463.52 146.844 456.312 130.272 446.586 114.632C441.526 106.496 435.812 98.8961 427.951 93.1814C425.107 91.1134 422.495 91.1654 420.724 93.2774C419.1 95.2174 419.246 98.1334 421.356 99.6254C432.05 107.179 438.302 118.135 444.442 129.236C452.318 143.475 456.284 158.76 456.715 174.943C456.884 181.329 456.896 187.875 452.779 193.403C447.768 200.132 437.186 202.048 430.34 197.901Z" fill="#EC2027"/>
<path d="M418.426 486.483C444.095 486.467 465.089 465.679 465.117 440.247C465.146 414.13 444.213 392.765 418.334 393.091C391.729 393.427 371.891 414.473 371.747 439.878C371.602 465.413 392.835 486.499 418.426 486.483ZM356.211 438.641C356.21 431.067 356.475 423.483 356.13 415.927C355.831 409.403 359.566 404.713 362.797 399.934C378.099 377.298 406.834 366.191 433.393 372.329C461.402 378.801 481.861 401.329 485.683 429.907C489.303 456.975 476.277 483.507 452.669 497.149C424.426 513.466 389.671 508.106 367.881 483.621C363.475 478.67 360.426 472.498 356.893 466.802C356.295 465.838 356.247 464.429 356.241 463.225C356.187 455.03 356.213 446.835 356.211 438.641Z" fill="#EC2027"/>
<path d="M331.656 253.508C318.02 247.303 304.687 241.235 291.168 235.083C294.116 228.594 296.913 222.268 299.912 216.039C300.307 215.219 301.744 214.392 302.676 214.418C313.556 214.715 320.701 209.404 324.996 199.783C333.545 180.623 342.096 161.462 350.488 142.232C351.519 139.871 352.507 139.762 354.635 140.527C362.161 143.231 369.405 146.4 375.812 151.322C377.435 152.568 377.381 153.535 376.615 155.207C367.487 175.13 358.427 195.084 349.361 215.035C343.76 227.363 338.179 239.7 332.577 252.028C332.373 252.48 332.052 252.88 331.656 253.508Z" fill="#EC2027"/>
<path d="M483.857 384.803C483.857 379.828 483.952 374.85 483.834 369.878C483.661 362.487 477.326 353.603 467.22 354.166C460.845 354.522 454.369 354.799 448.298 351.896C437.082 346.534 431.338 337.484 430.262 325.3C429.945 321.7 430.32 318.003 429.686 314.475C428.038 305.315 422.496 300.708 413.21 300.266C408.881 300.06 404.43 300.478 400.241 299.615C386.881 296.863 379.538 287.995 376.773 274.998C376.325 272.892 376.105 270.687 376.156 268.536C376.245 264.847 379.144 262.11 382.733 261.99C386.546 261.864 389.5 264.404 389.829 268.28C390.194 272.57 390.977 276.671 393.653 280.222C396.81 284.407 400.984 286.282 406.198 286.518C411.64 286.763 417.134 287.048 422.48 288.014C434.66 290.215 443.673 303.699 443.921 316.699C444.014 321.634 443.393 326.631 445.866 331.298C448.956 337.127 453.541 340.292 460.26 340.354C464.912 340.395 469.678 340.122 474.192 341.014C486.574 343.46 496.256 353.796 497.301 366.608C498.217 377.835 497.896 389.172 497.858 400.46C497.845 404.46 494.482 407.28 490.737 407.196C487.106 407.115 484.104 404.07 484.005 400.043C483.88 394.966 483.974 389.883 483.974 384.803C483.936 384.803 483.896 384.803 483.857 384.803Z" fill="#EC2027"/>
<path d="M300.347 280.472C298.769 278.938 297.729 277.281 296.252 276.649C294.216 275.778 292.051 276.55 290.959 278.634C289.579 281.268 288.076 283.97 287.472 286.822C287.159 288.296 288.256 290.666 289.496 291.677C290.441 292.448 293.509 292.348 294.08 291.538C296.403 288.246 298.127 284.533 300.347 280.472ZM283.093 313.34C283.636 312.956 285.256 312.369 285.92 311.226C287.463 308.572 288.736 305.717 289.745 302.812C290.489 300.67 289.62 298.722 287.467 297.71C285.077 296.588 282.887 297.142 281.576 299.406C280.188 301.804 279.04 304.368 278.051 306.96C276.805 310.221 278.853 313.272 283.093 313.34ZM288.312 331.645C287.315 331.258 286.728 331.062 286.168 330.809C278.447 327.318 270.748 323.773 262.995 320.357C261.037 319.494 260.652 318.55 261.561 316.577C267.487 303.722 273.311 290.821 279.173 277.936C280.671 274.644 282.277 271.397 283.659 268.057C284.475 266.086 285.443 265.641 287.428 266.576C295.283 270.272 303.181 273.878 311.1 277.436C312.777 278.189 312.857 279.114 312.175 280.609C304.695 296.962 297.256 313.334 289.775 329.686C289.435 330.428 288.784 331.025 288.312 331.645Z" fill="#EC2027"/>
<path d="M266.322 331.928C269.91 333.536 273.296 335.046 276.674 336.576C276.946 336.7 277.155 336.959 277.495 337.239C272.736 347.751 268.016 358.198 263.28 368.636C255.807 385.11 248.363 401.596 240.787 418.023C239.871 420.008 238.415 421.856 236.85 423.406C234.292 425.939 231.438 428.174 228.051 431.104C228.43 424.058 227.022 417.794 229.956 411.502C239.658 390.706 249.016 369.751 258.52 348.864C261.076 343.247 263.683 337.652 266.322 331.928Z" fill="#EC2027"/>
<path d="M331.918 276.638C329.657 275.688 326.6 274.485 323.612 273.133C307.88 266.009 292.177 258.824 276.434 251.722C273.624 250.454 271.732 248.605 271.782 245.42C271.854 240.861 276.4 238.442 280.864 240.47C295.645 247.184 310.428 253.892 325.208 260.608C328.682 262.186 332.172 263.736 335.605 265.4C338.085 266.604 339.353 269.549 338.545 272.222C337.709 274.989 335.789 276.505 331.918 276.638Z" fill="#EC2027"/>
<path d="M135.112 239.462C135.116 231.998 135.089 224.536 135.125 217.072C135.145 212.87 137.761 210.049 141.644 209.905C145.576 209.758 148.768 212.668 148.792 216.861C148.877 232.098 148.872 247.337 148.796 262.576C148.776 266.577 145.652 269.51 141.852 269.512C138.037 269.512 135.16 266.598 135.127 262.474C135.064 254.805 135.109 247.133 135.112 239.462Z" fill="#EC2027"/>
<path d="M316.316 467.926C316.202 475.713 309.626 482.037 301.824 481.863C293.956 481.69 287.67 475.143 287.909 467.373C288.146 459.631 294.537 453.309 302.08 453.353C309.934 453.398 316.43 460.049 316.316 467.926Z" fill="#EC2027"/>
<path d="M185.543 406.952C192.329 406.888 197.837 412.24 197.947 419.005C198.055 425.639 192.529 431.359 185.887 431.493C179.183 431.628 173.356 425.949 173.263 419.189C173.173 412.647 178.824 407.015 185.543 406.952Z" fill="#EC2027"/>
<path d="M54.3268 333.119C46.7988 333.195 40.0188 326.472 39.9575 318.871C39.8961 311.181 46.3775 304.687 54.2015 304.599C61.9521 304.511 68.4628 310.948 68.5055 318.736C68.5468 326.448 62.0481 333.04 54.3268 333.119Z" fill="#EC2027"/>
<path d="M109.641 433.365C101.83 433.391 95.4222 427.023 95.3675 419.181C95.3129 411.341 101.82 404.957 109.908 404.917C117.268 404.879 123.921 411.649 123.885 419.134C123.846 426.957 117.458 433.338 109.641 433.365Z" fill="#EC2027"/>
<path d="M455.915 439.757C456.117 460.566 439.331 477.308 418.217 477.354C398.132 477.397 381.468 460.817 380.984 440.793C380.476 419.733 397.243 402.668 417.491 402.322C438.976 401.956 455.707 418.374 455.915 439.757Z" fill="#EC2027"/>
</svg>
