<?xml version="1.0" encoding="utf-8"?>
<!-- Generator: Adobe Illustrator 28.1.0, SVG Export Plug-In . SVG Version: 6.00 Build 0)  -->
<svg version="1.1" id="Layer_1" xmlns="http://www.w3.org/2000/svg" xmlns:xlink="http://www.w3.org/1999/xlink" x="0px" y="0px"
	 viewBox="0 0 235 146.9" style="enable-background:new 0 0 235 146.9;" xml:space="preserve">
<style type="text/css">
	.st0{fill:#EB2127;}
</style>
<g>
	<path class="st0" d="M231.1,146.9c-75.7,0-151.5,0-227.2,0c-0.8-0.5-1.8-0.9-2.5-1.5c-0.6-0.6-1-1.6-1.4-2.4C0,96.6,0,50.3,0,3.9
		C0.5,3,0.9,2.1,1.6,1.3C2.1,0.7,3,0.4,3.7,0c75.8,0,151.7,0,227.5,0c0.4,0.2,0.9,0.4,1.3,0.6c1.3,0.7,1.9,1.9,2.4,3.3
		c0,46.4,0,92.7,0,139.1c-0.4,0.8-0.7,1.7-1.4,2.3C232.9,146,231.9,146.4,231.1,146.9z M9.8,9.8c0,0.5,0,1,0,1.4
		c0,41.6,0,83.2,0,124.8c0,0.1,0,0.3,0,0.4c0,0.4,0.2,0.6,0.6,0.6c0.2,0,0.4,0,0.6,0c70.7,0,141.5,0,212.2,0c0.4,0,0.9,0,1.3,0
		c0.6,0,0.7-0.1,0.7-0.7c0-1.6,0-3.2,0-4.9c0-40,0-80,0-120c0-0.5,0-1.1,0-1.7C153.4,9.8,81.6,9.8,9.8,9.8z"/>
	<path class="st0" d="M63.6,122.4c-11.3,0-22.6,0-33.9,0c-2.4,0-4.3-1.3-5-3.4c-0.2-0.6-0.2-1.2-0.2-1.8c0-4.9,0-9.8,0-14.8
		C24.5,87.6,36.3,74.8,51,73.6c1-0.1,2-0.1,3-0.1c6.5,0,13.1-0.2,19.6,0c12,0.3,20.8,6,26.3,16.7c2.1,4,2.9,8.3,2.9,12.8
		c0,4.7,0,9.5,0,14.2c0,3.1-2.1,5.2-5.2,5.2c0,0-0.1,0-0.1,0C86.2,122.4,74.9,122.4,63.6,122.4z M93,112.5c0-0.2,0-0.3,0-0.4
		c0-3.3,0.1-6.5,0-9.8c-0.3-10.7-9-19.1-19.7-19.1c-6.5,0-12.9,0-19.4,0c-10.9,0-19.6,8.7-19.6,19.6c0,3,0,6,0,9c0,0.2,0,0.5,0,0.7
		C53.9,112.5,73.4,112.5,93,112.5z"/>
	<path class="st0" d="M63.7,19.5c13.1-0.1,24.4,10.9,24.4,24c0.1,13.9-10.7,25-24.5,25c-13.4,0.1-24.4-10.9-24.5-24.4
		C39.1,30.6,50,19.6,63.7,19.5z M49,44c0,8.1,6.6,14.8,14.6,14.7c8.1,0,14.8-6.6,14.7-14.6c0-8.2-6.6-14.7-14.7-14.7
		C55.6,29.4,49,35.9,49,44z"/>
	<path class="st0" d="M161.6,53.8c11.3,0,22.7,0,34,0c3,0,5.2,2.2,5.1,5.1c-0.1,2.6-2.1,4.6-4.8,4.7c-0.3,0-0.6,0-1,0
		c-22.4,0-44.7,0-67.1,0c-2.2,0-3.9-0.8-4.9-2.7c-1.7-3.3,0.7-7.1,4.5-7.1c5.1,0,10.3,0,15.4,0C149.1,53.8,155.3,53.8,161.6,53.8z"
		/>
	<path class="st0" d="M161.5,29.4c11.4,0,22.8,0,34.2,0c2.5,0,4.6,1.8,4.9,4.2c0.3,2.6-1.3,4.9-3.8,5.5c-0.4,0.1-0.7,0.1-1.1,0.1
		c-22.8,0-45.6,0-68.4,0c-2.4,0-4.3-1.5-4.8-3.8c-0.5-2.2,0.5-4.5,2.6-5.4c0.7-0.3,1.6-0.5,2.5-0.5
		C138.9,29.3,150.2,29.4,161.5,29.4z"/>
	<path class="st0" d="M161.5,112.6c-11.3,0-22.7,0-34,0c-3.1,0-5.3-2.3-5.1-5.3c0.1-2.4,2.2-4.4,4.5-4.5c0.2,0,0.3,0,0.5,0
		c22.7,0,45.5,0,68.2,0c2.4,0,4.3,1.5,4.9,3.7c0.6,2.2-0.4,4.5-2.5,5.5c-0.8,0.4-1.8,0.6-2.7,0.6
		C184.1,112.6,172.8,112.6,161.5,112.6z"/>
	<path class="st0" d="M161.6,78.3c11.3,0,22.5,0,33.8,0c4,0,6.2,3.6,4.9,6.7c-0.7,1.8-2.5,3.1-4.5,3.1c-1.1,0-2.3,0-3.4,0
		c-21.6,0-43.3,0-64.9,0c-3.5,0-5.9-3.1-4.9-6.3c0.6-1.9,2.2-3.3,4.2-3.4c0.4,0,0.9,0,1.3,0C139.3,78.3,150.5,78.3,161.6,78.3
		C161.6,78.3,161.6,78.3,161.6,78.3z"/>
</g>
</svg>
