<svg viewBox="0 0 538 440" fill="none" xmlns="http://www.w3.org/2000/svg">
<path d="M283.518 392.007C283.343 391.356 283.295 391.032 283.173 390.74C279.947 383.026 276.666 375.334 273.525 367.586C272.881 366.002 271.817 366.06 270.539 366.06C244.593 366.07 218.646 366.091 192.699 366.018C190.831 366.012 190.09 366.73 189.445 368.304C186.501 375.502 183.446 382.655 180.445 389.83C180.177 390.472 180.015 391.16 179.749 392.007H283.518ZM231.637 406.4C199.247 406.4 166.858 406.4 134.47 406.402C133.633 406.402 132.789 406.343 131.961 406.432C128.234 406.828 125.509 408.715 124.07 412.182C122.617 415.683 123.307 418.943 125.782 421.758C127.93 424.199 130.777 424.842 133.943 424.84C198.973 424.811 264.002 424.818 329.031 424.816C329.785 424.816 330.545 424.859 331.289 424.775C335.222 424.334 338.022 422.312 339.357 418.563C341.569 412.352 336.877 406.404 329.809 406.402C297.085 406.395 264.361 406.399 231.637 406.4ZM449.026 307.364H14.8048C14.8048 313.944 14.3448 320.328 14.8982 326.624C16.1408 340.786 28.3302 351.642 42.5808 351.644C168.641 351.666 294.701 351.666 420.761 351.646C433.668 351.644 445.361 342.694 447.709 330.004C449.06 322.695 448.638 315.059 449.026 307.364ZM14.5768 292.766H448.459C448.53 291.676 448.655 290.636 448.655 289.598C448.669 248.832 448.67 208.067 448.678 167.3C448.679 161.864 452.07 158.298 456.632 158.902C460.046 159.352 462.566 161.958 462.903 165.418C462.975 166.166 462.962 166.923 462.962 167.676C462.965 219.323 462.983 270.971 462.954 322.619C462.942 344.296 449.097 361.147 427.857 365.311C425.005 365.871 422.038 366.034 419.124 366.036C376.768 366.08 334.412 366.066 292.054 366.066C290.982 366.066 289.91 366.066 288.586 366.066C288.868 366.966 289.011 367.6 289.259 368.192C292.331 375.519 295.47 382.82 298.463 390.18C299.077 391.688 299.878 392.154 301.435 392.144C311.062 392.084 320.69 392.026 330.316 392.134C345.242 392.299 355.729 404.303 353.915 419.002C352.622 429.479 343.429 438.186 332.794 438.98C331.543 439.074 330.285 439.1 329.031 439.1C264.073 439.106 199.115 439.086 134.158 439.123C123.933 439.128 116.103 435.078 111.477 425.847C104.031 410.999 114.41 393.028 130.995 392.29C141.189 391.836 151.415 392.126 161.626 392.138C163.087 392.139 164.082 391.958 164.729 390.363C167.811 382.768 171.03 375.23 174.196 367.67C174.35 367.299 174.461 366.911 174.753 366.067H171.383C128.777 366.067 86.1688 366.084 43.5622 366.058C22.5795 366.044 5.53282 352.347 1.18748 331.995C0.650151 329.478 0.376826 326.854 0.375493 324.279C0.33416 230.275 0.32881 136.271 0.350143 42.267C0.354143 20.1364 18.5702 1.3177 40.6742 0.491035C41.8448 0.447035 43.0168 0.425687 44.1888 0.425687C169.081 0.421687 293.973 0.399014 418.865 0.511014C423.644 0.515014 428.485 1.5337 433.181 2.5937C437.698 3.61236 439.897 7.80568 438.597 11.8043C437.334 15.6883 433.457 17.2883 428.978 16.223C425.67 15.435 422.234 14.7657 418.854 14.763C293.712 14.6923 168.567 14.7017 43.4248 14.7084C26.9608 14.7097 14.5782 27.1844 14.5782 43.699C14.5808 125.564 14.5782 207.431 14.5768 289.296V292.766Z" fill="#EC2027"/>
<path d="M382.026 132.379C375.593 140.177 369.137 147.999 362.757 155.733C369.258 162.211 375.505 168.437 381.857 174.765C389.678 168.407 397.554 162.007 405.326 155.689C397.493 147.851 389.886 140.242 382.026 132.379ZM290.487 244.506C291.497 244.559 292.154 244.669 292.798 244.617C301.131 243.945 309.509 243.598 317.783 242.479C329.793 240.858 341.386 237.605 351.845 231.198C367.414 221.662 374.723 207.765 373.419 189.503C373.323 188.155 372.563 186.591 371.614 185.611C364.678 178.465 357.651 171.406 350.554 164.418C349.553 163.433 348.094 162.639 346.721 162.347C337.369 160.35 328.883 162.377 321.639 168.627C310.915 177.881 305.058 189.91 302.722 203.681C300.631 216.014 297.798 228.103 292.678 239.573C291.975 241.145 291.279 242.721 290.487 244.506ZM417.065 146.057C417.266 145.915 417.617 145.699 417.935 145.441C449.433 119.851 480.997 94.3432 512.377 68.6125C521.334 61.2672 525.09 51.3952 522.895 39.9192C520.493 27.3432 512.805 19.0779 500.338 16.0019C488.047 12.9712 477.602 16.8285 469.581 26.4685C446.355 54.3859 423.29 82.4365 400.163 110.435C397.297 113.906 394.437 117.381 391.727 120.666C400.207 129.163 408.525 137.498 417.065 146.057ZM290.543 258.705C286.361 258.705 282.171 258.846 277.997 258.671C272.281 258.433 269.105 252.665 272.149 247.797C281.181 233.35 285.95 217.509 288.742 200.819C291.679 183.255 299.543 168.146 313.598 156.791C323.355 148.906 334.642 146.074 347.026 148.113C349.426 148.507 350.763 147.837 352.261 146.018C387.598 103.13 422.999 60.2979 458.391 17.4552C478.59 -6.99545 515.761 -4.20878 531.797 22.9592C542.913 41.7886 538.31 66.0632 520.919 80.2019C477.347 115.627 433.779 151.057 390.155 186.417C388.307 187.915 387.813 189.371 387.845 191.679C388.214 216.977 376.273 234.827 354.222 246.317C341.427 252.985 327.555 256.059 313.331 257.57C305.77 258.373 298.154 258.673 290.562 259.199C290.555 259.035 290.55 258.87 290.543 258.705Z" fill="#EC2027"/>
<path d="M132.842 58.4669H55.7057V115.97H132.842V58.4669ZM94.4557 43.9656C109.097 43.9656 123.74 43.9589 138.381 43.9683C144.809 43.9709 147.401 46.5415 147.402 52.9215C147.41 75.7629 147.409 98.6042 147.405 121.447C147.404 127.7 144.787 130.356 138.585 130.359C108.965 130.367 79.3452 130.368 49.7265 130.358C43.8439 130.355 41.0859 127.599 41.0846 121.774C41.0793 98.6816 41.0779 75.5883 41.0846 52.4963C41.0846 46.7923 43.8327 43.9856 49.526 43.9749C64.502 43.9483 79.4784 43.9656 94.4557 43.9656Z" fill="#EC2027"/>
<path d="M257.034 58.4545H179.802V115.972H257.034V58.4545ZM218.337 130.362C203.613 130.362 188.888 130.368 174.164 130.358C167.844 130.354 165.307 127.818 165.309 121.557C165.313 98.4665 165.31 75.3745 165.326 52.2838C165.328 46.6718 167.999 43.9771 173.637 43.9731C203.505 43.9558 233.373 43.9531 263.241 43.9731C268.816 43.9771 271.499 46.7438 271.501 52.3838C271.511 75.5584 271.509 98.7332 271.501 121.908C271.499 127.612 268.758 130.352 263.013 130.358C248.121 130.374 233.229 130.364 218.337 130.362Z" fill="#EC2027"/>
<path d="M94.2533 165.739C79.1146 165.739 63.9746 165.761 48.8359 165.727C43.2733 165.715 39.7599 161.015 41.6359 156.129C42.6413 153.51 44.5679 151.897 47.4359 151.606C48.3466 151.514 49.2733 151.531 50.1919 151.531C79.6333 151.527 109.075 151.521 138.516 151.55C140 151.553 141.573 151.623 142.948 152.109C145.951 153.17 147.773 156.531 147.267 159.541C146.661 163.147 144.028 165.599 140.423 165.71C137.164 165.81 133.899 165.739 130.636 165.739C118.508 165.741 106.381 165.741 94.2533 165.739Z" fill="#EC2027"/>
<path d="M218.582 151.529C233.636 151.529 248.689 151.504 263.742 151.543C269.338 151.557 272.82 156.191 271.02 161.079C269.95 163.984 267.412 165.716 263.986 165.729C255.957 165.761 247.929 165.74 239.901 165.74C217.656 165.741 195.409 165.748 173.165 165.735C168.277 165.732 164.942 162.391 165.348 157.991C165.708 154.103 168.621 151.557 172.92 151.541C182.705 151.504 192.49 151.529 202.274 151.529C207.71 151.528 213.146 151.529 218.582 151.529Z" fill="#EC2027"/>
<path d="M204.596 197.862C193.978 197.863 183.36 197.871 172.742 197.859C169.716 197.855 167.399 196.537 166.05 193.818C164.844 191.385 165.055 188.923 166.572 186.674C167.983 184.585 170.039 183.607 172.562 183.607C193.963 183.609 215.367 183.591 236.771 183.627C241.008 183.634 244.03 186.631 244.064 190.613C244.098 194.694 241.015 197.821 236.702 197.842C226 197.898 215.298 197.861 204.596 197.862Z" fill="#EC2027"/>
<path d="M80.5166 197.861C69.8966 197.863 59.2753 197.871 48.6553 197.857C45.7526 197.853 43.4726 196.664 42.05 194.076C40.6766 191.572 40.8366 189.076 42.398 186.723C43.794 184.62 45.8326 183.615 48.3593 183.615C69.85 183.615 91.3406 183.588 112.831 183.639C117.022 183.649 119.991 186.795 119.939 190.812C119.887 194.769 116.83 197.817 112.627 197.84C101.925 197.9 91.2193 197.86 80.5166 197.861Z" fill="#EC2027"/>
<path d="M231.613 337.562C227.172 337.562 223.449 333.87 223.453 329.467C223.457 324.978 227.037 321.338 231.512 321.272C236.077 321.207 239.844 324.947 239.785 329.49C239.728 333.96 236.084 337.562 231.613 337.562Z" fill="#EC2027"/>
</svg>
