<svg viewBox="0 0 101 100" fill="none" xmlns="http://www.w3.org/2000/svg">
<g clip-path="url(#clip0_2250_2956)">
<path d="M78.5988 0H21.4559C9.62124 0 0.0273438 9.5939 0.0273438 21.4286V78.5714C0.0273438 90.4061 9.62124 100 21.4559 100H78.5988C90.4334 100 100.027 90.4061 100.027 78.5714V21.4286C100.027 9.5939 90.4334 0 78.5988 0Z" fill="url(#paint0_radial_2250_2956)"/>
<path d="M78.5988 0H21.4559C9.62124 0 0.0273438 9.5939 0.0273438 21.4286V78.5714C0.0273438 90.4061 9.62124 100 21.4559 100H78.5988C90.4334 100 100.027 90.4061 100.027 78.5714V21.4286C100.027 9.5939 90.4334 0 78.5988 0Z" fill="url(#paint1_radial_2250_2956)"/>
<path d="M78.5988 0H21.4559C9.62124 0 0.0273438 9.5939 0.0273438 21.4286V78.5714C0.0273438 90.4061 9.62124 100 21.4559 100H78.5988C90.4334 100 100.027 90.4061 100.027 78.5714V21.4286C100.027 9.5939 90.4334 0 78.5988 0Z" fill="url(#paint2_radial_2250_2956)"/>
<path d="M67.0273 36C67.0273 38.2091 65.4603 40 63.5273 40C61.5944 40 60.0273 38.2091 60.0273 36C60.0273 33.7909 61.5944 32 63.5273 32C65.4603 32 67.0273 33.7909 67.0273 36Z" fill="white"/>
<path fill-rule="evenodd" clip-rule="evenodd" d="M49.5273 63C56.4308 63 62.0273 57.1796 62.0273 50C62.0273 42.8204 56.4308 37 49.5273 37C42.6238 37 37.0273 42.8204 37.0273 50C37.0273 57.1796 42.6238 63 49.5273 63ZM49.5273 57.8C53.6696 57.8 57.0273 54.3079 57.0273 50C57.0273 45.6921 53.6696 42.2 49.5273 42.2C45.3851 42.2 42.0273 45.6921 42.0273 50C42.0273 54.3079 45.3851 57.8 49.5273 57.8Z" fill="white"/>
<path fill-rule="evenodd" clip-rule="evenodd" d="M25.0273 49C25.0273 40.5993 25.0273 36.3988 26.6622 33.1902C28.1003 30.3677 30.395 28.073 33.2175 26.6349C36.4261 25 40.6266 25 49.0273 25H51.0273C59.4281 25 63.6286 25 66.8371 26.6349C69.6596 28.073 71.9543 30.3677 73.3923 33.1902C75.0273 36.3988 75.0273 40.5993 75.0273 49V51C75.0273 59.4007 75.0273 63.6012 73.3923 66.8097C71.9543 69.6322 69.6596 71.927 66.8371 73.365C63.6286 75 59.4281 75 51.0273 75H49.0273C40.6266 75 36.4261 75 33.2175 73.365C30.395 71.927 28.1003 69.6322 26.6622 66.8097C25.0273 63.6012 25.0273 59.4007 25.0273 51V49ZM49.0273 30H51.0273C55.3103 30 58.2216 30.0039 60.4721 30.1877C62.6643 30.3668 63.7853 30.6915 64.5673 31.0899C66.4488 32.0487 67.9786 33.5785 68.9373 35.46C69.3358 36.242 69.6606 37.363 69.8396 39.5552C70.0233 41.8057 70.0273 44.717 70.0273 49V51C70.0273 55.283 70.0233 58.1943 69.8396 60.4448C69.6606 62.637 69.3358 63.758 68.9373 64.54C67.9786 66.4215 66.4488 67.9512 64.5673 68.91C63.7853 69.3085 62.6643 69.6333 60.4721 69.8123C58.2216 69.996 55.3103 70 51.0273 70H49.0273C44.7443 70 41.8331 69.996 39.5826 69.8123C37.3903 69.6333 36.2693 69.3085 35.4873 68.91C33.6058 67.9512 32.076 66.4215 31.1173 64.54C30.7188 63.758 30.3942 62.637 30.2151 60.4448C30.0312 58.1943 30.0273 55.283 30.0273 51V49C30.0273 44.717 30.0312 41.8057 30.2151 39.5552C30.3942 37.363 30.7188 36.242 31.1173 35.46C32.076 33.5785 33.6058 32.0487 35.4873 31.0899C36.2693 30.6915 37.3903 30.3668 39.5826 30.1877C41.8331 30.0039 44.7443 30 49.0273 30Z" fill="white"/>
</g>
<defs>
<radialGradient id="paint0_radial_2250_2956" cx="0" cy="0" r="1" gradientUnits="userSpaceOnUse" gradientTransform="translate(35.7416 75) rotate(-55.3758) scale(91.1414)">
<stop stop-color="#B13589"/>
<stop offset="0.79309" stop-color="#C62F94"/>
<stop offset="1" stop-color="#8A3AC8"/>
</radialGradient>
<radialGradient id="paint1_radial_2250_2956" cx="0" cy="0" r="1" gradientUnits="userSpaceOnUse" gradientTransform="translate(32.1702 103.571) rotate(-65.1363) scale(80.6936)">
<stop stop-color="#E0E8B7"/>
<stop offset="0.444662" stop-color="#FB8A2E"/>
<stop offset="0.71474" stop-color="#E2425C"/>
<stop offset="1" stop-color="#E2425C" stop-opacity="0"/>
</radialGradient>
<radialGradient id="paint2_radial_2250_2956" cx="0" cy="0" r="1" gradientUnits="userSpaceOnUse" gradientTransform="translate(-5.3298 3.57143) rotate(-8.1301) scale(138.896 29.7084)">
<stop offset="0.156701" stop-color="#406ADC"/>
<stop offset="0.467799" stop-color="#6A45BE"/>
<stop offset="1" stop-color="#6A45BE" stop-opacity="0"/>
</radialGradient>
<clipPath id="clip0_2250_2956">
<rect x="0.0273438" width="100" height="100" rx="50" fill="white"/>
</clipPath>
</defs>
</svg>
