<svg viewBox="0 0 496 496" fill="none" xmlns="http://www.w3.org/2000/svg">
<path d="M142.127 161.108C147.145 162.103 151.699 163.332 156.331 163.815C159.782 164.175 163.021 162.955 163.498 158.762C164.161 152.956 162.583 147.611 160.086 142.255C150.922 145.63 144.807 151.1 142.127 161.108ZM143.143 176.035C146.882 187.264 157.842 194.012 169.721 192.744C182.469 191.384 191.467 182.114 192.822 168.946C193.927 158.22 186.677 147.019 176.051 143.463C177.681 153.483 180.289 163.804 172.115 172.022C163.925 180.259 153.739 178.419 143.143 176.035ZM120.134 83.3683C119.941 82.9203 119.858 82.4137 119.567 82.099C99.1125 59.915 77.0352 39.5883 50.3712 25.063C42.3952 20.719 33.4392 17.8003 24.5979 15.5377C17.0792 13.6123 13.7232 17.0497 15.2099 24.7403C16.5072 31.451 18.6659 38.2123 21.6926 44.335C35.2632 71.7843 55.2672 94.3243 77.1392 115.354C78.9899 117.134 80.9685 118.784 83.0885 120.672C88.0765 95.4204 95.3512 88.155 120.134 83.3683ZM154.926 128.716C147.833 118.591 141.089 108.875 134.195 99.2657C133.569 98.3937 131.989 97.7924 130.843 97.7817C126.391 97.743 121.897 97.6617 117.491 98.203C106.105 99.599 98.4699 107.996 98.0139 119.546C96.4112 160.116 95.1205 200.702 93.1979 241.258C92.7072 251.612 95.6152 259.199 103.122 266.65C172.121 335.135 240.723 404.019 309.595 472.634C312.843 475.871 317.249 478.594 321.613 479.938C332.278 483.222 340.599 478.551 348.121 470.988C389.322 429.563 430.678 388.29 472.019 347.003C484.218 334.82 484.225 321.098 471.937 308.895C459.991 297.031 448.091 285.124 436.183 273.223C378.638 215.698 321.053 158.211 263.629 100.564C258.415 95.3323 252.805 93.163 245.542 93.471C222.126 94.4644 198.695 95.1097 175.273 95.9457C167.285 96.231 159.305 96.6857 150.833 97.087C155.349 104.11 160.109 110.294 163.513 117.15C166.879 123.934 171.221 127.442 178.866 129.379C197.061 133.991 208.861 152.447 206.942 170.904C204.869 190.879 189.626 205.583 169.363 207.158C151.091 208.576 133.739 196.287 128.674 178.338C123.399 159.644 131.933 140.003 149.027 131.508C150.626 130.714 152.257 129.978 154.926 128.716ZM80.9006 196.715C81.5859 178.574 82.3565 160.435 82.8205 142.29C82.8645 140.571 81.3765 138.363 79.9539 137.124C59.4539 119.288 40.8059 99.7364 25.0859 77.5404C15.0539 63.3764 5.91121 48.675 1.87654 31.4497C1.65254 30.487 1.40055 29.5243 1.26722 28.5483C-1.56478 7.70833 11.0019 -3.03302 32.1219 2.28298C49.5659 6.67498 64.5099 16.0457 78.8779 26.3897C100.41 41.891 119.478 60.0763 136.889 80.0657C138.266 81.647 140.994 82.9683 143.049 82.9057C175.71 81.9083 208.383 81.0483 241.009 79.3003C255.058 78.5483 265.929 82.5376 275.961 92.6443C344.562 161.754 413.535 230.495 482.401 299.342C499.434 316.371 499.907 338.942 482.969 355.987C441.794 397.419 400.303 438.539 359.179 480.022C349.779 489.503 339.59 495.956 325.723 495.199C316.206 494.679 307.99 491.192 301.349 484.564C240.386 423.72 179.514 362.787 118.606 301.887C108.806 292.088 99.0219 282.27 89.1259 272.567C82.3952 265.971 78.8525 258.131 79.1432 248.674C79.6739 231.352 80.2579 214.032 80.8192 196.711L80.9006 196.715Z" fill="#EC2027"/>
<path d="M429.739 305.344C428.289 307.384 427.155 309.564 425.497 311.226C400.807 336.016 376.048 360.74 351.3 385.473C337.761 399.005 324.284 412.602 310.575 425.958C308.78 427.706 305.665 429.265 303.328 429.057C297.691 428.556 295.556 422.496 299.388 417.941C303.52 413.032 308.207 408.58 312.752 404.03C346.927 369.825 381.121 335.64 415.321 301.46C419.677 297.106 424.348 296.5 427.256 300.057C428.332 301.374 428.768 303.213 429.739 305.344Z" fill="#EC2027"/>
<path d="M310.661 193.446C313.948 196.774 317.053 199.918 320.741 203.651C310.421 213.81 300.173 223.788 290.045 233.888C262.26 261.596 234.532 289.36 206.761 317.082C205.133 318.706 203.446 320.316 201.578 321.64C198.869 323.563 195.482 323.966 193.657 321.111C192.206 318.843 191.941 315.507 192.052 312.68C192.109 311.248 194.054 309.788 195.322 308.518C232.606 271.195 269.912 233.894 307.221 196.596C308.252 195.564 309.372 194.62 310.661 193.446Z" fill="#EC2027"/>
<path d="M358.075 235.226C357.161 236.482 355.757 239.047 353.773 241.038C323.178 271.75 292.507 302.387 261.854 333.042C254.862 340.035 247.891 347.053 240.855 354.001C239.463 355.374 237.866 357.411 236.267 357.506C233.611 357.662 230.499 357.101 228.277 355.721C225.603 354.059 225.561 350.971 227.403 348.287C228.514 346.67 229.759 345.107 231.145 343.721C268.883 305.926 306.649 268.154 344.425 230.394C345.463 229.355 346.563 228.282 347.835 227.589C352.537 225.029 357.939 228.265 358.075 235.226Z" fill="#EC2027"/>
<path d="M381.115 263.72C384.91 267.926 387.856 271.193 391.316 275.03C379.754 286.448 367.88 298.07 356.115 309.802C329.959 335.888 303.858 362.028 277.723 388.136C276.443 389.414 275.127 390.669 273.724 391.808C270.544 394.389 267.28 395.173 264.091 391.812C261.148 388.712 261.074 385.094 264.291 381.665C268.916 376.738 273.783 372.038 278.564 367.257C311.56 334.258 344.566 301.268 377.542 268.249C378.702 267.086 379.596 265.661 381.115 263.72Z" fill="#EC2027"/>
</svg>
