<svg viewBox="0 0 477 476" fill="none" xmlns="http://www.w3.org/2000/svg">
<path d="M424.6 59.4404C424.6 47.9751 424.597 37.0044 424.6 26.0338C424.604 17.0791 422.481 14.9871 413.352 14.9871C296.972 14.9858 180.591 14.9871 64.2106 14.9871C63.436 14.9871 62.6626 14.9751 61.8893 14.9897C55.8733 15.1111 53.0853 17.8138 53.0386 23.7978C52.9733 32.3084 53.0213 40.8217 53.02 49.3324V59.4404H424.6ZM424.388 356.918V74.6724H53.3773V356.663H167.6C169.424 361.838 171.091 366.567 172.892 371.675C171.488 371.675 170.145 371.675 168.803 371.675C128.552 371.675 88.3026 371.678 48.0519 371.672C41.3799 371.672 38.5639 368.966 38.2199 362.244C38.1559 361.01 38.1959 359.768 38.1959 358.53C38.1959 246.295 38.1946 134.059 38.1959 21.8231C38.1959 9.84707 47.3479 0.49776 59.3919 0.16576C60.0106 0.148427 60.6306 0.159087 61.2493 0.159087C179.523 0.159087 297.796 0.17241 416.069 0.123076C422.22 0.12041 427.659 1.81506 432.331 5.71906C436.917 9.55373 439.5 14.2698 439.495 20.5791C439.412 133.588 439.436 246.598 439.421 359.607C439.421 361.303 439.452 363.043 439.101 364.684C438.012 369.792 435.627 371.666 430.376 371.668C399.104 371.682 367.833 371.675 336.563 371.675H304.74C306.467 366.772 308.116 362.091 309.939 356.918H424.388Z" fill="#EC2027"/>
<path d="M190.71 460.56H286.76V446.228H190.71V460.56ZM454.336 98.1709C466.276 100.336 476.123 112.163 476.57 124.662C476.619 126.052 476.587 127.447 476.587 128.84C476.588 223.894 476.588 318.946 476.587 413.999C476.587 433.764 464.295 445.984 444.416 445.986C398.903 445.987 353.388 445.987 307.875 445.987H302.195V460.883C303.643 460.883 305.115 460.883 306.587 460.883C316.96 460.883 327.332 460.863 337.704 460.892C343.31 460.91 346.471 463.554 346.537 468.163C346.602 472.836 343.442 475.696 337.968 475.698C271.864 475.716 205.762 475.715 139.658 475.7C134.209 475.699 131.003 472.811 131.093 468.176C131.181 463.554 134.335 460.907 139.919 460.894C151.652 460.864 163.387 460.884 175.394 460.884V445.986H169.764C123.787 445.986 77.8085 445.99 31.8298 445.983C13.9231 445.98 1.04565 433.211 1.04432 415.404C1.03232 319.267 1.12307 223.131 0.929736 126.995C0.905736 115.187 9.80567 100.212 23.2937 98.2402C23.2937 102.595 23.4445 106.923 23.2032 111.23C23.1312 112.54 22.2685 114.106 21.2738 115.015C17.4738 118.491 15.8444 122.692 15.8458 127.795C15.8778 223.467 15.859 319.139 15.8777 414.811C15.8803 425.16 21.9483 431.148 32.391 431.15C170.016 431.163 307.642 431.164 445.266 431.15C455.676 431.148 461.747 425.118 461.748 414.783C461.766 319.266 461.747 223.748 461.795 128.231C461.799 122.768 460.073 118.315 455.979 114.658C455.101 113.872 454.461 112.384 454.41 111.19C454.225 106.87 454.336 102.538 454.336 98.1709Z" fill="#EC2027"/>
<path d="M223.753 104.485H83.1141V193.115H223.753V104.485ZM153.141 208.192C130.235 208.192 107.33 208.199 84.425 208.189C73.7143 208.184 67.9263 202.331 67.9237 191.504C67.917 162.872 67.9143 134.24 67.9263 105.608C67.9316 95.2107 73.8756 89.336 84.3849 89.3347C130.35 89.328 176.317 89.3281 222.282 89.3361C232.966 89.3387 238.791 95.2387 238.793 106.039C238.801 134.516 238.801 162.993 238.793 191.471C238.791 202.508 233.042 208.185 221.858 208.189C198.952 208.199 176.046 208.192 153.141 208.192Z" fill="#EC2027"/>
<path d="M227.444 267.864V354.624H198.118C212.039 370.61 225.26 385.793 238.82 401.364C252.447 385.714 265.644 370.558 279.767 354.34H249.928V267.864H227.444ZM264.806 339.544C269.403 339.544 273.535 339.578 277.667 339.536C284.555 339.465 290.198 341.764 293.188 348.321C296.17 354.853 294.258 360.561 289.691 365.765C276.948 380.292 264.363 394.958 251.58 409.449C243.278 418.86 234.29 418.805 226.032 409.405C213.179 394.772 200.443 380.036 187.622 365.374C183.155 360.266 181.566 354.61 184.49 348.282C187.42 341.94 192.867 339.556 199.574 339.541C203.743 339.532 207.912 339.54 212.824 339.54V334.432C212.824 312.932 212.823 291.432 212.827 269.932C212.828 258.481 218.515 252.782 229.823 252.838C236.163 252.87 242.503 252.822 248.843 252.856C258.947 252.912 264.795 258.858 264.802 269.09C264.815 290.745 264.806 312.398 264.806 334.053V339.544Z" fill="#EC2027"/>
<path d="M339.334 96.7649C359.918 96.7649 380.501 96.7995 401.085 96.7315C404.683 96.7195 407.874 97.7355 408.885 101.206C409.529 103.42 409.253 106.604 408.029 108.448C406.914 110.128 403.965 111.449 401.819 111.458C360.033 111.63 318.246 111.604 276.459 111.564C271.631 111.56 268.659 108.672 268.565 104.313C268.466 99.8155 271.567 96.7995 276.654 96.7862C297.547 96.7355 318.441 96.7649 339.334 96.7649Z" fill="#EC2027"/>
<path d="M338.886 141.312C318.147 141.312 297.408 141.34 276.671 141.292C271.579 141.28 268.519 138.323 268.567 133.782C268.612 129.49 271.648 126.679 276.448 126.491C276.758 126.479 277.067 126.488 277.378 126.488C318.544 126.488 359.712 126.482 400.879 126.498C406.386 126.499 409.672 129.275 409.704 133.796C409.738 138.618 406.551 141.299 400.636 141.306C380.054 141.324 359.47 141.312 338.886 141.312Z" fill="#EC2027"/>
<path d="M338.665 171.037C318.546 171.037 298.426 171.043 278.306 171.036C271.814 171.033 268.666 168.667 268.565 163.751C268.462 158.831 271.73 156.216 278.057 156.216C318.916 156.209 359.773 156.236 400.632 156.175C404.361 156.169 407.773 156.963 408.889 160.665C409.552 162.861 409.381 166.368 408.021 167.847C406.33 169.685 403.034 170.875 400.414 170.904C379.833 171.143 359.249 171.037 338.665 171.037Z" fill="#EC2027"/>
<path d="M338.878 200.76C318.139 200.76 297.4 200.788 276.662 200.74C271.57 200.728 268.515 197.767 268.567 193.22C268.618 188.928 271.654 186.126 276.458 185.939C276.767 185.927 277.076 185.936 277.386 185.936C318.554 185.936 359.722 185.93 400.888 185.946C406.39 185.947 409.678 188.731 409.704 193.252C409.732 198.072 406.548 200.747 400.628 200.754C380.044 200.772 359.462 200.76 338.878 200.76Z" fill="#EC2027"/>
<path d="M350.561 29.8983C353.035 29.8943 355.518 29.769 357.983 29.921C362.319 30.189 365.206 33.3303 365.115 37.465C365.029 41.4343 362.251 44.4916 358.113 44.6423C352.861 44.8356 347.59 44.8463 342.338 44.6436C338.251 44.485 335.498 41.3503 335.446 37.3636C335.394 33.4276 338.151 30.257 342.211 29.9436C344.978 29.7303 347.777 29.9023 350.561 29.8983Z" fill="#EC2027"/>
<path d="M394.704 44.6942C392.076 44.6942 389.426 44.9062 386.824 44.6449C382.754 44.2382 380.444 41.7222 380.072 37.7062C379.705 33.7529 382.461 30.2289 386.468 30.0049C392.016 29.6942 397.604 29.7062 403.156 29.9796C407.148 30.1756 409.952 33.6596 409.674 37.5809C409.386 41.6449 407.14 44.2062 403.046 44.6249C400.293 44.9076 397.486 44.6782 394.704 44.6782V44.6942Z" fill="#EC2027"/>
</svg>
