<?xml version="1.0" encoding="utf-8"?>
<!-- Generator: Adobe Illustrator 28.1.0, SVG Export Plug-In . SVG Version: 6.00 Build 0)  -->
<svg version="1.1" id="Layer_1" xmlns="http://www.w3.org/2000/svg" xmlns:xlink="http://www.w3.org/1999/xlink" x="0px" y="0px"
	 viewBox="0 0 350.5 304.6" style="enable-background:new 0 0 350.5 304.6;" xml:space="preserve">
<style type="text/css">
	.st0{fill:#EB2127;}
</style>
<g>
	<path class="st0" d="M0.1,176.2c0-41,0-82.1-0.1-123.1c0-2.8,1-4.3,3.5-5.4c37.3-15.6,74.5-31.3,111.8-47c1.9-0.8,3.7-0.8,5.6,0
		c36.7,15.4,73.3,30.9,110,46.2c1,0.4,2.4,0.4,3.4-0.1c36.5-15.3,73-30.7,109.6-46c4.6-1.9,6.6-0.6,6.6,4.3
		c0,82.1,0,164.2,0.1,246.2c0,3-1,4.6-3.7,5.7c-37.2,15.6-74.4,31.3-111.6,46.8c-1.5,0.6-3.8,0.6-5.3,0
		c-36.4-15.2-72.8-30.5-109.1-45.8c-1.9-0.8-3.4-0.8-5.2,0c-36.3,15.3-72.7,30.6-109.1,46c-4.1,1.7-6.5-0.4-6.5-4.2
		C0.1,258.6,0.1,217.4,0.1,176.2z M236.1,295.5c1-0.4,1.7-0.6,2.3-0.9c34.3-14.4,68.5-28.8,102.8-43.2c1.9-0.8,1.9-1.9,1.9-3.6
		c0-78.7,0-157.3,0-236c0-0.9,0-1.7,0-2.8c-0.8,0.3-1.4,0.4-1.9,0.7c-34.5,14.5-69,29.1-103.5,43.5c-1.7,0.7-1.7,1.8-1.7,3.2
		c0,35,0,70.1,0,105.1c0,43.7,0,87.4,0,131.1C236.1,293.5,236.1,294.3,236.1,295.5z M7.3,295.5c1-0.4,1.7-0.6,2.3-0.9
		c34.2-14.4,68.4-28.7,102.6-43c1.7-0.7,2.2-1.6,2.2-3.4c-0.1-78.7,0-157.5,0-236.2c0-0.9,0-1.7,0-2.8c-1,0.4-1.7,0.6-2.3,0.9
		C78.2,24.3,44.3,38.5,10.4,52.7c-2.4,1-3.1,2.2-3.1,4.7C7.4,135.6,7.3,213.8,7.3,292C7.3,293,7.3,294.1,7.3,295.5z M228.8,295.6
		c0-1,0-1.4,0-1.9c0-79.2,0-158.5,0-237.7c0-1.4-0.4-2.2-1.7-2.7c-34.6-14.5-69.2-29-103.7-43.6c-0.5-0.2-1-0.3-1.7-0.4
		c0,0.8,0,1.4,0,1.9c0,79.1,0,158.1,0,237.2c0,1.6,0.5,2.4,2,3.1c28.3,11.9,56.6,23.8,85,35.7C215.2,289.9,221.9,292.7,228.8,295.6z
		"/>
	<path class="st0" d="M252.2,171.9c-0.9-0.9-2.3-1.7-2.8-2.9c-0.7-1.9,0.1-3.6,2.1-4.5c4.9-2.1,9.8-4.1,14.7-6.2
		c19.1-8.1,38.3-16.2,57.4-24.3c0.5-0.2,1-0.4,1.6-0.6c2.1-0.6,4,0.2,4.7,1.9c0.8,1.9,0,3.9-2,4.8c-4,1.8-8,3.5-12,5.2
		c-19.9,8.4-39.8,16.8-59.7,25.1C255.1,170.9,254,171.3,252.2,171.9z"/>
	<path class="st0" d="M330.2,219.6c0.1,1.9-1.2,2.9-3,3.7c-11.9,5-23.8,10-35.7,15c-11.8,5-23.7,9.9-35.5,14.9
		c-0.2,0.1-0.4,0.2-0.7,0.3c-2.8,1.1-5,0.6-5.8-1.5c-0.9-2.2,0.1-4.1,2.9-5.2c7.4-3.1,14.7-6.2,22.1-9.3
		c16.3-6.8,32.6-13.7,48.9-20.5c0.9-0.4,1.8-0.8,2.7-0.9C328.4,215.6,330.1,217.1,330.2,219.6z"/>
	<path class="st0" d="M252.1,213.3c-0.9-0.9-2.2-1.8-2.7-3c-0.7-1.8,0.1-3.5,2.1-4.3c5-2.1,10-4.2,14.9-6.4
		c19.2-8.1,38.4-16.2,57.6-24.3c3.1-1.3,5.4-0.6,6,1.8c0.6,2.2-0.2,3.7-2.7,4.7c-10.3,4.4-20.7,8.7-31.1,13.1
		c-13.5,5.7-26.9,11.4-40.4,17.1C254.9,212.4,253.8,212.7,252.1,213.3z"/>
	<path class="st0" d="M253.3,130.1c-2.3,0-3.7-0.8-4-2.6c-0.4-1.9,0.2-3.5,2.2-4.3c7.2-3,14.4-6.1,21.6-9.1
		c17-7.2,34.1-14.4,51.2-21.4c1.3-0.5,3.4-0.3,4.7,0.4c0.8,0.4,1.3,2.6,0.9,3.6c-0.4,1.1-1.8,2.2-3,2.7c-9.7,4.2-19.5,8.3-29.2,12.4
		c-14,5.9-28,11.8-42,17.7C254.7,129.7,253.8,129.9,253.3,130.1z"/>
	<path class="st0" d="M252.2,89.1c-0.9-0.9-2.3-1.7-2.8-2.9c-0.7-1.8,0-3.5,2-4.4c3.4-1.5,6.8-2.9,10.3-4.4
		c20.3-8.5,40.7-17.1,61-25.6c0.8-0.3,1.6-0.7,2.5-1c2.2-0.7,4.2,0.1,4.9,1.9c0.7,2.1-0.1,4-2.3,4.9c-5.4,2.3-10.9,4.6-16.3,6.9
		c-18.5,7.8-37.1,15.6-55.6,23.3C254.8,88.2,253.8,88.5,252.2,89.1z"/>
	<path class="st0" d="M101.6,177.7c-0.1,2.5-1.4,3.5-3.2,4.3c-9.2,3.8-18.4,7.7-27.5,11.5C56,199.7,41.1,206,26.2,212.3
		c-2.6,1.1-4.7,0.4-5.5-1.6c-0.8-2,0.1-3.8,2.6-5c0.2-0.1,0.4-0.2,0.7-0.3c14.1-6,28.3-12,42.4-18c9.8-4.1,19.5-8.2,29.3-12.3
		C98.8,173.8,101.6,175.2,101.6,177.7z"/>
	<path class="st0" d="M24.4,88.8c-2.2-0.2-3.5-1-3.8-2.9c-0.3-1.9,0.3-3.3,2.2-4.1c6.4-2.7,12.8-5.4,19.2-8.1
		c17.7-7.4,35.3-14.8,53-22.2c0.5-0.2,1-0.5,1.6-0.7c2.2-0.7,4.1,0.1,4.9,2c0.7,1.9,0,3.8-2.2,4.7c-4.8,2.1-9.7,4.1-14.5,6.2
		c-19.1,8-38.3,16.1-57.4,24.1C26.2,88.2,25.1,88.5,24.4,88.8z"/>
	<path class="st0" d="M101.6,95.5c-0.1,2.1-1.5,3.1-3.2,3.8c-11,4.6-22.1,9.2-33.1,13.9c-12.7,5.4-25.5,10.7-38.2,16.1
		c-0.3,0.1-0.6,0.3-0.9,0.4c-2.5,1-4.5,0.4-5.4-1.6c-1-2.1-0.1-4,2.6-5.1c16.7-7.1,33.5-14.1,50.3-21.2c7.4-3.1,14.9-6.3,22.4-9.3
		C99,91.2,101.6,92.7,101.6,95.5z"/>
	<path class="st0" d="M24.5,171.5c-2.2-0.2-3.6-1-3.9-2.8c-0.4-2,0.4-3.5,2.4-4.3c5.5-2.3,11-4.6,16.5-7C58,149.7,76.5,141.8,95,134
		c0.4-0.2,0.9-0.4,1.4-0.5c2.2-0.7,4.1,0.1,4.9,1.9c0.8,2,0.1,3.8-2.1,4.8c-3.3,1.5-6.7,2.9-10,4.3c-20.6,8.7-41.3,17.4-61.9,26.1
		C26.2,171,25.1,171.3,24.5,171.5z"/>
	<path class="st0" d="M24.6,254.1c-2.4-0.1-3.7-1-4-2.8c-0.4-2,0.4-3.5,2.3-4.3c5-2.1,10-4.2,15-6.3c19-8,38-16,57-23.9
		c0.6-0.3,1.2-0.5,1.8-0.7c2.1-0.6,3.9,0.2,4.7,2c0.8,1.9,0,3.8-2.1,4.8c-4.1,1.8-8.2,3.5-12.3,5.2c-19.7,8.3-39.5,16.6-59.2,24.9
		C26.6,253.5,25.3,253.9,24.6,254.1z"/>
	<path class="st0" d="M139,174.6c0.2,0.1,0.9,0.2,1.6,0.5c23.8,10,47.6,20.1,71.5,30.2c0.4,0.2,0.7,0.3,1.1,0.5
		c2.3,1.1,3.2,3.1,2.3,5.1c-0.8,1.9-2.8,2.6-5.2,1.6c-3.9-1.6-7.7-3.3-11.6-4.9c-19.9-8.4-39.8-16.8-59.6-25.1
		c-0.7-0.3-1.5-0.6-2.2-1c-1.8-0.9-2.3-2.4-1.9-4.3C135.3,175.3,136.6,174.5,139,174.6z"/>
	<path class="st0" d="M138.7,133.1c0.6,0.2,1.6,0.5,2.4,0.8c23.7,10,47.3,20,71,30c0.4,0.2,0.9,0.4,1.3,0.6c2.1,1,2.9,2.8,2.2,4.8
		c-0.7,1.8-2.8,2.7-4.9,1.9c-3.8-1.5-7.6-3.2-11.4-4.8c-20.4-8.6-40.8-17.2-61.2-25.8c-1.9-0.8-3.5-1.7-3.3-4.2
		C135,134.5,136.4,133.1,138.7,133.1z"/>
	<path class="st0" d="M215.8,250c0.1,3.4-2.4,4.9-5.5,3.6c-6.6-2.7-13.1-5.5-19.7-8.2c-17.6-7.4-35.2-14.7-52.7-22.2
		c-1.2-0.5-2.5-1.7-2.9-2.8c-0.3-0.9,0.2-2.9,0.9-3.4c1.1-0.7,3-1,4.2-0.6c5.8,2.2,11.5,4.7,17.2,7.1c18.4,7.7,36.8,15.5,55.2,23.2
		C214.3,247.5,215.8,248.3,215.8,250z"/>
	<path class="st0" d="M215.8,126.5c0.1,3-2.5,4.4-5.7,3.1c-6.9-2.8-13.7-5.7-20.6-8.6c-16.8-7.1-33.6-14.1-50.5-21.2
		c-0.5-0.2-1-0.4-1.6-0.7c-2.4-1.1-3.3-3-2.4-5.1c0.8-1.9,2.9-2.6,5.4-1.6c16.9,7.1,33.8,14.2,50.7,21.3c7.3,3.1,14.6,6.2,21.9,9.2
		C214.6,123.6,215.7,124.6,215.8,126.5z"/>
	<path class="st0" d="M215.8,84.8c0,3.3-2.5,4.6-5.6,3.4c-4.7-1.9-9.4-3.9-14.1-5.9c-19.4-8.1-38.7-16.2-58-24.5
		c-1.2-0.5-2.6-1.6-3-2.8c-0.4-1,0.2-3.1,1-3.6c1.2-0.7,3.2-0.9,4.4-0.4c8.6,3.4,17,7.1,25.5,10.6c15.5,6.5,31,13,46.5,19.5
		C214.2,82,215.9,82.9,215.8,84.8z"/>
</g>
</svg>
