<svg viewBox="0 0 101 100" fill="none" xmlns="http://www.w3.org/2000/svg">
<path d="M50.0273 100C77.6416 100 100.027 77.6142 100.027 50C100.027 22.3858 77.6416 0 50.0273 0C22.4131 0 0.0273438 22.3858 0.0273438 50C0.0273438 77.6142 22.4131 100 50.0273 100Z" fill="#0077B5"/>
<path fill-rule="evenodd" clip-rule="evenodd" d="M36.964 25.7098C36.964 28.8225 34.594 31.3415 30.8878 31.3415C27.3258 31.3415 24.9555 28.8225 25.029 25.7098C24.9555 22.4458 27.3255 20 30.9588 20C34.594 20 36.893 22.4458 36.964 25.7098ZM25.327 72.0478V35.7905H36.595V72.0453L25.327 72.0478Z" fill="white"/>
<path fill-rule="evenodd" clip-rule="evenodd" d="M45.6261 47.3612C45.6261 42.8389 45.4771 38.9834 45.3281 35.7952H55.1156L55.6359 40.7622H55.8584C57.3414 38.4632 61.0476 34.9814 67.0531 34.9814C74.4659 34.9814 80.0266 39.8752 80.0266 50.5472V72.0522H68.7584V51.9592C68.7584 47.2857 67.1289 44.0994 63.0511 44.0994C59.9361 44.0994 58.0839 46.2494 57.3436 48.3239C57.0456 49.0667 56.8989 50.1027 56.8989 51.1432V72.0522H45.6306V47.3612H45.6261Z" fill="white"/>
</svg>
