<svg viewBox="0 0 273 455" fill="none" xmlns="http://www.w3.org/2000/svg">
<path d="M182.324 403.072C183.116 367.608 156.748 351.95 135.998 352.282C113.053 352.65 89.9864 370.609 91.0438 403.674C84.1958 400.497 77.5398 397.96 71.4184 394.48C31.9278 372.025 8.15711 338.316 1.64378 293.354C-3.74022 256.19 5.7011 222.29 28.1104 192.214C61.8771 146.897 95.8931 101.765 129.805 56.5557C130.192 56.041 130.625 55.5583 131.964 53.937C131.964 56.861 131.965 58.6036 131.964 60.3476C131.961 107.992 131.917 155.636 132.025 203.28C132.034 207.121 131.016 208.62 127.034 209.65C111.737 213.608 100.577 230.133 102.685 244.814C105.421 263.882 118.685 276.098 136.686 276.132C153.629 276.164 167.573 263.868 170.168 247.188C173.05 228.658 160.253 212.958 145.05 209.364C142.54 208.77 141.217 208 141.222 205.177C141.304 155.682 141.317 106.186 141.356 56.6916C141.357 56.369 141.508 56.0463 141.836 54.7316C143.244 56.4756 144.34 57.7476 145.344 59.0876C178.438 103.229 211.524 147.377 244.61 191.524C264.377 217.898 273.91 247.529 272.86 280.505C271.162 333.733 235.521 383.414 185.69 402.045C184.616 402.446 183.492 402.718 182.324 403.072Z" fill="#EC2027"/>
<path d="M204.509 454.579H68.209C68.6023 445.786 67.993 436.976 69.6517 428.618C71.2877 420.375 78.1756 416.056 86.3303 414.424C88.9476 413.9 91.685 413.806 94.3676 413.802C122.476 413.758 150.584 413.767 178.692 413.775C184.998 413.778 191.122 414.527 196.38 418.479C200.878 421.86 204.112 426.231 204.413 431.896C204.805 439.251 204.509 446.642 204.509 454.579Z" fill="#EC2027"/>
<path d="M159.119 23.4519C158.771 36.1466 148.461 45.9759 135.903 45.5839C123.579 45.1986 113.835 34.9226 114.081 22.5652C114.331 9.86255 124.537 -0.0801177 137.042 0.193216C149.578 0.466549 159.465 10.8826 159.119 23.4519Z" fill="#EC2027"/>
</svg>
