<svg viewBox="0 0 454 457" fill="none" xmlns="http://www.w3.org/2000/svg">
<path d="M360.755 20.7118C375.663 28.9838 390.571 37.2572 409.314 47.6572C397.142 25.2252 381.57 17.7078 360.755 20.7118ZM434.434 192.885C420.334 208.559 408.762 221.423 395.48 236.188H434.434V192.885ZM80.307 236.316C116.579 247.813 124.963 210.952 150.123 192.216H115.579C102.472 208.603 91.3883 222.461 80.307 236.316ZM139.19 139.04C89.7377 107.853 64.211 104.307 48.7617 126.489C68.071 127.29 85.2857 132.137 98.2937 147.223C100.08 149.295 104.964 150.368 107.77 149.586C118.007 146.733 127.972 142.9 139.19 139.04ZM109.611 102.885C138.198 116.046 163.02 144.037 197.988 117.23C170.392 102.668 145.783 74.2745 109.611 102.885ZM132.262 235.477C171.6 239.788 195.896 225.708 210.022 193C169.858 178.612 154.759 211.469 132.262 235.477ZM331.162 234.313C374.447 249.833 388.707 216.047 410.123 193.972C367.855 178.341 352.88 211.592 331.162 234.313ZM265.588 233.712C266.154 235.151 266.72 236.588 267.286 238.025C280.868 236.745 297.182 239.721 307.386 233.173C322.055 223.757 332.275 207.407 344.395 194.016C343.902 192.713 343.41 191.411 342.916 190.108C328.994 191.561 312.478 188.841 301.783 195.491C287.371 204.453 277.442 220.631 265.588 233.712ZM276.438 190.139C262.855 191.437 246.566 188.501 236.336 195.044C221.651 204.437 211.383 220.74 199.124 234.209C241.378 249.411 257.035 217.301 276.438 190.139ZM171.554 82.0452C199.452 96.6238 224.322 124.25 260.424 95.5572C232.115 82.2132 207.923 53.0025 171.554 82.0452ZM322.646 74.9932C294.514 60.4612 269.338 32.3812 234.164 60.8625C261.535 75.6452 286.527 103.561 322.646 74.9932ZM296.946 39.3958C338.136 69.5798 357.598 72.8772 384.935 53.7238C357.032 39.5198 332.098 12.2718 296.946 39.3958ZM93.6163 181.907C93.2603 160.813 76.027 144.205 54.9243 144.619C33.8016 145.033 17.4296 162.164 17.8296 183.433C18.2296 204.679 35.251 221.087 56.475 220.687C77.5523 220.289 93.975 203.143 93.6163 181.907ZM64.1776 254.409C64.1776 299.216 64.059 342.914 64.2176 386.612C64.3336 418.584 83.663 438.673 115.326 438.769C205.138 439.044 294.952 439.048 384.764 438.764C415.922 438.665 434.895 419.391 435.228 387.845C435.658 347.257 435.408 306.663 435.344 266.072C435.339 262.44 434.558 258.809 434.047 254.409H64.1776ZM47.575 238.408C27.8817 232.419 12.427 222.484 4.69366 203.336C-4.62367 180.267 2.11631 155.143 21.551 139.06C25.355 135.912 30.835 131.367 30.7643 127.556C30.4737 111.927 39.5523 105.505 52.3816 101.217C148.015 69.2558 243.566 37.0425 339.26 5.26785C376.09 -6.96148 410.056 7.55851 424.612 40.1292C430.459 53.2158 428.756 60.1705 413.644 65.1598C317.384 96.9345 221.415 129.595 125.359 161.989C120.046 163.781 114.811 165.801 109.539 167.715C109.626 169.329 109.711 170.944 109.798 172.559C115.474 173.248 121.148 174.533 126.826 174.54C228.524 174.657 330.226 174.947 431.92 174.281C448.028 174.176 453.583 178.359 453.342 195.117C452.448 257.335 453.068 319.572 452.964 381.803C452.884 429.481 426.39 456.328 378.734 456.453C292.724 456.681 206.711 456.695 120.7 456.455C73.3777 456.323 47.6416 430.161 47.587 382.96C47.5323 334.841 47.575 286.723 47.575 238.408Z" fill="#EC2027"/>
<path d="M285.922 349.084C265.887 334.301 247.694 320.877 227.99 306.339V391.764C248.139 376.92 266.09 363.695 285.922 349.084ZM216.925 278.335C223.527 282.512 226.806 284.323 229.799 286.523C252.786 303.425 275.801 320.292 298.634 337.401C311.598 347.116 311.701 350.961 299.018 360.489C275.778 377.951 252.383 395.213 228.79 412.191C225.279 414.717 218.282 417.681 216.487 416.172C213.097 413.321 210.762 407.387 210.699 402.697C210.213 366.593 210.142 330.477 210.614 294.375C210.679 289.376 214.425 284.424 216.925 278.335Z" fill="#EC2027"/>
</svg>
