<?xml version="1.0" encoding="utf-8"?>
<!-- Generator: Adobe Illustrator 28.1.0, SVG Export Plug-In . SVG Version: 6.00 Build 0)  -->
<svg version="1.1" id="Layer_1" xmlns="http://www.w3.org/2000/svg" xmlns:xlink="http://www.w3.org/1999/xlink" x="0px" y="0px"
	 viewBox="0 0 350.5 304.6" style="enable-background:new 0 0 350.5 304.6;" xml:space="preserve">
<style type="text/css">
	.st0{fill:#EB2127;}
</style>
<g>
	<path class="st0" d="M193.7,210.9c0,6.3,0,11.5,0,17.3c-2.7,0.1-5.2,0.3-7.7,0.3c-35.9,0-71.9,0-107.8,0
		c-15.5,0-21.7-6.2-21.7-21.9c0-45.6,0-91.2,0-136.8c0-2.3,0-4.5,0-7.3c66.8,0,133,0,199.5,0c0,34.2,0,68.1,0,102.5
		c-5.4,0-10.5,0-16.5,0c0-28.5,0-56.6,0-85.3c-55.5,0-110.1,0-165.3,0c0,43.6,0,87,0,131.1C113.8,210.9,153.3,210.9,193.7,210.9z"/>
	<path class="st0" d="M211.5,198.1c5.1-4.8,9.9-9.4,15.3-14.4c3.9,1.5,6.8,7.2,13.8,3.8c6.1-3,8.2-6.6,7.5-13.7c3.9,0,7.2,0,10.6,0
		c3.4,0,6.9,0,10.6,0c1.6,5.3,1.2,10.6,8.2,13.6c7.1,3,10-1.6,14.6-3.9c4.8,4.9,9.4,9.7,14.4,14.8c-1.3,4.3-6.5,7.2-3.6,14.5
		c3,7.5,8.9,5.7,13.8,8.5c0,3.9-0.3,7.8,0.1,11.6c0.7,6.3-0.8,10-8.2,10c-4.1,0-8.3,11.4-6,14.9c1.4,2.1,2.9,4.1,4.5,6.3
		c-5,4.9-9.7,9.6-14.7,14.5c-4.5-1.6-7.4-7.3-14.4-4c-6.3,3-7.5,7.1-7.9,13.1c-6.9,0-13.7,0-21,0c-1.6-4.7-0.8-10.2-8-13.1
		c-7.2-2.9-10,1.9-14.6,3.9c-4.8-4.9-9.5-9.6-14.4-14.6c0.5-0.9,1.1-2.1,1.8-3.2c5.4-7.6,1.9-16.3-7-18.5c-1.9-0.5-3.9-3.1-4.5-5.2
		c-0.8-2.5,0.1-5.5-0.3-8.2c-0.7-6,0.7-9.6,7.8-9.7c4.1,0,8.6-11.2,6.3-14.8C214.8,202.4,213.2,200.4,211.5,198.1z M259.4,254.1
		c13,0,23.4-10.3,23.4-23.1c0-12.8-10.4-23-23.4-23c-13,0-23.4,10.3-23.4,23.1C235.9,243.9,246.4,254.1,259.4,254.1z"/>
	<path class="st0" d="M256.4,54.1c-3.3,0-5.8,0-8.3,0c-61,0-122-0.1-183,0.2c-6.9,0-9.8-1.6-8.7-8.8c0.6-3.6,0.1-7.4,0.7-11
		c1.4-8.5,7.6-14.1,16.1-14.1c55.7-0.1,111.4-0.1,167.1,0c8.5,0,15.2,6.9,16,15.2c0.1,1.4,0.1,2.8,0.1,4.1
		C256.4,44.1,256.4,48.5,256.4,54.1z M77.5,42.9c2-2.7,3.9-4.3,3.8-5.6c-0.1-1.5-2.2-2.7-3.5-4.1c-1.3,1.3-3.4,2.4-3.7,3.9
		C74,38.4,75.8,40.1,77.5,42.9z M92.7,42.9c2-2.7,3.9-4.3,3.8-5.6c-0.1-1.5-2.2-2.7-3.5-4.1c-1.3,1.3-3.4,2.4-3.7,3.9
		C89.2,38.4,91,40.1,92.7,42.9z M107.8,31.6c-1.6,2.6-3.4,4.3-3.2,5.7c0.2,1.4,2.4,2.5,3.8,3.7c1.2-1.4,3.3-2.7,3.4-4.1
		C111.8,35.5,109.7,34,107.8,31.6z"/>
	<path class="st0" d="M146.1,160.5c0-4.6,0-8.7,0-12.6c9.5-3.3,10.9-6.9,5.7-15.4c2.9-2.6,6-5.3,9.2-8.1c9.6,3.7,12.6,2.5,15-6.8
		c4,0,8,0,12.1,0c4.4,9.9,6.9,10.9,15.6,6.3c0.9,0.8,1.9,1.7,3,2.6c2.1,1.8,4.2,3.5,6,5c-4.7,10.2-3.6,12.8,6.4,16.6
		c0,2.6,0,5.3,0,8.1c0,1.3-0.2,2.7-0.2,3.9c-9.7,2.8-11.3,6.5-6.6,14.8c-3.1,2.9-6.2,5.8-9.4,8.9c-7.2-4.1-8.2-3-13.8,4.4
		c-2.1,2.7-8.3,2.2-12.6,3.1c-2.8-10.2-7.3-12-15.1-7.1c-2.9-3-5.9-6.1-8.9-9.2C156.8,167,155,162.4,146.1,160.5z M182.3,168.6
		c8.4,0,14.9-6.5,14.8-14.8c-0.1-8.1-7.1-14.9-15.1-14.7c-7.9,0.2-14.2,6.6-14.3,14.7C167.6,162.4,173.8,168.6,182.3,168.6z"/>
	<path class="st0" d="M279.1,139.7c-0.9,2.4-1.7,4.7-2.6,7.1c-2.4-0.9-5.3-1.2-7-2.8c-12.1-11-12.1-11.2,0.4-22.3
		c1.7-1.5,4.6-1.4,7-2.1c-0.2,2.5-0.4,5.1-0.7,7.6c-0.1,0.6-0.6,1.1-0.3,0.6c8.5,4.7,17.5,8.4,25,14.1c12.1,9.1,18.4,22.2,19.4,37.4
		c0.2,2.7-1.8,7.6-3.5,7.9c-4.9,1-4.7-3.5-5-7C310.5,160.3,297,143.9,279.1,139.7z"/>
	<path class="st0" d="M186.9,276.5c-21.6-5-36.3-17.6-43.4-39.2c5.5-1.9,8.5-1.3,11,4.4c5.4,12.6,16.3,21.3,28.2,24.3
		c1.2-2.5,1.7-6,3.5-6.8c1.6-0.7,5,1.1,6.7,2.7c11.8,10.9,11.8,11.1-0.8,22.2c-1.6,1.5-4.7,1.3-7.1,2c0.3-2.5,0.5-5.1,0.8-7.6
		C186,277.8,186.5,277.3,186.9,276.5z"/>
	<path class="st0" d="M113.9,189.1c6.7,0,13.4-0.3,20,0.2c2.1,0.2,4,2.8,5.9,4.3c-2,1.5-4,4.1-6,4.2c-13.6,0.4-27.1,0.4-40.7,0
		c-2.1-0.1-4.2-2.6-6.3-3.9c2.1-1.6,4.1-4.3,6.4-4.5C100.1,188.7,107,189.1,113.9,189.1z"/>
	<path class="st0" d="M113.7,180.5c-6.7,0-13.3,0.4-20-0.2c-2.4-0.2-4.6-2.6-6.8-3.9c2.1-1.5,4.3-4.1,6.4-4.2
		c13.3-0.4,26.6-0.4,39.9,0c2.2,0.1,4.3,2.7,6.5,4.2c-2.3,1.4-4.4,3.7-6.8,4C126.6,180.9,120.1,180.5,113.7,180.5z"/>
	<path class="st0" d="M105.3,154.4c4.1,0,8.4-0.4,12.4,0.2c1.9,0.3,3.5,2.7,5.2,4.1c-1.7,1.4-3.4,3.9-5.3,4c-8.5,0.4-17,0.4-25.5,0
		c-1.8-0.1-3.5-2.6-5.2-4.1c1.8-1.4,3.4-3.8,5.4-4.1C96.5,154,101,154.4,105.3,154.4z"/>
</g>
</svg>
