<?xml version="1.0" encoding="utf-8"?>
<!-- Generator: Adobe Illustrator 28.1.0, SVG Export Plug-In . SVG Version: 6.00 Build 0)  -->
<svg version="1.1" id="Layer_1" xmlns="http://www.w3.org/2000/svg" xmlns:xlink="http://www.w3.org/1999/xlink" x="0px" y="0px"
	 viewBox="0 0 314 314" style="enable-background:new 0 0 314 314;" xml:space="preserve">
<style type="text/css">
	.st0{fill:#EB2127;}
</style>
<g>
	<path class="st0" d="M0,156.8C-0.2,69.3,72.6-3.3,163.2,0.1c83.6,3.1,154,73.2,150.7,163.3c-3.1,83.2-73.1,154.1-163.7,150.5
		C66.2,310.5-0.3,240.9,0,156.8z M309.6,157.1C309.4,72.8,241.8,5.4,158.8,4.4C73.4,3.5,4.4,72.2,4.4,157
		c0,84.5,68,151.9,151.1,152.7C241.1,310.4,309.4,241.3,309.6,157.1z"/>
	<path class="st0" d="M71.4,55.6c34.1,0,68.1,0,102.4,0c0,0.7,0,1.4,0,2c0,24.5,0,49,0,73.5c0,1.4,0.3,2.1,1.7,2.7
		c9.4,3.8,18.8,7.8,28.5,11.8c-3.6,1.5-7,2.9-10.3,4.3c-3.9,1.6-7.9,3.3-11.8,4.8c-0.8,0.3-1.8,0.3-2.6,0c-1.8-0.6-3.5-1.4-5.4-2.2
		c0,1.6-0.1,2.9,0,4.2c0.1,1-0.3,1.6-1.2,1.8c-1.4,0.3-2.9,0.7-4.3,0.8c-3.3,0.1-6.6,0-9.9,0c-0.1,0.6-0.1,1-0.1,1.4
		c-0.1,3.8-0.1,3.8-3.7,5.3c-19.6,8.1-39.2,16.2-58.9,24.3c-1.3,0.6-1.7,1.1-1.3,2.6c1.6,6.4,7.3,11.2,14.2,12.3
		c7.7,1.2,14.9-0.6,22-3.4c11.2-4.4,22.3-9.2,33.4-13.7c1.7-0.7,3.6-0.6,5.6-0.9c-0.2-2.8,2.7-2,4.2-3.5c0,25.1,0,49.7,0,74.5
		c-34.1,0-68.2,0-102.3,0C71.4,190.8,71.4,123.3,71.4,55.6z M158.4,142.5c0,3.9,0,7.7,0,11.5c3.8,0,7.5,0,11.2,0c0-3.9,0-7.7,0-11.5
		C165.9,142.5,162.2,142.5,158.4,142.5z M169.6,88.1c0-3.9,0-7.7,0-11.5c-3.8,0-7.5,0-11.2,0c0,3.9,0,7.7,0,11.5
		C162.2,88.1,165.8,88.1,169.6,88.1z M169.6,93c-3.9,0-7.5,0-11.2,0c0,3.9,0,7.7,0,11.4c3.8,0,7.5,0,11.2,0
		C169.6,100.6,169.6,96.8,169.6,93z M75.6,154c3.8,0,7.5,0,11.2,0c0-3.9,0-7.7,0-11.5c-3.8,0-7.5,0-11.2,0
		C75.6,146.4,75.6,150.1,75.6,154z M75.6,60.1c0,3.9,0,7.7,0,11.5c3.8,0,7.5,0,11.2,0c0-3.9,0-7.6,0-11.5
		C83,60.1,79.4,60.1,75.6,60.1z M169.6,60.1c-3.8,0-7.5,0-11.2,0c0,3.9,0,7.7,0,11.5c3.8,0,7.5,0,11.2,0
		C169.6,67.8,169.6,64,169.6,60.1z M86.8,88.1c0-3.9,0-7.6,0-11.5c-3.8,0-7.4,0-11.2,0c0,3.9,0,7.6,0,11.5
		C79.3,88.1,83,88.1,86.8,88.1z M75.6,93c0,3.9,0,7.7,0,11.5c3.8,0,7.5,0,11.2,0c0-3.9,0-7.7,0-11.5C82.9,93,79.3,93,75.6,93z
		 M75.6,109.5c0,3.9,0,7.7,0,11.5c3.8,0,7.5,0,11.2,0c0-3.9,0-7.7,0-11.5C83,109.5,79.4,109.5,75.6,109.5z M158.4,121
		c3.9,0,7.6,0,11.2,0c0-3.9,0-7.7,0-11.4c-3.8,0-7.5,0-11.2,0C158.4,113.4,158.4,117.1,158.4,121z M86.8,137.6c0-3.9,0-7.7,0-11.5
		c-3.8,0-7.5,0-11.2,0c0,3.9,0,7.7,0,11.5C79.4,137.6,83,137.6,86.8,137.6z M169.6,126.1c-3.8,0-7.5,0-11.2,0c0,3.9,0,7.7,0,11.4
		c3.8,0,7.5,0,11.2,0C169.6,133.7,169.6,130,169.6,126.1z M86.8,171.1c0-3.9,0-7.7,0-11.5c-3.8,0-7.4,0-11.2,0c0,3.9,0,7.6,0,11.5
		C79.3,171.1,83,171.1,86.8,171.1z M75.5,187.6c3.9,0,7.6,0,11.3,0c0-3.9,0-7.6,0-11.4c-3.8,0-7.5,0-11.3,0
		C75.5,180.1,75.5,183.7,75.5,187.6z M86.8,204.1c0-3.9,0-7.6,0-11.4c-3.8,0-7.5,0-11.2,0c0,3.9,0,7.6,0,11.4
		C79.4,204.1,83,204.1,86.8,204.1z M169.6,192.7c-3.8,0-7.5,0-11.2,0c0,3.9,0,7.6,0,11.4c3.8,0,7.5,0,11.2,0
		C169.6,200.3,169.6,196.6,169.6,192.7z M86.7,237c0-3.9,0-7.7,0-11.4c-3.8,0-7.5,0-11.2,0c0,3.9,0,7.6,0,11.4
		C79.3,237,83,237,86.7,237z M169.6,237c0-3.9,0-7.7,0-11.4c-3.8,0-7.5,0-11.2,0c0,3.8,0,7.6,0,11.4C162.1,237,165.8,237,169.6,237z
		 M86.8,242.1c-3.9,0-7.6,0-11.2,0c0,3.9,0,7.7,0,11.4c3.8,0,7.5,0,11.2,0C86.8,249.7,86.8,246,86.8,242.1z M169.6,253.6
		c0-3.9,0-7.7,0-11.4c-3.8,0-7.5,0-11.2,0c0,3.9,0,7.6,0,11.4C162.2,253.6,165.8,253.6,169.6,253.6z M75.6,209.1c0,3.9,0,7.6,0,11.4
		c3.8,0,7.4,0,11.2,0c0-3.8,0-7.6,0-11.4C83,209.1,79.4,209.1,75.6,209.1z M158.3,220.5c3.7,0,7.4,0,11.3,0c0-3.8,0-7.5,0-11.3
		c-3.8,0-7.5,0-11.3,0C158.3,213,158.3,216.6,158.3,220.5z"/>
	<path class="st0" d="M97.4,193.1c45.8-19,91.3-37.8,136.8-56.7c-2.2-3.4-3.5-7-3.9-10.9c-0.9-9.5,4.3-18.8,12.9-22.8
		c14.1-6.5,30.3,2,32.5,17.3c1.6,11-4.4,20.6-14.3,24.7c-24.3,10-48.5,20.1-72.8,30.1c-19.9,8.2-39.8,16.4-59.7,24.6
		c-4.6,1.9-9.5,3.1-14.5,3.3c-6.2,0.2-11.8-1.1-15.5-6.7C98.3,195.2,97.9,194.2,97.4,193.1z M252.9,136.7
		c7.3,0.1,13.4-5.7,13.5-12.9c0.1-7.7-5.6-13.7-13.1-13.7c-7.4-0.1-13.4,5.7-13.6,13.1C239.4,130.4,245.4,136.6,252.9,136.7z"/>
	<path class="st0" d="M234.1,177.6c-7.3-3-14.6-6-22.1-9.2c1-0.4,1.7-0.8,2.5-1.1c6.5-2.7,13-5.4,19.5-8c0.9-0.3,2.1-0.4,3,0
		c8.2,3.3,16.4,6.8,24.7,10.2c8.6,3.6,15.4,12.2,14.2,23.9c-1,9.2-7.5,17-17.1,19.5c-13.2,3.5-27.3-6.2-28.4-19.7
		C229.8,187.1,230.3,185.2,234.1,177.6z M266.3,190.9c0-7.6-5.7-13.5-13.2-13.5c-7.5,0-13.5,6-13.5,13.3c0,7.4,5.9,13.3,13.3,13.3
		C260.4,204.1,266.3,198.3,266.3,190.9z"/>
</g>
</svg>
