<svg viewBox="0 0 101 100" fill="none" xmlns="http://www.w3.org/2000/svg">
<g clip-path="url(#clip0_2250_2896)">
<path fill-rule="evenodd" clip-rule="evenodd" d="M50.0303 0C22.4181 0 0.0273438 22.3849 0.0273438 50.0029C0.0273438 70.471 12.3399 88.0637 29.9621 95.7958C29.821 92.309 29.9386 88.1107 30.8264 84.3123C31.7908 80.2552 37.259 57.0706 37.259 57.0706C37.259 57.0706 35.6656 53.8778 35.6656 49.1563C35.6656 41.7475 39.9638 36.2145 45.3087 36.2145C49.8539 36.2145 52.053 39.6307 52.053 43.7232C52.053 48.2919 49.1366 55.1302 47.6372 61.4629C46.3848 66.7725 50.2949 71.0943 55.528 71.0943C65.0006 71.0943 71.3803 58.9287 71.3803 44.5111C71.3803 33.5568 64.001 25.3543 50.5771 25.3543C35.4128 25.3543 25.9637 36.6614 25.9637 49.2915C25.9637 53.6544 27.2456 56.7237 29.2565 59.0992C30.1855 60.1987 30.309 60.6339 29.9739 61.8922C29.7387 62.8036 29.1859 65.0262 28.9566 65.9023C28.6215 67.1664 27.5984 67.6251 26.4577 67.1547C19.4664 64.3029 16.2148 56.6532 16.2148 48.0508C16.2148 33.8508 28.1922 16.8107 51.9472 16.8107C71.0393 16.8107 83.6047 30.6345 83.6047 45.4578C83.6047 65.0732 72.7033 79.726 56.6217 79.726C51.2298 79.726 46.1495 76.8096 44.4091 73.4992C44.4091 73.4992 41.5044 85.0179 40.8929 87.2405C39.8345 91.0919 37.7588 94.9491 35.8596 97.9479C40.3578 99.2767 45.1088 100 50.0303 100C77.6424 100 100.027 77.6151 100.027 50.0029C100.027 22.3849 77.6424 0 50.0303 0Z" fill="#CC2127"/>
</g>
<defs>
<clipPath id="clip0_2250_2896">
<rect width="100" height="100" fill="white" transform="translate(0.0273438)"/>
</clipPath>
</defs>
</svg>
