<svg viewBox="0 0 511 513" fill="none" xmlns="http://www.w3.org/2000/svg">
<path d="M249.831 19.4371V48.1837H260.51V18.9651C256.514 19.1411 253.479 19.2757 249.831 19.4371ZM369.1 493.694C369.695 492.624 370.291 491.554 370.886 490.484C370.786 489.568 370.872 488.582 370.56 487.745C357.918 453.912 345.176 420.114 332.618 386.249C329.939 379.022 325.311 380.425 319.352 382.264C332.727 417.822 345.714 452.84 359.318 487.617C360.438 490.481 365.742 491.708 369.1 493.694ZM138.895 491.029C146.368 494.02 150.172 492.509 152.611 485.512C158.502 468.608 165.008 451.918 171.28 435.148C177.856 417.565 184.447 399.989 191.166 382.052C183.624 379.821 179.555 380.906 176.956 388.596C171.028 406.14 163.95 423.294 157.459 440.652C151.226 457.321 145.146 474.046 138.895 491.029ZM491.176 348.584H19.6643V360.24H491.176V348.584ZM458.234 328.024C458.524 324.252 458.835 322.085 458.836 319.917C458.863 238.91 458.724 157.902 459.062 76.8971C459.098 68.2517 454.954 68.0904 448.672 68.0944C319.755 68.1824 190.836 68.2584 61.9189 67.9997C53.3883 67.9824 51.399 70.5917 51.4283 78.7411C51.719 157.541 51.6016 236.342 51.631 315.142C51.6363 327.997 51.7056 328.009 64.2349 328.009C191.891 328.017 319.548 328.02 447.206 328.024C450.607 328.024 454.007 328.024 458.234 328.024ZM109.668 512.193C126.216 467.918 142.152 425.285 158.627 381.205H0.265625V328.338H31.6643V49.1478H228.471V0.27977H281.547V48.2518H477.946V327.777H510.399V380.625H351.736C368.303 425.017 384.27 467.806 400.807 512.126C382.995 512.126 366.459 512.385 349.954 511.794C347.915 511.722 345.279 507.412 344.202 504.578C329.664 466.336 315.158 428.077 301.172 389.63C298.694 382.817 295.482 380.592 288.352 380.738C265.978 381.2 243.583 381.15 221.207 380.752C214.806 380.638 211.93 382.621 209.699 388.728C195.656 427.157 181.023 465.369 166.882 503.762C164.658 509.798 162.044 512.724 154.958 512.394C140.519 511.722 126.027 512.193 109.668 512.193Z" fill="#EC2027"/>
<path d="M277.505 118.285H233.23V277.921H277.505V118.285ZM297.496 298.264H213.062V98.7122H297.496V298.264Z" fill="#EC2027"/>
<path d="M392.88 183.58C384.113 183.58 376.32 183.58 368.525 183.58C347.341 183.581 347.341 183.581 347.341 204.816V277.693H392.88V183.58ZM411.985 298.029H327.748V164.64H411.985V298.029Z" fill="#EC2027"/>
<path d="M162.303 249.896H117.932V277.887H162.303V249.896ZM98.3652 229.872H182.816V297.865H98.3652V229.872Z" fill="#EC2027"/>
</svg>
