<svg viewBox="0 0 604 463" fill="none" xmlns="http://www.w3.org/2000/svg">
<path d="M0.453125 171.277C7.47713 152.52 21.4611 145.776 40.8185 146.61C57.8985 147.346 75.0371 146.764 93.0465 146.764V47.1437H383.677C381.241 55.5864 377.532 59.717 367.638 59.657C284.342 59.1583 201.041 59.373 117.741 59.3717H106.637V146.764H117.616C198.544 146.764 279.472 146.87 360.398 146.582C367.625 146.557 369.585 149.494 372.882 155.416C383.49 174.474 374.76 192.905 373.173 211.553C372.529 219.122 371.146 226.629 369.946 235.264C388.588 232.449 405.968 229.425 423.464 227.412C429.285 226.741 435.56 228.052 441.354 229.529C454.736 232.938 467.952 237.005 482.617 241.2C482.617 244.368 482.617 249.028 482.617 253.689C482.614 280.665 482.693 307.641 482.585 334.617C482.492 357.933 464.842 371.734 440.41 366.684C440.41 363.761 440.412 360.593 440.41 357.426C440.405 334.897 440.602 312.365 440.337 289.838C440.07 267.072 424.189 251.24 401.617 251.224C292.824 251.15 184.03 251.157 75.2371 251.233C52.5065 251.249 36.3318 267.625 36.1598 290.644C35.9918 313.172 36.1158 335.702 36.1105 358.232C36.1105 361.129 36.1105 364.028 36.1105 366.782C19.8545 369.5 10.1878 363.108 0.453125 343.872V171.277Z" fill="#EC2027"/>
<path d="M491.448 207.623C543.412 207.289 584.502 165.505 584.27 113.233C584.04 61.9181 542.07 20.2074 490.72 20.2661C438.848 20.3261 396.896 62.9794 397.26 115.29C397.616 166.35 440.055 207.954 491.448 207.623ZM603.648 132.131C599.011 149.582 593.364 166.51 582.324 181.27C549.559 225.081 492.226 239.697 442.514 217.003C437.988 214.937 432.278 214.054 427.331 214.591C413.534 216.09 399.85 218.623 384.326 221.027C385.923 209.25 386.966 197.99 389.09 186.937C391.08 176.579 390.631 167.377 386.342 157.142C357.886 89.2261 400.544 13.7461 473.327 2.01006C474.704 1.78873 475.988 0.990081 477.316 0.460748H504.006C505.658 1.00875 507.271 1.76474 508.967 2.07407C550.398 9.61807 579.218 33.0847 595.971 71.4394C599.234 78.9074 601.124 86.9754 603.648 94.7661V132.131Z" fill="#EC2027"/>
<path d="M106.573 450.013H376.632V285.725H106.573V450.013ZM427.557 367.736H390V415.201V462.575H93.4132V368.453H51.4786C50.1373 366.916 49.4305 366.485 49.4291 366.051C49.2905 339.983 48.5503 313.893 49.3783 287.853C49.8503 272.989 61.0399 263.901 76.1625 263.892C184.372 263.828 292.581 263.819 400.79 263.908C417.11 263.923 427.448 274.396 427.525 290.619C427.645 316.056 427.557 341.495 427.557 367.736Z" fill="#EC2027"/>
<path d="M490.516 118.265C485.177 123.317 479.952 128.498 474.469 133.39C467.527 139.582 463.363 146.358 463.783 156.478C464.224 167.052 452.473 176.94 440.144 177.977C441.677 168.828 457.716 160.138 441.653 150.588C426.491 141.572 426.463 159.308 419.009 164.017C412.108 148.372 421.239 128.198 439.488 130.145C444.199 130.648 450.136 127.202 454.253 123.97C460.739 118.881 466.035 112.304 472.099 106.64C474.087 104.784 476.899 103.812 479.335 102.434C483.061 107.712 486.789 112.988 490.516 118.265Z" fill="#EC2027"/>
<path d="M504.72 132.202C505.053 140.894 532.746 169.675 540.777 172.32L542.57 170.551C530.43 158.251 518.29 145.951 504.72 132.202ZM510.414 129.322C514.489 138.78 542.569 165.187 548.146 164.804C542.805 154.891 516.037 129.719 510.414 129.322ZM490.518 118.266C486.79 112.988 483.064 107.712 479.336 102.435C466.422 90.1325 453.521 77.8178 440.581 65.5418C439.116 64.1511 436.608 63.2605 436.057 61.6365C435.162 58.9991 435.485 55.9485 435.293 53.0725C438.249 53.3551 441.24 53.4578 444.138 54.0271C445.066 54.2085 445.789 55.5938 446.544 56.4831C454.693 66.0898 462.54 75.9751 471.054 85.2458C479.593 94.5418 488.794 103.227 498.062 112.539C499.808 110.707 501.153 109.294 502.493 107.883C502.488 107.886 502.416 107.927 502.416 107.927C503.893 107.308 506.269 105.775 506.71 106.21C512.121 111.528 517.248 117.136 522.445 122.666C520.666 122.423 518.892 122.184 516.172 121.818C529.53 134.659 541.934 146.583 554.256 158.428V154.551C561.232 159.218 562.884 165.856 558.69 172.379C554.508 178.884 545.026 181.679 539.417 176.316C525.213 162.735 511.933 148.187 498.29 134.019C496.285 131.938 494.698 128.938 492.261 127.89C486.233 125.296 487.99 122.018 490.518 118.266Z" fill="#EC2027"/>
<path d="M502.415 107.927C502.415 107.927 502.487 107.886 502.492 107.883C495.864 108.287 494.068 106.99 482.934 92.7553C486.216 90.3566 489.928 87.9006 493.35 85.0913C500.743 79.018 505.147 72.038 504.7 61.4886C504.252 50.902 516 41.09 528.49 39.8246C527.112 48.998 510.95 57.5686 526.768 67.2246C541.946 76.4886 542.078 58.8086 549.472 54.0593C557.027 71.0113 547.651 86.9593 529.987 87.3153C515.716 87.6033 509.268 97.9393 502.415 107.927Z" fill="#EC2027"/>
<path d="M241.563 401.733C205.984 401.726 170.407 401.728 134.828 401.722C132.754 401.722 130.216 402.409 128.707 401.469C126.044 399.812 124.01 397.148 121.711 394.905C124.158 392.788 126.412 390.361 129.132 388.689C130.428 387.893 132.607 388.524 134.386 388.524C205.839 388.522 277.291 388.522 348.744 388.524C350.523 388.524 352.703 387.89 353.998 388.686C356.718 390.358 358.974 392.786 361.42 394.905C359.12 397.148 357.122 399.926 354.415 401.446C352.598 402.466 349.779 401.734 347.408 401.736C312.127 401.742 276.844 401.74 241.563 401.733Z" fill="#EC2027"/>
<path d="M241.165 429.069C205.889 429.077 170.613 429.078 135.337 429.073C132.967 429.073 130.201 429.773 128.323 428.795C125.768 427.467 122.307 424.925 122.183 422.735C122.063 420.639 125.413 417.877 127.819 416.279C129.288 415.303 131.852 415.917 133.924 415.917C205.661 415.902 277.399 415.901 349.136 415.898C350.025 415.898 350.915 415.906 351.804 415.906C356.589 415.905 361.908 416.905 360.918 422.574C360.458 425.207 354.784 428.742 351.436 428.782C314.683 429.226 277.923 429.061 241.165 429.069Z" fill="#EC2027"/>
<path d="M241.547 306.857C276.83 306.857 312.112 306.857 347.395 306.859C349.47 306.859 351.983 306.135 353.527 307.045C356.447 308.767 358.81 311.432 361.404 313.704C358.979 315.841 356.747 318.288 354.044 319.979C352.758 320.784 350.571 320.169 348.792 320.169C277.338 320.172 205.883 320.175 134.428 320.159C132.064 320.159 129.294 320.713 127.439 319.691C125.142 318.424 121.88 315.511 122.148 313.793C122.536 311.305 125.366 308.668 127.816 307.209C129.59 306.153 132.44 306.864 134.81 306.864C170.39 306.855 205.968 306.857 241.547 306.857Z" fill="#EC2027"/>
<path d="M241.126 347.329C205.559 347.33 169.993 347.338 134.426 347.313C131.771 347.311 128.631 347.903 126.594 346.715C124.441 345.459 122.298 342.477 122.129 340.107C122.01 338.433 124.878 335.791 126.973 334.914C129.273 333.949 132.213 334.422 134.874 334.421C206.007 334.405 277.141 334.407 348.274 334.407C349.459 334.407 350.646 334.433 351.831 334.411C356.607 334.325 361.961 335.151 360.929 340.93C360.461 343.547 354.749 347.013 351.379 347.053C314.633 347.491 277.878 347.327 241.126 347.329Z" fill="#EC2027"/>
<path d="M241.54 361.566C277.092 361.566 312.644 361.564 348.196 361.57C350.567 361.57 353.38 360.835 355.196 361.854C357.664 363.238 359.367 365.983 361.399 368.144C359.236 370.174 357.328 372.651 354.821 374.071C353.241 374.964 350.767 374.295 348.693 374.295C277.292 374.298 205.892 374.298 134.491 374.296C132.713 374.296 130.569 374.914 129.235 374.14C126.501 372.556 124.204 370.222 121.727 368.196C124.335 365.991 126.86 362.007 129.565 361.88C143.459 361.23 157.4 361.568 171.324 361.567C194.729 361.564 218.135 361.566 241.54 361.566Z" fill="#EC2027"/>
</svg>
