<svg viewBox="0 0 498 512" fill="none" xmlns="http://www.w3.org/2000/svg">
<path d="M139.156 233.264C144.644 236.998 149.025 239.98 154.886 243.968C154.182 236.9 153.66 231.648 153.02 225.241C148.108 228.084 144.296 230.289 139.156 233.264ZM427.184 350.674C430.992 354.942 434.514 358.89 437.977 362.772C446.293 355.446 447.628 350.297 443.124 345.938C438.694 341.653 434.245 342.852 427.184 350.674ZM45.5582 27.1478C41.5235 23.1958 37.4302 17.0971 35.5435 17.7158C29.0462 19.8505 22.7502 23.7171 17.7089 28.3664C16.4875 29.4918 20.3742 36.1558 22.0969 40.7651C30.1435 36.0945 36.7809 32.2424 45.5582 27.1478ZM329.429 464.8C347.878 464.762 360.3 445.945 351.77 429.737C347.553 421.721 341.214 414.748 335.356 407.7C331.96 403.612 327.13 403.37 323.678 407.577C317.709 414.852 311.208 422.044 306.99 430.321C298.874 446.248 311.458 464.837 329.429 464.8ZM392.198 339.017C378.262 352.813 365.165 365.778 352.804 378.016C371.404 396.705 390.184 415.576 408.486 433.966C421.2 421.3 434.226 408.321 446.664 395.93C436.184 384.95 425.588 373.846 414.778 362.517C408.26 369.032 402.221 375.342 395.872 381.322C391.037 385.876 384.546 385.602 382.836 380.394C381.852 377.402 382.952 372.472 385.009 369.978C390.628 363.17 397.254 357.193 403.154 351.217C398.91 346.492 395.425 342.61 392.198 339.017ZM128.117 142.121C173.489 142.121 216.96 142.193 260.426 141.918C262.698 141.904 265.641 139.424 267.106 137.29C280.113 118.356 292.869 99.2505 305.652 80.1625C306.656 78.6611 307.3 76.9198 308.476 74.5598C273.437 74.5598 239.469 74.5331 205.504 74.5771C195.022 74.5905 182.624 71.3611 174.585 75.8518C165.977 80.6611 161.374 92.7531 155.209 101.794C146.394 114.721 137.749 127.764 128.117 142.121ZM259.464 495.124V158.861H139.097C140.53 161.62 141.556 163.785 142.749 165.854C150.112 178.618 157.544 191.342 164.869 204.126C166.094 206.264 167.565 208.565 167.814 210.909C169.509 226.801 171.144 242.709 172.181 258.653C172.369 261.556 170.465 265.984 168.166 267.269C165.833 268.574 161.157 267.886 158.645 266.286C148.75 259.982 139.316 252.961 129.684 246.244C127.168 244.489 124.556 242.873 121.414 240.82V495.124H259.464ZM119.862 125.304C130.03 110.318 139.07 95.6758 149.464 82.0705C158.754 69.9091 163.148 57.1078 161.437 41.8478C160.78 35.9758 161.138 29.7318 162.402 23.9558C165.4 10.2451 177.909 0.909128 192.749 0.863795C228.514 0.751795 264.278 0.778468 300.042 0.853134C318.673 0.891801 331.594 13.2185 332.792 31.8251C332.824 32.3238 332.882 32.8385 332.798 33.3238C328.83 56.2545 337.714 74.6318 351.694 92.1745C364.282 107.969 375.133 125.17 386.317 142.038C388.624 145.516 390.096 150.26 390.117 154.43C390.377 205.95 390.297 257.472 390.305 308.992V315.889C399.288 324.202 407.048 331.385 414.802 338.562C434.433 325.556 445.929 324.769 455.718 335.744C465.57 346.786 464.042 358.036 449.021 375.817C454.005 380.06 459.217 384.346 464.254 388.829C469.126 393.166 469.126 397.718 464.468 402.357C447.993 418.768 431.532 435.194 415.114 451.662C410.149 456.644 405.502 456.2 401.02 451.144C398.106 447.854 395.308 444.464 392.458 441.118C391.72 441.626 390.98 442.133 390.241 442.641C390.241 461.034 390.246 479.429 390.24 497.822C390.237 510.388 389.158 511.486 376.578 511.488C290.294 511.496 204.01 511.496 117.725 511.486C106.281 511.485 104.886 510.057 104.885 498.437C104.874 406.649 104.925 314.861 104.713 223.074C104.702 218.364 103.432 213.102 101.108 209.036C69.3675 153.52 37.3409 98.1704 5.3822 42.7811C-2.29246 29.4784 -0.844458 20.3211 11.4662 10.9491C16.3195 7.25446 22.0875 4.31447 27.8915 2.40514C40.5169 -1.7482 48.0582 1.62779 54.7529 13.2251C74.9902 48.2731 95.2102 83.3291 115.457 118.372C116.654 120.445 118.022 122.42 119.862 125.304Z" fill="#EC2027"/>
<path d="M429.702 50.2748V63.4921C434.535 63.4921 438.784 63.2348 442.991 63.5588C448.016 63.9481 451.482 67.1655 449.984 71.9668C449.078 74.8721 445.255 77.8535 442.127 78.8268C438.336 80.0081 433.896 79.1068 429.58 79.1068V92.5041C436.219 92.5041 442.412 92.5908 448.603 92.4788C454.203 92.3775 458.948 93.7241 459.076 100.287C459.216 107.36 454.096 108.679 448.308 108.676C442.136 108.673 435.964 108.675 429.732 108.675V121.689C434.57 121.689 438.843 121.309 443.018 121.789C447.812 122.341 451.562 125.423 449.966 130.329C449.006 133.284 445.288 136.341 442.168 137.339C438.392 138.545 433.935 137.624 429.578 137.624V150.952C436.458 150.952 442.9 151.02 449.342 150.931C454.771 150.856 458.92 152.553 459.135 158.649C459.355 164.899 455.059 166.695 449.744 166.781C443.076 166.891 436.404 166.808 429.602 166.808V179.857C434.062 179.857 438.051 179.607 441.995 179.92C447.074 180.321 450.552 182.767 450.28 188.464C450.028 193.737 446.674 195.855 441.843 196.023C437.714 196.167 433.574 196.052 429.734 196.052V209.412C436.572 209.412 442.79 209.484 449.006 209.392C454.676 209.307 459.188 210.808 459.111 217.481C459.036 223.808 454.515 225.088 449.274 225.093C442.832 225.099 436.392 225.095 429.54 225.095V238.269C433.399 238.269 436.844 238.233 440.29 238.277C445.928 238.351 450.332 240.156 450.248 246.736C450.172 252.977 445.864 254.528 440.566 254.569C436.916 254.599 433.266 254.575 429.662 254.575V267.859C436.903 267.859 443.612 267.868 450.32 267.855C455.62 267.844 459.095 270.099 459.138 275.717C459.182 281.453 455.568 283.487 450.306 283.463C443.399 283.432 436.494 283.456 429.676 283.456V294.763H481.17V22.8654H429.695V34.0188C436.499 34.0188 442.723 34.0735 448.946 34.0028C454.606 33.9388 459.138 35.6148 459.118 42.1108C459.099 48.6681 454.304 50.2015 448.8 50.2601C442.584 50.3255 436.366 50.2748 429.702 50.2748ZM497.387 159.355C497.387 205.38 497.403 251.407 497.375 297.432C497.368 310.004 495.748 311.516 482.971 311.507C463.46 311.492 443.951 311.527 424.439 311.463C415.57 311.435 412.88 308.773 412.876 299.752C412.84 205.7 412.84 111.647 412.879 17.5948C412.883 8.82147 415.159 6.49745 424.032 6.44278C444.543 6.31611 465.055 6.32012 485.564 6.41745C495.724 6.46678 497.362 8.15878 497.37 18.2761C497.408 65.3015 497.387 112.328 497.387 159.355Z" fill="#EC2027"/>
<path d="M45.497 219.147C38.1304 234.207 31.7304 247.144 25.4664 260.147C21.253 268.891 23.2517 279.004 30.2624 285.518C36.7477 291.544 45.089 292.448 53.061 287.988C61.3144 283.371 66.837 273.243 63.8024 264.564C58.5704 249.603 52.0144 235.104 45.497 219.147ZM11.7237 457.98C14.641 407.066 17.641 356.158 20.2944 305.23C20.473 301.768 18.885 297.486 16.677 294.751C6.06104 281.606 4.7997 266.663 11.697 251.359C19.6557 233.702 26.1357 215.38 33.5984 197.491C34.7944 194.626 37.4584 191.014 40.025 190.464C42.621 189.908 47.5704 191.926 48.6864 194.194C59.1437 215.434 69.7544 236.66 78.7424 258.54C83.961 271.246 79.3957 283.45 70.8917 294.151C68.9464 296.6 67.3677 300.288 67.5184 303.311C69.5944 345.004 72.0077 386.682 74.3277 428.362C75.009 440.594 75.9357 452.819 76.2557 465.06C76.7584 484.207 62.549 499.075 44.077 499.216C25.5157 499.359 11.3984 484.698 11.5877 465.486C11.613 462.986 11.5904 460.486 11.5904 457.986C11.6357 457.984 11.6797 457.982 11.7237 457.98Z" fill="#EC2027"/>
<path d="M182.983 365.456C182.373 365.347 181.765 365.236 181.156 365.127C172.065 378.227 162.809 391.219 154.084 404.559C152.976 406.253 154.073 410.004 155.109 412.384C160.253 424.205 165.564 435.961 171.217 447.544C172.236 449.632 175.064 452.056 177.18 452.179C186.143 452.695 195.16 452.597 204.137 452.245C206.051 452.171 208.809 450.533 209.609 448.865C215.6 436.356 221.353 423.725 226.763 410.955C227.68 408.788 227.509 405.171 226.265 403.239C218.565 391.285 210.428 379.613 202.388 367.881C201.804 367.029 200.847 366.433 199.228 364.955C199.228 374.42 199.208 382.645 199.233 390.871C199.251 396.64 196.928 401.057 190.815 401.036C184.456 401.015 182.843 396.289 182.944 390.599C183.093 382.22 182.983 373.837 182.983 365.456ZM190.467 468.028C181.963 468.028 173.457 467.995 164.955 468.041C159.831 468.068 156.376 465.325 156.333 460.56C156.179 443.541 147.62 429.981 138.46 416.913C133.673 410.081 133.369 405.12 138.303 398.281C153.363 377.409 167.775 356.071 182.477 334.94C188.213 326.699 193.639 326.636 199.252 334.825C214.228 356.676 229.035 378.641 244.116 400.419C247.811 405.756 247.468 409.979 243.748 415.3C234.149 429.028 224.876 442.987 224.732 460.841C224.693 465.803 221.003 468.111 215.98 468.073C207.476 468.009 198.971 468.056 190.467 468.056V468.028Z" fill="#EC2027"/>
<path d="M150.249 311.396C145.251 311.396 141.283 311.576 137.337 311.351C132.192 311.058 128.695 308.63 128.944 302.982C129.171 297.868 132.359 295.307 137.276 295.298C172.757 295.23 208.238 295.216 243.72 295.308C248.51 295.32 251.912 297.664 252.102 302.926C252.304 308.594 248.812 311.01 243.704 311.351C239.762 311.612 235.788 311.403 232.952 311.403C237.087 321.954 241.232 332.382 245.222 342.87C245.823 344.452 245.804 346.311 245.868 348.05C246.063 353.306 244.667 357.77 238.57 358.27C232.006 358.807 230.102 354.424 229.607 348.806C227.984 330.391 217.726 317.587 200.866 312.784C177.486 306.126 153.115 323.087 151.499 347.332C151.093 353.42 150.037 358.566 142.475 358.282C137 358.076 134.42 353.315 135.3 345.792C136.685 333.964 138.841 328.908 150.249 311.396Z" fill="#EC2027"/>
</svg>
