<?xml version="1.0" encoding="utf-8"?>
<!-- Generator: Adobe Illustrator 28.1.0, SVG Export Plug-In . SVG Version: 6.00 Build 0)  -->
<svg version="1.1" id="Layer_1" xmlns="http://www.w3.org/2000/svg" xmlns:xlink="http://www.w3.org/1999/xlink" x="0px" y="0px"
	 viewBox="0 0 350.5 304.6" style="enable-background:new 0 0 350.5 304.6;" xml:space="preserve">
<style type="text/css">
	.st0{fill:#EB2127;}
</style>
<g>
	<path class="st0" d="M140.4,214.4c-1.9,0-3.7,0-5.5,0c-7.5,0-14.9,0-22.4,0c-3.8,0-4.9-1.2-4.9-4.9c0-29.5,0-59.1,0-88.6
		c0-0.8,0-1.7,0-2.7c-16,0-31.9,0-48,0c0,0.4-0.2,0.8-0.2,1.3c0,14,0,27.9,0,41.9c0,1.8,0.4,2.5,2.2,3c14.9,4.2,20,23,9.5,34.1
		c-1.8,1.9-4,2.2-5.7,0.7c-1.6-1.5-1.6-3.6,0.2-5.7c3.5-4.1,4.6-8.7,2.7-13.8c-1.8-4.9-5.5-7.8-10.7-8.7c-5.3-0.9-10.6,1.7-13.5,6.5
		c-2.7,4.4-2.4,10.5,0.7,14.7c0.4,0.6,0.9,1.1,1.4,1.7c1.4,1.7,1.4,4-0.1,5.3c-1.6,1.4-3.8,1.3-5.4-0.4c-4.6-4.9-6.6-10.7-5.6-17.3
		c1.4-9.1,6.7-14.9,15.6-17.4c1.4-0.4,1.4-1.1,1.4-2.2c0-15.5,0-30.9,0-46.4c0-3.9,1.1-5,5-5c16.1,0,32.1,0,48.2,0
		c0.7,0,1.4,0,2.3,0c0-0.9,0-1.6,0-2.3c0-7.5-0.1-14.9,0.1-22.4c0.7-33.2,24.9-62.9,57.4-69.8c28.6-6,53.2,1.9,72.8,23.7
		c12,13.3,17.8,29.3,18.1,47.3c0.1,7,0,14.1,0,21.1c0,0.7,0,1.4,0,2.3c0.9,0,1.6,0,2.3,0c16.1,0,32.1,0,48.2,0c3.9,0,5,1.1,5,4.9
		c0,15.4,0,30.8,0,46.2c0,1.5,0.4,2.1,1.9,2.5c14.7,4,20.2,21.7,10.5,33.4c-0.1,0.1-0.2,0.3-0.4,0.4c-2.1,2.3-4.2,2.7-6,1.1
		c-1.7-1.5-1.5-3.7,0.5-6c4.7-5.4,4.4-13.5-0.7-18.5c-5.1-5-13.4-5.1-18.6-0.2c-5.2,4.9-5.7,12.9-1.2,18.5c0.3,0.4,0.7,0.7,1,1.1
		c1.3,1.6,1.2,3.8-0.3,5.2c-1.5,1.4-3.8,1.3-5.3-0.3c-4.1-4.3-6.1-9.4-5.9-15.3c0.3-9.4,6.5-17.1,15.6-19.5c0.9-0.3,1.6-0.4,1.6-1.7
		c-0.1-14.6,0-29.1,0-43.7c0-0.2-0.1-0.3-0.1-0.7c-0.6,0-1.2-0.1-1.9-0.1c-14.7,0-29.5,0-44.2,0c-1.5,0-1.9,0.4-1.9,1.9
		c0,29.7,0,59.3,0,89c0,0.2,0,0.5,0,0.7c0,3.6-1.2,4.9-4.8,4.9c-8.7,0-17.3,0-26,0c-0.6,0-1.3,0-2.1,0c0,1,0,1.7,0,2.5
		c0,13.7,0,27.5,0,41.2c0,1.6,0.5,2.2,2,2.6c14.9,4.1,20.3,22.9,9.7,34.2c-1.8,1.9-4,2.2-5.7,0.7c-1.6-1.5-1.6-3.7,0.2-5.7
		c4.1-4.6,4.8-10.9,1.8-15.9c-3-5.1-8.9-7.7-14.6-6.4c-5.8,1.3-10,6.1-10.5,12.3c-0.3,3.8,1,7.1,3.5,10c0.7,0.8,1.2,2,1.4,3.1
		c0.2,1.5-0.7,2.6-2.1,3.2c-1.6,0.6-3,0.3-4.3-0.9c-3.4-3.5-5.4-7.6-5.8-12.4c-0.9-10.6,5.3-19.5,15.5-22.4c0.9-0.2,1.6-0.4,1.6-1.7
		c-0.1-14.5,0-29,0-43.5c0-0.2-0.1-0.5-0.1-0.8c-22.5,0-45.1,0-67.7,0c0,0.6-0.1,1.1-0.1,1.6c0,14,0,28,0,42.1c0,1.5,0.4,2,1.8,2.4
		c15,3.9,20.5,22.7,10,34.1c-1.9,2.1-4.1,2.4-5.8,0.9c-1.7-1.5-1.6-3.7,0.2-5.8c3.8-4.3,4.6-10.2,2-15.2c-2.6-5-7.9-7.9-13.5-7.3
		c-5.6,0.6-10.1,4.4-11.6,10c-1.2,4.7,0,8.8,3.1,12.5c0.7,0.8,1.2,1.8,1.4,2.8c0.3,1.6-0.5,2.9-2.1,3.6c-1.6,0.7-3.1,0.4-4.3-0.9
		c-3.4-3.5-5.5-7.7-5.8-12.6c-0.8-10.8,5.3-19.4,15.7-22.3c0.9-0.3,1.4-0.5,1.4-1.6c0-14.4,0-28.9,0-43.3
		C140.5,215.3,140.4,215,140.4,214.4z M248.5,147.4c0-0.7,0.1-1.3,0.1-1.9c0-18.9,0-37.7,0-56.6c0-13.8-3.9-26.5-11.6-38.1
		c-18.4-27.4-55.2-37.4-84.6-22.4c-24.5,12.6-37,33.2-37.4,60.7c-0.3,18.7-0.1,37.5-0.1,56.2c0,0.6,0.1,1.3,0.1,2
		C159.6,147.4,203.9,147.4,248.5,147.4z M248.5,154.9c-0.8,0-1.4,0-2,0c-43.2,0-86.4,0-129.6,0c-1.6,0-2.1,0.4-2.1,2.1
		c0.1,16,0,32.1,0,48.1c0,0.6,0.1,1.2,0.1,1.8c44.6,0,89,0,133.5,0C248.5,189.5,248.5,172.3,248.5,154.9z"/>
	<path class="st0" d="M169.6,103.8c-3,0-6,0.1-8.9,0c-1.4-0.1-2,0.5-2.4,1.7c-1,2.9-2.1,5.7-3.3,8.5c-1.3,3-3.4,4-6.2,3
		c-2.6-0.9-4.1-3.5-3.2-6.3c1.6-4.6,3.4-9.1,5.2-13.7c3.5-9,7.1-18,10.6-26.9c0.4-1,0.8-2,1.3-2.9c1.4-2.9,3.6-4.4,6.9-4.4
		c3.4,0,5.7,1.6,7,4.6c2.3,5.4,4.4,10.8,6.6,16.2c3.2,8,6.5,16,9.7,24c0.4,1.1,0.8,2.2,1.1,3.4c0.7,2.6-0.7,5.1-3.2,6
		c-2.5,0.9-5,0.1-6.2-2.4c-1.3-2.8-2.5-5.8-3.6-8.8c-0.5-1.5-1.2-2.1-2.8-2C175.5,103.8,172.5,103.8,169.6,103.8
		C169.6,103.8,169.6,103.8,169.6,103.8z M169.8,74.5c-0.1,0-0.3,0-0.4,0c-2.5,6.9-5,13.9-7.5,21c5.3,0,10.3,0,15.6,0
		C174.8,88.4,172.3,81.5,169.8,74.5z"/>
	<path class="st0" d="M213.3,89.9c0,6.9,0,13.7,0,20.6c0,1.1-0.1,2.2-0.4,3.2c-0.6,2.2-2.4,3.5-4.8,3.5c-2.4,0-4.2-1.1-5-3.3
		c-0.3-1-0.5-2.1-0.5-3.2c0-13.8,0-27.7,0-41.5c0-0.9,0.1-1.9,0.4-2.8c0.6-2.3,2.5-3.7,4.9-3.7c2.6,0,4.5,1.3,5.1,3.6
		c0.3,1,0.4,2.1,0.4,3.2C213.3,76.3,213.3,83.1,213.3,89.9z"/>
	<path class="st0" d="M181.8,163.9c5.4,0,10.9,0,16.3,0c10,0.1,17.9,7.9,18,17.8c0.1,9.7-7.7,17.9-17.6,18
		c-11.2,0.2-22.4,0.2-33.6,0c-9.8-0.1-17.6-8.4-17.4-18.1c0.1-9.7,8-17.6,17.7-17.7C170.8,163.9,176.3,163.9,181.8,163.9z
		 M181.7,192.3C181.7,192.3,181.7,192.3,181.7,192.3c5.4,0,10.9,0,16.3,0c2.4,0,4.6-0.7,6.5-2.1c3.6-2.8,5.1-7.4,3.7-11.7
		c-1.4-4.4-5.3-7.2-10.2-7.3c-5-0.1-9.9,0-14.9,0c-6.1,0-12.2-0.1-18.3,0.1c-5.9,0.3-10.1,5.1-9.9,10.8c0.2,5.7,4.8,10.1,10.6,10.1
		C170.9,192.4,176.3,192.3,181.7,192.3z"/>
</g>
</svg>
