<svg viewBox="0 0 178 178" fill="none" xmlns="http://www.w3.org/2000/svg">
<path d="M87.1551 130.578H69.0292C70.0592 136.834 66.4471 143.187 72.7761 148.478C75.5701 150.814 74.7321 154.822 71.6981 157.406C70.5274 158.545 68.959 159.184 67.3253 159.187C65.6916 159.189 64.1212 158.555 62.9471 157.419C59.8801 154.861 59.0982 150.819 61.8932 148.493C68.2562 143.199 64.4212 136.771 65.6022 130.961C48.9782 128.012 48.8682 127.902 47.2682 112.473C41.2532 113.346 34.8031 109.846 29.3851 116.167C27.1141 118.817 23.3501 118.036 20.8401 115.303C18.1851 112.411 18.0671 109.091 20.6711 106.164C23.0551 103.485 26.9872 102.338 29.1912 104.996C34.3912 111.263 40.7911 108.122 47.2521 108.996V90.796H36.5411C30.4951 90.796 24.4411 90.568 18.4111 90.922C16.1237 91.1817 13.9613 92.101 12.1871 93.568C8.88212 96.205 4.81016 96.552 2.15416 93.62C-0.501837 90.688 -0.518843 87.475 1.99816 84.476C4.54116 81.447 8.71609 81.676 12.0321 84.199C13.9426 85.76 16.264 86.7349 18.7162 87.006C27.5962 87.306 36.4932 87.106 45.3832 87.067C46.0358 86.9934 46.6814 86.868 47.3141 86.692V69.192C41.3841 69.967 35.1631 66.347 29.8341 72.551C27.3541 75.436 23.4881 74.708 20.7971 71.927C18.2591 69.304 18.1191 66.107 20.3591 63.193C22.7661 60.063 26.7992 58.859 29.1752 61.682C34.4312 67.93 40.8692 64.551 47.5132 65.729C46.6742 52.961 51.8501 46.124 65.5431 47.816C65.5431 43.035 65.8431 38.788 65.3901 34.616C65.2191 33.042 63.2902 31.674 62.2012 30.181C59.9382 27.075 59.6081 23.833 62.4121 21.002C65.1241 18.265 68.4372 17.926 71.5492 20.389C74.6612 22.852 75.6351 26.943 72.8751 29.262C66.5951 34.539 69.9361 40.9 69.0361 47.27H87.0862C87.0862 36.514 87.1581 25.747 86.9671 14.985C86.9492 13.966 85.2822 12.968 84.3672 11.975C81.5092 8.87499 81.4451 4.58901 84.4361 2.01201C87.4041 -0.545994 90.6361 -0.538994 93.6041 2.01201C96.5931 4.57901 96.3041 8.70499 93.7601 12.036C92.2045 13.9433 91.2394 16.2631 90.9831 18.711C90.6761 28.093 90.8541 37.492 90.8541 47.275H108.862C107.933 41.331 111.726 35.067 105.425 29.742C102.571 27.33 103.238 23.423 106.097 20.723C107.213 19.5274 108.751 18.8149 110.384 18.7376C112.018 18.6603 113.617 19.2241 114.84 20.309C118.006 22.728 119.066 26.835 116.307 29.15C110.025 34.42 113.451 40.861 112.53 46.142C117.579 47.879 123.23 48.295 126.34 51.321C129.45 54.347 130.059 59.991 132.14 65.494C135.903 65.6613 139.673 65.6102 143.43 65.341C144.999 65.17 146.372 63.251 147.846 62.141C150.964 59.804 154.146 59.59 156.985 62.418C159.753 65.177 160.054 68.506 157.544 71.536C155.075 74.516 151.768 75.036 148.47 72.91C141.87 68.654 139.348 68.091 130.67 69.66V87.115C141.351 87.115 151.953 87.185 162.552 87.008C163.627 86.99 164.765 85.571 165.722 84.645C168.922 81.545 172.302 81.245 175.686 84.127C176.338 84.7341 176.861 85.4659 177.224 86.279C177.588 87.0921 177.784 87.9698 177.802 88.8603C177.819 89.7507 177.658 90.6356 177.327 91.4625C176.997 92.2894 176.503 93.0415 175.876 93.674C173.101 96.485 169.126 96.187 165.815 93.539C164.049 92.0569 161.875 91.1439 159.58 90.92C150.034 90.643 140.48 90.799 130.621 90.799V108.94C136.767 107.871 143.121 111.686 148.414 105.265C150.803 102.365 154.803 103.349 157.386 106.212C159.828 108.919 159.868 112.095 157.496 114.938C154.954 117.985 151.042 118.971 148.61 116.118C143.323 109.918 136.922 113.456 131.095 112.401C127.818 129.191 127.754 129.255 112.533 130.674C113.443 136.685 109.873 143.083 116.194 148.574C118.954 150.974 118.11 154.974 115.012 157.489C112.193 159.773 109.038 159.833 106.266 157.364C103.313 154.734 102.49 150.764 105.319 148.399C111.666 143.091 107.932 136.744 108.971 130.581H90.8911C90.8911 141.325 90.8051 151.765 91.0061 162.2C91.0291 163.421 92.5242 164.711 93.5232 165.8C96.4412 168.974 96.5861 173.012 93.7671 175.8C92.4735 177.042 90.7462 177.73 88.9531 177.717C87.16 177.704 85.4427 176.991 84.1671 175.731C81.4251 172.92 81.6731 168.906 84.5671 165.713C85.6431 164.524 87.0111 162.975 87.0411 161.565C87.2531 151.448 87.1542 141.324 87.1542 130.582M126.662 89.225C126.662 79.814 126.719 70.402 126.643 60.991C126.588 54.162 123.762 51.368 116.843 51.35C98.1978 51.2993 79.5524 51.3017 60.9071 51.357C54.3211 51.379 51.4211 54.219 51.3951 60.749C51.3198 79.571 51.3198 98.394 51.3951 117.218C51.4201 123.735 54.3141 126.559 60.9261 126.582C79.5715 126.645 98.2171 126.645 116.863 126.582C123.772 126.562 126.589 123.763 126.645 116.922C126.721 107.689 126.664 98.454 126.664 89.222M93.5101 6.795C91.4201 5.401 90.0251 3.795 89.1181 4.029C87.8382 4.366 86.9181 6.07201 85.8451 7.19301C86.8851 8.16301 87.9621 9.945 88.9551 9.899C90.2261 9.841 91.4291 8.30899 93.5101 6.79899M11.2771 89.135C9.54409 87.635 8.31418 85.829 7.44518 85.988C6.12118 86.231 5.04508 87.834 3.86608 88.86C4.97408 89.96 5.9371 91.623 7.2401 91.96C8.1021 92.18 9.45209 90.488 11.2771 89.14M175.593 88.94C173.3 87.468 172.002 86.012 170.701 86.009C169.758 86.009 168.068 87.935 168.074 88.994C168.08 90.053 169.796 91.944 170.747 91.935C172.037 91.922 173.313 90.448 175.593 88.94ZM88.9431 175.185C90.3731 173.457 92.1431 172.209 91.9801 171.302C91.7531 170.015 90.1071 168.978 89.0671 167.834C87.9931 168.944 86.3272 169.925 86.0502 171.207C85.8572 172.098 87.5711 173.407 88.9431 175.185ZM114.995 25.797C113.095 24.334 111.941 22.75 110.883 22.813C109.716 22.882 108.64 24.464 107.524 25.386C108.603 26.554 109.507 28.241 110.83 28.686C111.599 28.947 113.043 27.22 114.995 25.793M67.1952 30.025C68.6822 28.168 70.4721 26.84 70.2721 25.969C69.9781 24.685 68.2661 23.726 67.1581 22.629C66.2011 23.676 64.5581 24.672 64.4781 25.785C64.3981 26.898 65.8832 28.107 67.1952 30.025ZM30.1091 67.24C28.1931 65.874 26.7962 64.179 25.9092 64.414C24.6342 64.753 23.7322 66.493 22.6702 67.635C23.7542 68.585 24.8232 70.259 25.9252 70.282C27.0532 70.304 28.2131 68.707 30.1061 67.24M156.548 67.287C154.659 65.887 153.461 64.314 152.396 64.4C151.224 64.494 150.174 66.114 149.072 67.069C150.182 68.215 151.132 69.91 152.465 70.301C153.265 70.537 154.665 68.748 156.548 67.287ZM25.4621 114.959C27.0621 113.116 28.9401 111.804 28.7441 110.994C28.4161 109.642 26.7631 108.611 25.6681 107.444C24.6681 108.487 23.0061 109.444 22.8581 110.598C22.7201 111.676 24.1871 112.959 25.4581 114.959M152.495 114.969C153.814 112.988 155.311 111.729 155.186 110.657C155.051 109.495 153.408 108.507 152.423 107.442C151.308 108.587 149.635 109.587 149.288 110.93C149.078 111.743 150.924 113.087 152.495 114.969ZM71.6391 152.016C69.6731 150.681 68.1941 148.995 67.3581 149.27C66.1051 149.68 65.3041 151.47 64.3111 152.67C65.4341 153.544 66.5621 155.107 67.6771 155.098C68.7771 155.089 69.8611 153.487 71.6391 152.015M110.452 147.901C109.126 149.894 107.458 151.373 107.732 152.23C108.132 153.485 109.932 154.295 111.132 155.294C112.004 154.158 113.557 153.02 113.553 151.887C113.553 150.787 111.941 149.7 110.452 147.901Z" fill="#EC1C24"/>
<path d="M99.6841 107.677C95.0101 109.677 94.0051 106.995 92.9331 103.845C92.0561 101.269 91.0991 97.329 89.2961 96.753C85.5577 95.5775 81.5488 95.5754 77.8091 96.747C75.8981 97.416 74.9962 101.539 74.0502 104.247C72.9982 107.261 71.8661 109.559 67.6311 107.696C71.6921 95.682 75.6851 83.603 79.9811 71.633C80.3591 70.58 82.8101 69.586 84.1471 69.756C84.9129 69.9469 85.6254 70.3093 86.2307 70.8158C86.836 71.3224 87.3182 71.9598 87.6411 72.68C91.7611 84.208 95.6411 95.822 99.6841 107.675M77.9722 91.815H89.1621C87.2231 86.125 85.4732 80.986 83.3672 74.805C81.3122 81.285 79.6672 86.476 77.9672 91.815" fill="#EC1C24"/>
<path d="M110.644 89.283C110.644 94.601 110.78 99.924 110.532 105.23C110.483 106.297 108.983 107.296 108.151 108.33C107.351 107.268 105.867 106.217 105.851 105.142C105.679 94.3333 105.681 83.5223 105.857 72.709C105.874 71.664 107.415 70.643 108.248 69.609C109.048 70.673 110.489 71.709 110.536 72.804C110.773 78.289 110.645 83.789 110.646 89.284" fill="#EC1C24"/>
</svg>
