<svg viewBox="0 0 128 128" fill="none" xmlns="http://www.w3.org/2000/svg">
<path d="M65.78 81.453C52.002 95.26 38.439 108.693 25.102 122.353C22.427 125.091 20.902 125.102 18.375 122.32C14.128 117.644 9.58605 113.22 4.97505 108.896C2.80805 106.862 2.91803 105.559 4.99403 103.51C17.965 90.704 30.812 77.772 43.718 64.899C44.592 64.027 45.611 63.299 46.991 62.146C42.215 57.476 37.952 52.98 33.346 48.868C22.6017 39.4759 13.7914 28.0794 7.40803 15.316C5.49903 11.439 3.02799 7.84098 1.03199 4.00098C0.818953 3.48215 0.724813 2.92222 0.75648 2.36225C0.788147 1.80228 0.944861 1.25649 1.21504 0.764988C1.54204 0.271988 3.40601 0.210982 4.14601 0.664982C17.899 9.09198 33.16 15.225 44.104 27.906C49.668 34.353 56.032 40.106 62.24 46.382L105.64 2.638C106.532 3.23479 107.386 3.88497 108.199 4.585C113.133 9.47099 117.967 14.46 122.977 19.266C124.977 21.187 124.897 22.496 122.945 24.429C110.078 37.167 97.2713 49.962 84.524 62.814C83.664 63.675 82.866 64.599 81.907 65.637C82.765 66.593 83.453 67.437 84.219 68.2C97.197 81.1753 110.174 94.152 123.149 107.13C124.566 108.505 125.789 110.066 126.785 111.771C127.453 112.839 127.709 114.113 127.503 115.356C127.297 116.598 126.645 117.723 125.668 118.518C123.698 120.403 121.825 122.388 119.884 124.304C115.984 128.154 113.02 128.284 109.055 124.473C104.228 119.835 99.56 115.03 94.823 110.298C86.0497 101.534 77.2757 92.7717 68.501 84.011C67.725 83.237 66.901 82.511 65.774 81.458M106.399 7.72098L95.736 17.721C97.1038 18.816 98.3989 19.9988 99.613 21.262C100.001 21.711 99.686 22.771 99.692 23.552C99.009 23.466 98.136 23.617 97.679 23.252C96.265 22.115 95.009 20.781 93.851 19.676L83.081 30.51C85.042 32.204 87.255 33.982 89.276 35.957C89.783 36.452 89.676 37.579 89.845 38.416C88.967 38.269 87.788 38.432 87.266 37.922C85.243 35.945 83.428 33.754 81.848 31.99L70.88 43.03L75.06 48.468L73.832 49.661L67.991 45.246L57.18 55.932C59.2185 57.4319 61.1776 59.0371 63.049 60.741C63.796 61.483 63.896 62.875 64.2901 63.972C63.1651 63.529 61.804 63.348 60.962 62.589C59.3457 61.0293 57.8103 59.3879 56.362 57.671L44.85 68.171C45.9051 69.1457 46.8817 70.202 47.771 71.33C48.2713 72.2976 48.6521 73.3225 48.905 74.382C47.7731 74.1264 46.6756 73.7366 45.636 73.221C44.6167 72.446 43.6737 71.5754 42.82 70.621C39.29 74.141 35.98 77.441 31.964 81.447C33.411 82.583 35.064 83.689 36.489 85.047C39.26 87.685 39.205 87.747 37.94 90.371L30.259 83.28L18.768 94.465C20.1073 95.2529 21.3711 96.1627 22.543 97.183C23.143 97.805 23.18 98.976 23.47 99.9C22.445 99.632 21.186 99.645 20.451 99.03C19.4505 98.0315 18.5644 96.9247 17.809 95.73L7.10401 105.96L21.781 120.653L120.529 21.805L106.405 7.71698M22.505 33.84L48.339 59.905L52.795 55.394L26.062 28.297C24.942 30.041 23.704 31.968 22.501 33.839M60.216 48.394L34.346 22.22L28.87 25.575C37.6513 34.3883 46.6751 43.446 55.9411 52.748L60.216 48.394ZM103.335 115.645C106.165 118.345 108.748 120.996 111.535 123.405C113.535 125.134 115.663 125.425 117.7 123.087C119.426 121.135 121.274 119.295 123.234 117.578C125.452 115.605 125.481 113.413 123.758 111.365C121.314 108.465 118.574 105.806 116.409 103.52L103.337 115.645M101.8 90.819C94.218 83.043 86.867 75.507 79.554 68.008C78.037 69.42 76.418 70.927 75.554 71.729L97.654 94.551L101.8 90.819ZM94.999 97.355L73.331 75.366L68.539 79.413L90.516 101.613L94.999 97.358M11.327 17.098C13.306 20.556 15.775 24.99 18.391 29.335C18.886 30.158 20.299 31.323 20.706 31.126C21.65 30.668 22.938 29.406 22.857 28.593C22.382 23.847 24.718 22.557 28.957 22.686C29.837 22.713 30.874 21.355 31.577 20.436C31.732 20.236 30.921 18.931 30.301 18.558C25.662 15.769 20.959 13.087 17.629 11.158C15.385 13.274 13.6191 14.94 11.3291 17.1M95.717 107.562C99.872 103.593 103.958 99.688 107.854 95.962L104.703 92.38L92.094 104.35L95.717 107.557M110.202 97.446L98.502 109.767L101.362 113.605L113.524 101.049L110.195 97.443M9.57301 14.113L14.128 9.11298L4.49903 3.551L3.88002 4.17798L9.57301 14.111" fill="#EC1C24"/>
</svg>
