<svg  viewBox="0 0 495 429" fill="none" xmlns="http://www.w3.org/2000/svg">
<path d="M411.839 227.401C411.84 219.787 410.815 214.701 408.591 209.616C403.895 198.879 395.731 192.783 383.963 193.004C368.832 193.289 357.32 200.345 349.761 213.561C348.564 215.656 347.025 217.249 344.759 218.089C340.233 219.767 335.86 217.833 333.26 213.321C326.384 201.381 315.996 194.737 302.341 193.104C301.164 192.963 300.697 193.287 300.372 194.46C295.467 212.185 287.533 228.457 276.664 243.287C275.804 244.46 275.752 245.34 276.347 246.617C281.476 257.629 288.817 267.048 297.228 275.689C309.809 288.616 324.24 299.093 339.971 307.849C341.171 308.517 342.024 308.495 343.203 307.839C357.463 299.908 370.667 290.543 382.365 279.132C391.187 270.528 399.133 261.216 404.94 250.253C409.067 242.463 411.804 234.268 411.839 227.401ZM414.133 407.559C413.781 407.056 413.596 406.764 413.384 406.492C405.519 396.431 400.023 385.239 397.211 372.753C396.017 367.447 397.727 363.756 402.512 361.331C416.508 354.233 428.948 345.032 439.657 333.556C461.905 309.713 473.885 281.421 475.893 248.932C476.769 234.753 475.339 220.749 471.635 207.011C464.447 180.348 450.491 157.84 429.588 139.835C403.78 117.605 373.716 106.659 339.605 106.951C327.821 107.051 316.303 108.887 304.977 112.06C303.58 112.452 302.199 112.905 300.719 113.357C306.2 133.811 307.473 154.349 304.504 175.121C319.24 176.883 331.495 183.133 341.696 193.925C342.387 193.175 343.001 192.429 343.695 191.765C355.067 180.881 368.475 174.748 384.364 174.913C400.887 175.085 413.737 182.256 422.145 196.488C431.483 212.291 432.363 229.084 426.536 246.317C422.557 258.088 416.028 268.425 408.177 277.953C390.921 298.896 369.605 314.697 345.604 327.056C342.829 328.484 339.989 328.347 337.235 326.916C317.409 316.621 299.311 303.968 283.793 287.787C276.036 279.699 269.095 270.999 263.568 261.217C263.325 260.789 263.048 260.381 262.703 259.831C249.385 273.408 234.195 284.147 217.051 292.093C217.225 292.536 217.336 292.839 217.463 293.135C230.435 323.599 251.64 346.444 281.101 361.528C296.784 369.557 313.492 374.116 331.073 375.483C340.628 376.225 350.14 375.936 359.64 374.708C362.609 374.323 365.237 375.32 367.248 377.544C375.972 387.199 386.163 394.935 397.673 400.955C402.856 403.665 408.253 405.851 414.133 407.559ZM81.044 319.292C81.1027 319.404 81.1613 319.516 81.22 319.628C84.6853 318.309 88.2147 317.137 91.604 315.647C105.431 309.567 117.408 300.888 127.581 289.72C129.747 287.344 132.425 286.396 135.661 286.737C140.016 287.196 144.38 287.644 148.751 287.817C158.829 288.216 168.837 287.431 178.743 285.485C206.877 279.961 230.94 266.883 250.689 246.127C272.432 223.273 284.673 196.029 287.467 164.577C288.703 150.64 287.72 136.841 284.528 123.236C278.092 95.8254 264.464 72.5573 243.561 53.704C219.788 32.26 191.764 20.768 159.804 19.0387C147.921 18.3947 136.128 19.4254 124.495 22.0334C98.908 27.768 76.848 39.96 58.2774 58.4214C47.424 69.2107 38.7133 81.5653 32.0853 95.3707C24.2667 111.655 19.9254 128.837 19.0534 146.863C18.476 158.796 19.432 170.625 22.0173 182.316C27.5693 207.437 39.3254 229.208 57.2947 247.597C67.7627 258.309 79.7667 266.952 93.1587 273.667C96.9107 275.548 98.8507 279.539 98.0213 283.585C95.672 295.039 90.9814 305.465 84.2307 314.984C83.1974 316.44 82.108 317.857 81.044 319.292ZM429.72 428.832C427.631 428.564 425.541 428.295 423.452 428.028C410.541 426.377 398.475 422.161 387.068 415.984C376.164 410.079 366.401 402.644 357.615 393.903C357.24 393.529 356.487 393.372 355.916 393.384C349.188 393.531 342.452 394.048 335.737 393.852C318.024 393.336 300.935 389.609 284.5 382.972C264.597 374.933 247.152 363.209 232.187 347.831C218.653 333.925 208.187 317.985 200.717 300.077C200.541 299.656 200.349 299.241 200.147 298.784C196.744 299.709 193.397 300.68 190.02 301.527C179.115 304.261 168.04 305.857 156.791 305.891C150.945 305.908 145.096 305.571 139.253 305.304C138.193 305.256 137.56 305.647 136.872 306.327C123.94 319.109 109.117 328.956 91.944 335.115C79.5067 339.575 66.6734 341.393 53.484 340.723C49.32 340.511 45.96 337.793 44.952 333.848C43.9547 329.948 45.6654 326.104 49.2307 323.759C62.5307 315.007 72.2787 303.356 77.8933 288.371C78.6067 286.467 78.576 286.475 76.8387 285.444C40.7907 264.065 17.0667 233.228 5.90268 192.815C3.04668 182.477 1.52401 171.904 1.00001 161.185C-0.298656 134.619 4.79999 109.344 16.7267 85.5787C31.7347 55.6694 54.2133 33.0014 83.9174 17.5507C97.9654 10.2427 112.849 5.38799 128.46 2.80533C140.748 0.771992 153.113 0.254664 165.541 1.26C191.524 3.36133 215.427 11.5414 237.175 25.88C259.347 40.4987 276.573 59.6494 288.871 83.1907C290.873 87.0214 292.551 91.0227 294.38 94.9453C294.553 95.3147 294.737 95.68 294.94 96.0947C298.213 95.1933 301.432 94.2587 304.676 93.4254C319.023 89.7387 333.613 88.1894 348.396 88.944C386.169 90.872 418.985 104.745 446.476 130.687C470.436 153.296 485.472 180.991 491.589 213.385C492.833 219.975 493.213 226.728 493.997 233.405C494.049 233.849 494.16 234.285 494.243 234.725V248.017C494.161 248.461 494.031 248.903 494.007 249.351C493.585 257.791 492.532 266.151 490.644 274.391C481.344 315.015 459.183 346.711 424.416 369.628C421.847 371.323 419.177 372.865 416.208 374.691C417.993 378.524 419.553 382.472 421.599 386.149C427.536 396.829 435.724 405.444 446.081 411.973C449.307 414.008 450.839 417.631 450.148 421.419C449.5 424.984 446.613 427.819 442.912 428.543C442.659 428.592 442.424 428.733 442.181 428.832H429.72Z" fill="#EC2027"/>
<path d="M108.232 141.825H76.3467V214.557H108.232V141.825ZM187.236 212.534C199.971 212.534 212.707 212.535 225.442 212.526C226.035 212.526 226.65 212.498 227.218 212.346C228.532 211.994 229.525 210.662 229.516 209.385C229.508 208.1 228.514 206.786 227.202 206.423C226.677 206.279 226.115 206.249 225.567 206.206C221.899 205.916 218.698 203.337 217.667 199.83C216.594 196.177 217.914 192.155 220.92 189.951C222.53 188.771 224.336 188.228 226.336 188.144C228.112 188.069 229.475 186.665 229.512 185.083C229.549 183.454 228.158 182.054 226.323 181.881C226.093 181.859 225.861 181.854 225.632 181.837C220.145 181.446 216.305 176.246 217.534 170.877C218.474 166.769 221.65 164.115 225.995 163.807C228.075 163.659 229.525 162.357 229.516 160.644C229.508 158.933 228.069 157.653 225.977 157.495C225.84 157.485 225.701 157.469 225.564 157.46C220.853 157.108 217.32 153.191 217.341 148.342C217.36 143.627 220.973 139.762 225.65 139.441C226.153 139.406 226.667 139.373 227.151 139.245C228.485 138.891 229.479 137.637 229.517 136.333C229.555 135.05 228.615 133.707 227.283 133.334C226.587 133.139 225.832 133.093 225.103 133.091C209.184 133.079 193.263 132.983 177.347 133.142C172.56 133.19 167.696 129.531 167.787 123.554C167.86 118.711 167.802 113.865 167.802 109.021C167.802 98.1315 167.82 87.2435 167.789 76.3542C167.781 73.7395 166.832 71.4621 164.69 69.8661C163.057 68.6488 161.609 69.3195 161.358 71.3235C161.272 72.0075 161.267 72.7035 161.266 73.3942C161.261 82.8062 161.228 92.2195 161.274 101.631C161.308 109.118 158.904 115.563 153.741 121.077C144.821 130.602 136.034 140.249 127.222 149.874C126.806 150.327 126.47 151.057 126.47 151.659C126.429 168.546 126.445 185.433 126.42 202.319C126.418 203.171 126.687 203.638 127.438 204.041C130.32 205.586 133.19 207.159 136.021 208.799C140.48 211.383 145.269 212.562 150.414 212.546C162.688 212.509 174.963 212.534 187.236 212.534ZM122.503 128.174C127.768 122.466 132.926 116.874 138.084 111.282C138.99 110.298 139.868 109.289 140.802 108.331C142.441 106.651 143.137 104.641 143.133 102.317C143.116 92.3035 143.084 82.2888 143.144 72.2755C143.178 66.6568 144.729 61.5009 148.681 57.3422C156.432 49.1849 169.514 49.1248 177.758 57.1915C183.198 62.5115 185.936 69.0422 185.965 76.6448C186.009 88.8275 185.977 101.01 185.977 113.193V115.065H187.808C200.546 115.065 213.282 115.063 226.02 115.066C236.97 115.067 245.774 122.49 247.375 133.274C248.114 138.253 247.198 143.025 244.466 147.329C243.913 148.199 243.985 148.778 244.481 149.645C248.705 157.033 248.704 164.453 244.397 171.81C243.927 172.612 243.953 173.103 244.407 173.887C248.731 181.355 248.723 188.855 244.332 196.291C243.86 197.089 244 197.557 244.414 198.243C252.012 210.821 245.347 226.747 231.068 230.093C229.601 230.435 228.056 230.589 226.548 230.59C200.658 230.619 174.767 230.626 148.878 230.602C141.493 230.596 134.585 228.653 128.102 225.154C127.25 224.696 126.408 224.222 125.854 223.918C124.164 225.902 122.714 227.993 120.881 229.665C118.455 231.877 115.4 232.774 112.088 232.771C98.8435 232.758 85.5972 232.772 72.3519 232.764C64.6785 232.76 58.2457 226.584 58.1631 218.878C58.0444 207.851 58.115 196.822 58.111 185.793C58.107 170.057 58.0961 154.321 58.1175 138.586C58.1268 131.497 62.2663 125.861 68.7516 124.163C70.1583 123.795 71.664 123.674 73.1253 123.67C85.632 123.633 98.1395 123.711 110.646 123.615C115.219 123.581 119.186 124.785 122.503 128.174Z" fill="#EC2027"/>
</svg>
