<?xml version="1.0" encoding="utf-8"?>
<!-- Generator: Adobe Illustrator 28.1.0, SVG Export Plug-In . SVG Version: 6.00 Build 0)  -->
<svg version="1.1" id="Layer_1" xmlns="http://www.w3.org/2000/svg" xmlns:xlink="http://www.w3.org/1999/xlink" x="0px" y="0px"
	 viewBox="0 0 403.1 329" style="enable-background:new 0 0 403.1 329;" xml:space="preserve">
<style type="text/css">
	.st0{fill:#EB2127;}
	.st1{fill:none;stroke:#ED1C24;stroke-width:5.7352;stroke-miterlimit:10;}
</style>
<g>
	<g>
		<path class="st0" d="M55.6,93.6c-3.5,0-6.9-0.3-10.1-1c-3.2-0.7-6.3-1.7-9.1-3c-2.8-1.3-5.4-3-7.8-5l6.4-9.6
			c2.8,2.4,6,4.2,9.5,5.4c3.5,1.2,7.2,1.8,11.1,1.8c4.9,0,8.7-0.9,11.4-2.6c2.7-1.7,4-4.2,4-7.4v-0.1c0-2.4-0.7-4.3-2-5.6
			c-1.4-1.3-3.1-2.3-5.4-2.9C61.4,63,59,62.5,56.4,62c-2.8-0.4-5.6-1-8.5-1.6s-5.5-1.7-7.9-3.1c-2.4-1.4-4.3-3.4-5.8-6
			c-1.5-2.6-2.2-6.1-2.2-10.4v-0.1c0-7,2.3-12.4,6.9-16.2c4.6-3.8,11.1-5.7,19.5-5.7c3.9,0,7.8,0.6,11.8,1.9
			c3.9,1.3,7.7,3.2,11.2,5.7l-5.8,9.9c-2.8-2-5.7-3.6-8.6-4.6c-2.9-1-5.8-1.5-8.6-1.5c-4.6,0-8.2,0.8-10.7,2.5
			C45.3,34.6,44,37,44,40.1v0.1c0,2.5,0.7,4.5,2.2,5.8c1.5,1.3,3.4,2.3,5.8,2.9c2.4,0.6,5,1.2,7.8,1.8c2.7,0.5,5.5,1.2,8.2,2
			c2.7,0.8,5.2,1.9,7.5,3.3c2.2,1.4,4,3.4,5.4,6c1.4,2.5,2,5.8,2,9.9v0.1c0,6.9-2.4,12.2-7.2,16C71,91.7,64.3,93.6,55.6,93.6z"/>
		<path class="st0" d="M111.7,93.5c-5.9,0-10.5-1.7-13.7-5c-3.2-3.4-4.9-8.1-4.9-14.2v-7.2c0-6,1.6-10.7,4.9-14
			c3.2-3.3,7.8-5,13.7-5c5.9,0,10.5,1.7,13.7,5c3.2,3.3,4.9,8,4.9,14v7.3c0,6.1-1.6,10.8-4.9,14.1C122.2,91.8,117.6,93.5,111.7,93.5
			z M111.7,83.8c2.7,0,4.8-0.8,6.2-2.5c1.5-1.6,2.2-3.9,2.2-6.9v-7.3c0-2.9-0.7-5.2-2.2-6.8c-1.5-1.6-3.6-2.4-6.2-2.4
			c-2.7,0-4.7,0.8-6.2,2.4s-2.2,3.9-2.2,6.8v7.3c0,2.9,0.7,5.2,2.2,6.9C107,82.9,109.1,83.8,111.7,83.8z"/>
		<path class="st0" d="M160,93.5c-6.2,0-11-1.7-14.4-5.2c-3.4-3.5-5.1-8.3-5.1-14.6v-6c0-6.2,1.7-11.1,5.1-14.5
			c3.4-3.4,8.2-5.1,14.4-5.1c3.5,0,6.7,0.6,9.6,1.8c2.8,1.2,5.1,3,6.8,5.2l-6.9,6.5c-1.1-1.2-2.5-2.2-4-2.8c-1.6-0.7-3.2-1-4.9-1
			c-3.1,0-5.6,0.9-7.3,2.6c-1.7,1.7-2.6,4.2-2.6,7.3v6c0,3.2,0.9,5.7,2.6,7.4c1.7,1.8,4.2,2.6,7.3,2.6c1.7,0,3.4-0.4,4.9-1.1
			c1.6-0.7,2.9-1.7,4-3l6.9,6.9c-1.7,2.2-4,3.9-6.8,5.1C166.7,92.9,163.5,93.5,160,93.5z"/>
		<path class="st0" d="M184.8,41.2V31.1H195v10.2H184.8z M184.8,92.9V48.7H195v44.1H184.8z"/>
		<path class="st0" d="M220,93.5c-5,0-8.8-1.1-11.4-3.4c-2.5-2.2-3.8-5.7-3.8-10.3c0-4.4,1.3-7.7,3.8-9.8c2.5-2.2,6.4-3.3,11.5-3.3
			H232l0.6,7.9h-12.4c-2,0-3.5,0.4-4.5,1.3c-1,0.9-1.5,2.2-1.5,3.9c0,1.8,0.7,3.2,2,4.1c1.3,0.9,3.3,1.3,5.9,1.3
			c3.2,0,5.6-0.4,7.2-1.1c1.6-0.7,2.4-1.8,2.4-3.3l0.9,6.3c-0.5,1.4-1.3,2.6-2.6,3.5c-1.2,0.9-2.7,1.6-4.4,2.1
			C223.8,93.3,222,93.5,220,93.5z M231.6,92.9v-28c0-2.5-0.7-4.4-2.2-5.7s-3.5-2-6.2-2c-1.7,0-3.4,0.3-5,0.8
			c-1.6,0.5-3.1,1.3-4.4,2.3l-6.8-5.7c1.7-2,4-3.6,6.8-4.7c2.8-1.1,5.9-1.7,9.3-1.7c5.7,0,10,1.4,13.2,4.3c3.1,2.9,4.7,6.9,4.7,12.1
			v28.3H231.6z"/>
		<path class="st0" d="M263.5,31.1v48.8c0,1,0.3,1.9,0.8,2.5c0.5,0.6,1.3,0.9,2.3,0.9h3V93h-5.5c-3.4,0-6-1-7.9-3.1
			c-1.9-2-2.8-4.9-2.8-8.6V31.1H263.5z"/>
		<path class="st0" d="M58.5,168.7l15-41.2h11.7v61.8h-9.5v-47.1l0.4,2.7l-13.5,36.7h-8.2l-13.5-35.8l0.4-3.6v47.1h-9.5v-61.8h11.7
			L58.5,168.7z"/>
		<path class="st0" d="M117.2,189.9c-6.3,0-11.1-1.7-14.6-5.1c-3.5-3.4-5.2-8.3-5.2-14.6v-5c0-6.6,1.7-11.7,5-15.3
			c3.3-3.6,8-5.4,14-5.4c5.7,0,10.1,2.1,13.2,6.3c3.1,4.2,4.7,10.1,4.7,17.7v2.9h-30v-7.4h20.5l0-0.5c-0.3-3.1-1.1-5.4-2.6-7.2
			c-1.4-1.7-3.4-2.6-5.8-2.6c-3,0-5.4,1-7.1,2.9c-1.7,1.9-2.5,4.6-2.5,8.1v5.6c0,3.3,0.9,5.9,2.7,7.7c1.8,1.8,4.4,2.7,7.6,2.7
			c1.7,0,3.3-0.3,5-1c1.6-0.6,3.1-1.5,4.4-2.7l6.6,6.2c-2.2,2.1-4.8,3.7-7.5,4.9C122.9,189.4,120.1,189.9,117.2,189.9z"/>
		<path class="st0" d="M159.2,190c-4.8,0-8.5-1.6-11.1-4.8c-2.6-3.2-3.9-7.8-3.9-13.7v-8.4c0-5.9,1.3-10.5,3.9-13.7
			c2.6-3.2,6.2-4.9,10.9-4.9c2.5,0,4.7,0.7,6.8,2.1c2.1,1.4,3.7,3.3,5,5.9l-0.9,9.4c0-1.7-0.3-3.1-0.9-4.3s-1.5-2.1-2.6-2.7
			c-1.1-0.6-2.5-0.9-4.1-0.9c-2.5,0-4.5,0.8-5.9,2.4c-1.4,1.6-2.1,3.9-2.1,6.9v8.3c0,2.9,0.7,5.2,2.1,6.8c1.4,1.6,3.3,2.4,5.9,2.4
			c1.6,0,3-0.3,4.1-1c1.1-0.6,2-1.6,2.6-2.7s0.9-2.6,0.9-4.3l0.6,9.7c-0.8,2.2-2.2,4-4.1,5.5S162.1,190,159.2,190z M169.9,189.3
			v-61.8H180v61.8H169.9z"/>
		<path class="st0" d="M192,137.7v-10.2h10.1v10.2H192z M192,189.3v-44.1h10.1v44.1H192z"/>
		<path class="st0" d="M227.2,189.9c-5,0-8.8-1.1-11.4-3.4c-2.5-2.2-3.8-5.7-3.8-10.3c0-4.4,1.3-7.7,3.8-9.8
			c2.5-2.2,6.4-3.3,11.5-3.3h11.8l0.6,7.9h-12.4c-2,0-3.5,0.4-4.5,1.3c-1,0.9-1.5,2.2-1.5,3.9c0,1.8,0.7,3.2,2,4.1
			c1.3,0.9,3.3,1.3,5.9,1.3c3.2,0,5.6-0.4,7.2-1.1c1.6-0.7,2.4-1.8,2.4-3.3l0.9,6.3c-0.5,1.4-1.3,2.6-2.6,3.5
			c-1.2,0.9-2.7,1.6-4.4,2.1C231,189.7,229.2,189.9,227.2,189.9z M238.8,189.3v-28c0-2.5-0.7-4.4-2.2-5.7s-3.5-2-6.2-2
			c-1.7,0-3.4,0.3-5,0.8c-1.6,0.5-3.1,1.3-4.4,2.3l-6.8-5.7c1.7-2,4-3.6,6.8-4.7c2.8-1.1,5.9-1.7,9.3-1.7c5.7,0,10,1.4,13.2,4.3
			c3.1,2.9,4.7,6.9,4.7,12.1v28.3H238.8z"/>
		<path class="st0" d="M32,288.1v-63.2h10.4v63.2H32z M39.1,276.3L39,261.9l26.6-37h13L39.1,276.3z M68.8,288.1l-19.2-32.9l8.6-6.5
			l23.1,39.3H68.8z"/>
		<path class="st0" d="M87.8,236.5v-10.2h10.1v10.2H87.8z M87.8,288.1V244h10.1v44.1H87.8z"/>
		<path class="st0" d="M106.5,252.9V244h20.7v8.9H106.5z M121.8,288.3c-3.8,0-6.5-1-8.2-3c-1.7-2-2.5-4.9-2.5-8.7v-45.5h10.2v44.1
			c0,1,0.2,1.9,0.6,2.5c0.4,0.6,1,0.9,1.9,0.9h3.5v9.7H121.8z"/>
	</g>
</g>
<path class="st0" d="M369.7,311.2h-67.9c-10.5,0-19-8.5-19-19V102.2c0-10.5,8.5-19,19-19h67.9c10.5,0,19,8.5,19,19v189.9
	C388.6,302.7,380.1,311.2,369.7,311.2z"/>
<path class="st1" d="M365.6,322.7H43.4c-18.1,0-32.8-14.7-32.8-32.8V40.5c0-18.1,14.7-32.8,32.8-32.8h322.2
	c18.1,0,32.8,14.7,32.8,32.8V290C398.4,308.1,383.7,322.7,365.6,322.7z"/>
</svg>
