<svg viewBox="0 0 499 499" fill="none" xmlns="http://www.w3.org/2000/svg">
<path d="M477.093 250.195C479.645 127.106 375.389 23.1194 253.116 21.3474C124.862 19.4887 22.593 125.53 21.181 246.213C19.6836 374.089 126.104 476.055 245.554 477.593C373.397 479.239 478.973 373.063 477.093 250.195ZM498.713 249.867C498.626 387.481 387.194 498.739 249.436 498.755C110.009 498.771 -0.167065 387.366 0.0276013 246.559C0.215601 110.103 112.745 -0.135308 251.626 0.0833592C387.93 0.296692 498.801 112.377 498.713 249.867Z" fill="#EC2027"/>
<path d="M286.296 239.415C265.22 263.722 239.634 267.866 220.61 250.365C204.26 235.325 203.455 208.277 218.871 192.029C234.743 175.301 260.132 174.993 276.542 191.335C273.846 196.31 271.15 201.283 268.232 206.667H311.01C306.928 191.402 303.078 177.005 298.844 161.173C294.914 166.545 292.204 170.247 289.562 173.858C252.642 150.195 214.151 157.346 195.45 190.649C178.544 220.754 190.532 259.393 221.547 274.759C251.787 289.742 289.25 277.246 301.979 247.27C296.752 244.651 291.472 242.007 286.296 239.415ZM248.132 325.374C208.022 325.374 167.912 325.406 127.803 325.361C109.679 325.339 101.882 318.058 101.822 300.155C101.64 246.409 101.644 192.661 101.824 138.914C101.879 122.637 109.784 114.341 126.234 114.29C208.458 114.042 290.683 114.029 372.907 114.309C389.254 114.363 397.063 122.769 397.12 139.191C397.308 192.937 397.292 246.685 397.132 300.431C397.08 317.658 389.15 325.325 372.071 325.351C330.758 325.418 289.444 325.373 248.132 325.374Z" fill="#EC2027"/>
<path d="M280.067 337.701V358.47C299.513 358.47 318.208 358.456 336.903 358.478C342.912 358.486 349.475 357.116 354.761 359.1C359.319 360.809 365.156 366.214 365.419 370.306C365.693 374.59 360.717 380.154 356.647 383.43C354.084 385.492 348.965 384.641 344.993 384.644C281.28 384.7 217.565 384.692 153.851 384.662C150.256 384.661 145.512 385.724 143.312 383.886C138.987 380.273 134.045 375.36 133.064 370.269C131.651 362.937 137.207 358.637 144.867 358.594C165.303 358.477 185.739 358.53 206.175 358.444C210.079 358.428 213.981 358.082 218.548 357.856C218.932 350.797 219.271 344.573 219.645 337.701H280.067Z" fill="#EC2027"/>
</svg>
