<svg viewBox="0 0 101 100" fill="none" xmlns="http://www.w3.org/2000/svg">
<circle cx="50.0273" cy="50" r="50" fill="#1DA6E1"/>
<path d="M33.5332 53.0099L39.4839 69.4804C39.4839 69.4804 40.2279 71.0215 41.025 71.0215C41.8211 71.0215 53.6694 58.6949 53.6694 58.6949L66.8462 33.2456L33.7458 48.7596L33.5332 53.0099Z" fill="#C6E0EE"/>
<path d="M41.4238 57.234L40.2817 69.3741C40.2817 69.3741 39.8035 73.0939 43.5223 69.3741C47.2412 65.6553 50.8015 62.7867 50.8015 62.7867L41.4238 57.234Z" fill="#A1CCDB"/>
<path d="M33.6423 53.597L21.4036 49.6086C21.4036 49.6086 19.9418 49.0153 20.4113 47.6695C20.508 47.3922 20.7031 47.1564 21.2877 46.7487C24.0007 44.8588 71.4877 27.7902 71.4877 27.7902C71.4877 27.7902 72.8287 27.339 73.621 27.6385C73.9833 27.7757 74.2142 27.9313 74.4094 28.4975C74.4799 28.7042 74.5205 29.1419 74.5157 29.5777C74.5118 29.8926 74.4732 30.1835 74.4442 30.6405C74.1553 35.3071 65.5012 70.1352 65.5012 70.1352C65.5012 70.1352 64.9843 72.1728 63.1282 72.2424C62.4519 72.2675 61.6307 72.1313 60.649 71.2859C57.0084 68.1545 44.4239 59.6975 41.6432 57.8376C41.4867 57.7323 41.4423 57.596 41.4152 57.4637C41.3765 57.2675 41.5901 57.024 41.5901 57.024C41.5901 57.024 63.5022 37.5467 64.0848 35.5033C64.1302 35.3448 63.9601 35.2666 63.7302 35.3342C62.2751 35.8695 37.0461 51.8009 34.2616 53.5603C34.0993 53.6637 33.6423 53.597 33.6423 53.597Z" fill="white"/>
</svg>
