<svg viewBox="0 0 101 100" fill="none" xmlns="http://www.w3.org/2000/svg">
<path d="M100.027 50C100.027 77.6146 77.6419 100 50.0273 100C22.4137 100 0.0273438 77.6146 0.0273438 50C0.0273438 22.3854 22.4137 2.78789e-06 50.0273 2.78789e-06C77.6419 2.78789e-06 100.027 22.3854 100.027 50Z" fill="#110F0D"/>
<path d="M36.6831 70.0679C36.7428 70.1228 36.8025 70.1767 36.8623 70.2316C37.4161 70.6275 37.8168 71.1852 38.3465 71.61C39.9907 72.9305 41.84 73.6481 43.96 73.7791C48.984 74.0892 53.3626 70.3087 53.9299 65.3406C53.9569 65.0979 53.9482 64.8542 53.9482 64.6105C53.9482 49.6532 53.9482 34.6968 53.9482 19.7395C53.9482 18.73 53.9482 18.73 54.9528 18.73C57.226 18.73 59.4991 18.7281 61.7712 18.732C61.9841 18.732 62.2076 18.6915 62.4021 18.8264C62.4137 18.8379 62.4272 18.8485 62.4416 18.8572C62.5505 18.9699 62.5832 19.1134 62.615 19.2608C63.4867 23.2917 65.6076 26.5087 68.9354 28.9369C69.1435 29.0882 69.3168 29.2789 69.5162 29.4397C69.6617 29.563 69.8061 29.6853 69.9516 29.8086C70.4881 30.113 70.8676 30.6032 71.3338 30.9924C73.1734 32.5258 75.251 33.5824 77.5675 34.1786C77.7717 34.2316 78.0048 34.2277 78.1531 34.4213C78.1637 34.4348 78.1762 34.4454 78.1907 34.4531C78.3265 34.5976 78.3034 34.7806 78.3034 34.953C78.3063 37.5902 78.3072 40.2274 78.3034 42.8637C78.3024 43.4676 78.2225 43.4984 77.6128 43.4994C75.6806 43.5022 73.7841 43.2412 71.9069 42.8116C68.6792 42.0738 65.7001 40.761 62.9377 38.9464C62.7941 38.852 62.641 38.6497 62.4878 38.7191C62.2923 38.8077 62.3944 39.0591 62.3944 39.2373C62.3896 46.6605 62.4224 54.0848 62.38 61.509C62.3491 66.6987 60.6992 71.3422 57.3011 75.297C53.692 79.4985 49.1073 81.9373 43.6026 82.6096C39.3617 83.1278 35.3366 82.3601 31.5175 80.4732C30.8992 80.1679 30.3078 79.8125 29.7559 79.3964C29.5815 79.2413 29.4081 79.0872 29.2338 78.9331C27.9171 77.8456 27.0011 76.4384 26.1458 74.9956C24.8292 72.7735 23.9748 70.3752 23.5578 67.8246C23.3198 66.3664 23.1985 64.8966 23.2784 63.4219C23.5385 58.6686 25.1374 54.4267 28.2032 50.7599C30.7749 47.6834 33.9852 45.5346 37.7696 44.2429C39.3492 43.7045 40.978 43.3693 42.6481 43.2518C42.9583 43.2306 43.2636 43.1565 43.5766 43.1767C43.725 43.1854 43.8771 43.1699 44.0033 43.273C44.0168 43.2865 44.0322 43.2961 44.0496 43.3048C44.1362 43.4541 44.1151 43.6198 44.1151 43.7796C44.117 46.4554 44.117 49.1321 44.116 51.8078C44.116 51.9022 44.1131 51.9966 44.1093 52.091C44.0958 52.3597 43.959 52.4493 43.7057 52.377C42.9737 52.169 42.2214 52.0736 41.4663 52.0332C40.2922 51.9706 39.1373 52.1382 38.0402 52.5427C34.3618 53.8998 32.1282 56.5342 31.662 60.4148C31.2026 64.2397 32.7119 67.2997 35.8942 69.5025C36.1601 69.6874 36.4346 69.8599 36.6831 70.0679Z" fill="white"/>
<path d="M29.7559 79.3956C29.8974 79.357 29.9784 79.4697 30.0776 79.5304C32.4701 80.9887 35.0505 81.9422 37.8148 82.3863C39.2057 82.6107 40.61 82.7041 42.0172 82.6309C46.7243 82.3863 50.9344 80.822 54.5772 77.8121C58.0822 74.9167 60.4122 71.2557 61.5776 66.8616C61.9456 65.4737 62.1478 64.0607 62.221 62.6245C62.2634 61.8001 62.2596 60.9756 62.2596 60.1511C62.2625 53.0765 62.2615 46.0019 62.2615 38.9273V38.4447C62.4455 38.3946 62.5293 38.5323 62.6314 38.6027C65.1501 40.3268 67.8769 41.604 70.8213 42.414C72.4385 42.859 74.0808 43.1566 75.7538 43.303C76.456 43.3647 77.1591 43.356 77.8603 43.4061C78.1676 43.4282 78.1714 43.4176 78.1753 43.0959C78.1791 42.7578 78.1762 42.4198 78.1762 42.0817C78.1762 39.6872 78.1762 37.2927 78.1762 34.8982C78.1772 34.7499 78.1859 34.6016 78.1907 34.4533C78.8206 34.5245 79.4419 34.6594 80.0766 34.7075C80.4686 34.7374 80.8597 34.773 81.2517 34.7615C81.4453 34.7557 81.5272 34.8241 81.505 35.0186C81.4963 35.0986 81.5041 35.1805 81.5041 35.2614V45.6503C81.5041 45.7177 81.506 45.7851 81.5041 45.8526C81.4954 46.154 81.4954 46.1608 81.1775 46.1598C80.0939 46.1569 79.0132 46.0857 77.9403 45.9441C75.748 45.6532 73.6165 45.1177 71.5553 44.3134C69.5827 43.5448 67.7228 42.5633 65.9784 41.3632C65.8706 41.289 65.7579 41.2206 65.5912 41.1127V41.5991C65.5912 49.1602 65.597 56.7212 65.5883 64.2822C65.5845 68.3112 64.5404 72.0561 62.3915 75.4715C59.7948 79.5969 56.1905 82.497 51.6106 84.1624C48.8299 85.1728 45.9538 85.56 42.9978 85.3413C38.0133 84.9743 33.7001 83.0711 30.0294 79.6922C29.9302 79.6007 29.8464 79.4948 29.7559 79.3956Z" fill="#EC1253"/>
<path d="M62.4022 18.8254C62.2539 18.8322 62.1065 18.8457 61.9582 18.8457C59.5223 18.8476 57.0873 18.8466 54.6514 18.8466C54.086 18.8466 54.086 18.8466 54.086 19.3937C54.086 34.2721 54.0841 49.1514 54.0899 64.0307C54.0899 65.0642 54.0138 66.0842 53.6902 67.0696C52.5459 70.5524 50.2111 72.8467 46.6406 73.6616C42.81 74.5352 39.5583 73.3669 36.9702 70.3983C36.9269 70.3492 36.8989 70.2866 36.8633 70.2307C37.603 70.5245 38.3418 70.8202 39.1277 70.9762C41.6243 71.4704 43.9764 71.0889 46.1426 69.753C48.6431 68.2109 50.1206 65.9532 50.6388 63.0694C50.737 62.5243 50.7524 61.9685 50.7524 61.4128C50.7495 46.5065 50.7495 31.5992 50.7515 16.692C50.7515 15.9966 50.6542 16.0842 51.3467 16.0832C54.7843 16.0804 58.221 16.0823 61.6586 16.0823C61.7395 16.0823 61.8214 16.0813 61.9023 16.0823C62.2539 16.0881 62.2606 16.0881 62.2587 16.4444C62.2548 17.242 62.2452 18.0385 62.4022 18.8254Z" fill="#4AC3C6"/>
<path d="M44.0025 43.2725C41.9027 43.3428 39.8482 43.6751 37.8516 44.3397C34.9668 45.2981 32.4038 46.8007 30.1692 48.8609C27.2363 51.5646 25.2357 54.8414 24.1425 58.67C23.7534 60.0339 23.527 61.4305 23.4278 62.8493C23.3681 63.7008 23.3498 64.5532 23.3951 65.4008C23.5213 67.7606 24.0096 70.0462 24.9073 72.2394C25.9109 74.6907 27.3152 76.882 29.1424 78.8006C29.1781 78.8392 29.2031 78.8883 29.233 78.9316C28.8178 78.7535 28.4846 78.452 28.1378 78.1765C24.7272 75.4738 22.324 72.066 21.0016 67.9128C20.5412 66.468 20.2541 64.9876 20.1154 63.4744C20.0143 62.3793 20.0008 61.2841 20.0721 60.1928C20.2358 57.678 20.832 55.2613 21.8713 52.9593C22.9568 50.5542 24.4382 48.4198 26.3222 46.5743C28.5154 44.4255 31.0572 42.815 33.9516 41.7738C35.7672 41.1208 37.6348 40.7259 39.5612 40.5843C40.9559 40.4831 42.3419 40.514 43.7289 40.6787C43.9158 40.7008 44.0265 40.7384 44.0217 40.9609C44.0073 41.7314 44.0073 42.502 44.0025 43.2725Z" fill="#4AC3C6"/>
<path d="M36.6848 70.0674C35.8372 69.685 35.1052 69.1331 34.4415 68.4945C32.7733 66.8889 31.7803 64.9307 31.5231 62.6297C30.9827 57.8022 34.0274 53.6364 38.2538 52.3447C40.0579 51.7938 41.8648 51.7745 43.6824 52.2629C43.7835 52.2898 43.8837 52.3332 43.9954 52.3033C44.0561 52.1588 44.0262 52.0086 44.0262 51.8622C44.0281 49.1576 44.0272 46.4529 44.0291 43.7473C44.0291 43.6 44.0436 43.4516 44.0513 43.3043C45.0944 43.233 46.1308 43.3264 47.1662 43.442C47.328 43.4603 47.3723 43.5364 47.3675 43.678C47.3646 43.7589 47.3675 43.8408 47.3675 43.9217C47.3675 47.5047 47.3685 51.0887 47.3656 54.6718C47.3656 54.8028 47.4022 54.9415 47.3165 55.0831C46.8445 54.9945 46.3812 54.8529 45.9006 54.7855C43.1333 54.3973 40.6358 55.0446 38.4426 56.7715C36.5153 58.2895 35.3306 60.2843 34.9318 62.7009C34.509 65.264 35.0397 67.6411 36.5143 69.7948C36.575 69.8834 36.628 69.9768 36.6848 70.0674Z" fill="#EC1253"/>
<path d="M69.5146 29.4395C68.4724 28.824 67.5603 28.0457 66.7204 27.1817C64.4675 24.8634 63.0449 22.1125 62.4419 18.9369C62.4371 18.9109 62.441 18.8839 62.44 18.8569C63.4119 18.8011 64.3847 18.8502 65.3575 18.8309C65.5299 18.8271 65.607 18.8954 65.5896 19.0688C65.5839 19.1362 65.5906 19.2046 65.5887 19.2721C65.5386 21.9969 66.3486 24.4858 67.6759 26.8302C68.1498 27.6672 68.7181 28.4397 69.3374 29.1755C69.4048 29.2564 69.5021 29.321 69.5146 29.4395Z" fill="#EC1253"/>
<path d="M78.1527 34.4199C75.3816 33.8276 72.9428 32.5783 70.8296 30.6972C70.5185 30.4198 70.1977 30.1492 69.9512 29.8072C70.0542 29.7966 70.1284 29.8602 70.2103 29.9064C71.8891 30.8658 73.6874 31.4976 75.5926 31.8126C76.3361 31.9359 77.0884 32.0158 77.8455 32.0091C78.1614 32.0062 78.1691 32.0177 78.1691 32.3182C78.1681 33.0185 78.1585 33.7197 78.1527 34.4199Z" fill="#4AC3C6"/>
</svg>
