<svg viewBox="0 0 587 458" fill="none" xmlns="http://www.w3.org/2000/svg">
<path d="M462.17 49.6803C462.135 38.199 454.118 30.135 442.746 30.1417C431.705 30.1483 422.817 38.907 422.901 49.6977C422.982 60.335 432.181 69.4523 442.805 69.427C454.006 69.399 462.205 61.039 462.17 49.6803ZM376.741 30.1417C366.031 29.9097 356.526 38.7856 356.306 49.2243C356.086 59.6083 365.371 69.1937 375.877 69.427C386.958 69.6737 395.754 61.211 395.918 50.1496C396.085 38.827 387.994 30.3857 376.741 30.1417ZM529.053 49.5883C528.966 38.6337 520.201 30.0803 509.129 30.1417C497.857 30.2043 489.699 38.4857 489.758 49.807C489.818 61.0537 498.217 69.4657 509.345 69.423C520.103 69.383 529.138 60.291 529.053 49.5883ZM25.6725 97.3857V109.087C25.6725 210.615 25.6658 312.143 25.6792 413.67C25.6818 430.42 27.2245 431.919 44.3219 431.919C211.227 431.926 378.133 431.927 545.038 431.919C560.822 431.918 563.558 429.143 563.561 413.084C563.574 311.556 563.567 210.028 563.567 108.5V97.3857H25.6725ZM586.758 32.4843V424.95C580.979 441.9 569.517 452.759 552.13 457.271H34.9978C17.5645 452.807 6.06985 441.983 0.367188 424.95V32.4843C6.06852 15.4497 17.4952 4.55232 34.9978 0.162991H552.13C569.682 4.49766 580.975 15.5403 586.758 32.4843Z" fill="#EC2027"/>
<path d="M278.608 184.321C268.358 181.242 264.688 183.973 263.302 192.522C261.354 204.536 257.89 216.297 255.226 228.2C250.944 247.324 246.785 266.474 242.444 286.206H255.672C263.342 252.132 270.926 218.442 278.608 184.321ZM230.408 185.564H203.226V284.632H230.408V185.564ZM389.848 186.864C396.85 198.517 403.293 210.681 411.156 221.844C416.857 229.936 416.934 236.094 411.226 244.264C402.424 256.862 394.992 270.42 387.014 283.513C408.793 289.844 423.633 284.674 430.637 263.453C431.626 260.461 433.946 257.908 436.956 253.04C445.864 276.332 457.214 294.036 485.562 283.029C477.082 269.244 468.957 255.372 460.12 241.968C456.241 236.085 456.009 231.502 459.868 225.498C468.056 212.761 475.502 199.55 483.573 185.997C454.053 182.474 454.068 182.482 441.565 206.312C440.26 208.798 438.65 211.125 435.728 215.906C428.581 191.844 416.85 177.3 389.848 186.864ZM376.522 185.77H347.269C347.269 191.932 347.286 197.254 347.265 202.577C347.205 217.954 347.298 233.334 346.997 248.706C346.817 257.868 341.685 263.05 332.544 263.176C323.678 263.298 318.078 258.641 316.81 249.676C316.33 246.28 316.646 242.768 316.644 239.308C316.636 221.398 316.64 203.489 316.64 185.788H287.664C287.664 207.353 287.057 228.064 287.862 248.718C288.465 264.126 294.521 277.866 310.048 283.409C318.417 286.397 328.133 286.397 337.241 286.392C359.862 286.376 375.161 272.525 376.298 249.826C377.352 228.782 376.522 207.644 376.522 185.77ZM153.554 185.448C153.554 190.102 153.566 194.22 153.552 198.338C153.497 214.846 153.594 231.358 153.314 247.862C153.153 257.36 148.222 262.988 138.417 263.225C129.101 263.452 123.218 257.448 122.801 247.145C122.458 238.712 122.7 230.254 122.694 221.808C122.689 209.688 122.693 197.569 122.693 185.506H95.6211C95.6211 210.522 94.0397 235.078 96.4811 259.229C97.3317 267.642 106.645 277.744 114.766 282.177C123.114 286.733 134.72 286.229 144.912 286.304C163.736 286.442 178.229 276.877 180.176 258.482C182.718 234.445 180.798 209.936 180.798 185.448H153.554ZM61.0117 130.042H521.18V324.868H61.0117V130.042Z" fill="#EC2027"/>
<path d="M413.59 367.188C443.952 367.188 474.329 367.723 504.669 366.922C516.593 366.607 523.465 374.342 523.95 383.611C524.452 393.239 516.424 399.832 504.516 399.844C444.176 399.911 383.837 399.919 323.498 399.842C310.521 399.824 304.689 394.5 304.774 383.431C304.861 372.274 310.572 367.244 323.658 367.211C353.636 367.136 383.613 367.188 413.59 367.188Z" fill="#EC2027"/>
<path d="M158.44 367.187C186.466 367.187 214.49 367.143 242.516 367.207C255.878 367.237 262.02 372.791 261.738 384.275C261.472 394.946 255.524 399.837 242.187 399.851C186.904 399.911 131.619 399.582 76.3418 400.083C62.5085 400.21 57.3018 392.437 56.8805 383.959C56.3498 373.29 63.6778 367.225 76.6685 367.202C103.924 367.154 131.183 367.187 158.44 367.187Z" fill="#EC2027"/>
</svg>
