<?xml version="1.0" encoding="utf-8"?>
<!-- Generator: Adobe Illustrator 28.1.0, SVG Export Plug-In . SVG Version: 6.00 Build 0)  -->
<svg version="1.1" id="Layer_1" xmlns="http://www.w3.org/2000/svg" xmlns:xlink="http://www.w3.org/1999/xlink" x="0px" y="0px"
	 viewBox="0 0 403.1 329" style="enable-background:new 0 0 403.1 329;" xml:space="preserve">
<style type="text/css">
	.st0{fill:#EB2127;}
</style>
<g>
	<path class="st0" d="M10.7,219.3c108.6,0,216.9,0,325.4,0c0.1-0.8,0.1-1.6,0.1-2.4c0-30.6,0-61.1,0-91.7c0-4.1,2.5-6.8,6-6.3
		c2.6,0.3,4.5,2.3,4.7,4.9c0.1,0.6,0,1.1,0,1.7c0,38.7,0,77.5,0,116.2c0,16.3-10.4,28.9-26.3,32c-2.1,0.4-4.4,0.5-6.5,0.5
		c-31.8,0-63.5,0-95.3,0c-0.8,0-1.6,0-2.6,0c0.2,0.7,0.3,1.2,0.5,1.6c2.3,5.5,4.7,11,6.9,16.5c0.5,1.1,1.1,1.5,2.2,1.5
		c7.2,0,14.4-0.1,21.7,0c11.2,0.1,19.1,9.1,17.7,20.2c-1,7.9-7.9,14.4-15.8,15c-0.9,0.1-1.9,0.1-2.8,0.1c-48.7,0-97.4,0-146.2,0
		c-7.7,0-13.5-3-17-10c-5.6-11.1,2.2-24.6,14.6-25.2c7.6-0.3,15.3-0.1,23-0.1c1.1,0,1.8-0.1,2.3-1.3c2.3-5.7,4.7-11.3,7.1-17
		c0.1-0.3,0.2-0.6,0.4-1.2c-1,0-1.7,0-2.5,0c-32,0-63.9,0-95.9,0c-15.7,0-28.5-10.3-31.8-25.5c-0.4-1.9-0.6-3.9-0.6-5.8
		c0-70.5,0-141,0-211.5C0,14.8,13.7,0.7,30.3,0.1c0.9,0,1.8,0,2.6,0c93.7,0,187.3,0,281,0.1c3.6,0,7.2,0.8,10.7,1.6
		c3.4,0.8,5,3.9,4.1,6.9c-0.9,2.9-3.9,4.1-7.2,3.3c-2.5-0.6-5.1-1.1-7.6-1.1c-93.9-0.1-187.7,0-281.6,0c-12.3,0-21.6,9.4-21.6,21.7
		c0,61.4,0,122.8,0,184.2C10.7,217.5,10.7,218.3,10.7,219.3z M336.5,230.2c-108.9,0-217.3,0-325.7,0c0,4.9-0.3,9.7,0.1,14.4
		c0.9,10.6,10.1,18.8,20.8,18.8c94.5,0,189.1,0,283.6,0c9.7,0,18.5-6.7,20.2-16.2C336.5,241.7,336.2,236,336.5,230.2z M173.5,304.5
		c-24.3,0-48.6,0-72.9,0c-0.6,0-1.3,0-1.9,0c-2.8,0.3-4.8,1.7-5.9,4.3c-1.1,2.6-0.6,5.1,1.3,7.2c1.6,1.8,3.7,2.3,6.1,2.3
		c48.8,0,97.5,0,146.3,0c0.6,0,1.1,0,1.7,0c3-0.3,5-1.8,6.1-4.7c1.7-4.7-1.9-9.1-7.2-9.1C222.6,304.5,198,304.5,173.5,304.5z
		 M212.4,293.7c-0.1-0.5-0.2-0.7-0.3-1c-2.4-5.8-4.9-11.6-7.2-17.4c-0.5-1.2-1.3-1.1-2.2-1.1c-19.5,0-38.9,0-58.4,0
		c-1.4,0-2,0.5-2.4,1.7c-2.2,5.4-4.5,10.8-6.8,16.1c-0.2,0.5-0.3,1-0.5,1.6C160.6,293.7,186.4,293.7,212.4,293.7z"/>
	<path class="st0" d="M217.7,193.7c-3.1,0-6.3,0.1-9.4,0c-4.3-0.2-6.7-4.5-4.4-8.2c6.8-10.8,10.4-22.7,12.4-35.2
		c2.2-13.2,8.1-24.5,18.6-33c7.3-5.9,15.8-8,25.1-6.5c1.8,0.3,2.8-0.2,3.9-1.6C290.4,77,317,44.9,343.5,12.8
		c15.1-18.3,43-16.2,55.1,4.1c8.3,14.1,4.9,32.3-8.2,42.9c-32.7,26.6-65.4,53.1-98.1,79.7c-1.4,1.1-1.8,2.2-1.7,3.9
		c0.3,19-8.7,32.4-25.2,41c-9.6,5-20,7.3-30.7,8.4c-5.7,0.6-11.4,0.8-17.1,1.2C217.7,194,217.7,193.8,217.7,193.7z M312.5,109.2
		c0.1-0.1,0.4-0.3,0.7-0.5c23.6-19.2,47.3-38.3,70.8-57.6c6.7-5.5,9.5-12.9,7.9-21.5c-1.8-9.4-7.6-15.6-16.9-17.9
		c-9.2-2.3-17.1,0.6-23.1,7.9c-17.4,20.9-34.7,42-52.1,63c-2.1,2.6-4.3,5.2-6.3,7.7C299.9,96.6,306.1,102.8,312.5,109.2z
		 M217.6,183.1c0.8,0,1.2,0.1,1.7,0.1c6.3-0.5,12.5-0.8,18.7-1.6c9-1.2,17.7-3.7,25.5-8.5c11.7-7.2,17.2-17.6,16.2-31.3
		c-0.1-1-0.6-2.2-1.4-2.9c-5.2-5.4-10.5-10.7-15.8-15.9c-0.8-0.7-1.8-1.3-2.9-1.6c-7-1.5-13.4,0-18.8,4.7c-8,6.9-12.4,16-14.2,26.3
		c-1.6,9.3-3.7,18.3-7.5,26.9C218.7,180.5,218.2,181.7,217.6,183.1z M286.3,99c-4.8,5.8-9.7,11.7-14.5,17.5
		c4.9,4.9,9.6,9.5,14.3,14.3c5.9-4.8,11.8-9.6,17.6-14.3C297.9,110.6,292.2,104.9,286.3,99z"/>
	<path class="st0" d="M70.6,32.7c11,0,22,0,32.9,0c4.8,0,6.8,1.9,6.8,6.7c0,17.1,0,34.3,0,51.4c0,4.7-2,6.7-6.6,6.7
		c-22.2,0-44.4,0-66.6,0c-4.4,0-6.5-2.1-6.5-6.4c0-17.3,0-34.6,0-52c0-4.3,2.1-6.4,6.3-6.4C48.1,32.6,59.4,32.7,70.6,32.7z
		 M99.4,86.7c0-14.5,0-28.7,0-43.1c-19.3,0-38.6,0-57.9,0c0,14.4,0,28.7,0,43.1C60.9,86.7,80,86.7,99.4,86.7z"/>
	<path class="st0" d="M163.5,97.5c-11,0-22.1,0-33.1,0c-4.7,0-6.6-1.9-6.6-6.6c0-17.3,0-34.6,0-52c0-4.2,2-6.2,6.2-6.2
		c22.4,0,44.8,0,67.2,0c4.2,0,6.2,2.1,6.2,6.3c0,17.4,0,34.8,0,52.1c0,4.3-2.1,6.3-6.4,6.3C185.8,97.5,174.7,97.5,163.5,97.5z
		 M192.5,86.7c0-14.5,0-28.7,0-43.1c-19.4,0-38.6,0-57.9,0c0,14.4,0,28.8,0,43.1C153.9,86.7,173.1,86.7,192.5,86.7z"/>
	<path class="st0" d="M70.4,124c-11.4,0-22.7,0-34.1,0c-4.2,0-6.8-3.5-5.4-7.2c0.8-2,2.2-3.2,4.3-3.4c0.7-0.1,1.4-0.1,2.1-0.1
		c22.1,0,44.2,0,66.2,0c1.1,0,2.3,0.1,3.3,0.4c2.3,0.8,3.6,3.3,3.2,5.6c-0.5,2.7-2.4,4.5-5.1,4.6c-2.4,0.1-4.9,0-7.3,0
		C88.6,124,79.5,124,70.4,124z"/>
	<path class="st0" d="M163.7,113.3c11.3,0,22.6,0,33.9,0c4.2,0,6.8,3.5,5.5,7.2c-0.8,2.2-2.7,3.5-5.3,3.5c-6,0-12,0-18.1,0
		c-16.7,0-33.4,0-50.1,0c-3.7,0-6.2-2.5-5.9-5.8c0.3-2.9,2.5-4.8,5.7-4.8c7.3,0,14.7,0,22,0C155.5,113.3,159.6,113.3,163.7,113.3z"
		/>
	<path class="st0" d="M153.2,148.1c-8,0-15.9,0-23.9,0c-2.3,0-4-1-5-3c-0.9-1.8-0.7-3.7,0.4-5.4c1.1-1.6,2.6-2.3,4.5-2.3
		c16.1,0,32.1,0,48.2,0c3.2,0,5.4,2.3,5.5,5.2c0,3.1-2.3,5.4-5.5,5.4C169.2,148.1,161.2,148.1,153.2,148.1z"/>
	<path class="st0" d="M60.1,148.1c-8,0-15.9,0-23.9,0c-2.2,0-3.9-0.9-5-2.8c-1-1.9-0.9-3.8,0.3-5.5c1-1.6,2.6-2.3,4.5-2.3
		c16.1,0,32.2,0,48.4,0c3.1,0,5.4,2.4,5.3,5.4c0,3-2.3,5.3-5.5,5.3C76.2,148.1,68.2,148.1,60.1,148.1z"/>
	<path class="st0" d="M173.5,252.9c-3.3,0-6.1-2.8-6.1-6.1c0-3.4,2.7-6.1,6-6.1c3.4,0,6.2,2.8,6.2,6.2
		C179.5,250.2,176.8,252.9,173.5,252.9z"/>
</g>
</svg>
