<svg viewBox="0 0 101 100" fill="none" xmlns="http://www.w3.org/2000/svg">
<g clip-path="url(#clip0_2250_2923)">
<path d="M85.0273 0H15.0273C6.74307 0 0.0273438 6.71573 0.0273438 15V85C0.0273438 93.2843 6.74307 100 15.0273 100H85.0273C93.3116 100 100.027 93.2843 100.027 85V15C100.027 6.71573 93.3116 0 85.0273 0Z" fill="#00C70A"/>
<path d="M78.543 72.0703C83.0352 68.75 85.9648 63.8672 85.9648 58.3984C85.9648 48.4375 76.1992 40.4297 64.2852 40.4297C52.3711 40.4297 42.8008 48.4375 42.8008 58.3984C42.8008 68.3594 52.3711 76.3672 64.2852 76.3672C66.8242 76.3672 69.168 75.9766 71.3164 75.3906C72.0977 75.1953 72.8789 75.3906 73.0742 75.5859L77.957 78.3203C78.543 78.7109 79.1289 78.3203 78.9336 77.5391L77.7617 73.2422C77.7617 72.6562 78.1523 72.2656 78.543 72.0703ZM57.0586 55.4688C56.6249 55.5836 56.1706 55.5973 55.7307 55.5089C55.2909 55.4204 54.8772 55.2321 54.5217 54.9584C54.1661 54.6848 53.8781 54.3331 53.68 53.9306C53.4818 53.5281 53.3788 53.0854 53.3788 52.6367C53.3788 52.1881 53.4818 51.7454 53.68 51.3428C53.8781 50.9403 54.1661 50.5887 54.5217 50.315C54.8772 50.0414 55.2909 49.853 55.7307 49.7646C56.1706 49.6761 56.6249 49.6898 57.0586 49.8047C57.6834 49.9702 58.236 50.3377 58.6302 50.8499C59.0244 51.3621 59.2382 51.9904 59.2382 52.6367C59.2382 53.2831 59.0244 53.9113 58.6302 54.4235C58.236 54.9358 57.6834 55.3033 57.0586 55.4688ZM71.5117 55.4688C71.078 55.5836 70.6237 55.5973 70.1839 55.5089C69.744 55.4204 69.3303 55.2321 68.9748 54.9584C68.6192 54.6848 68.3313 54.3331 68.1331 53.9306C67.935 53.5281 67.8319 53.0854 67.8319 52.6367C67.8319 52.1881 67.935 51.7454 68.1331 51.3428C68.3313 50.9403 68.6192 50.5887 68.9748 50.315C69.3303 50.0414 69.744 49.853 70.1839 49.7646C70.6237 49.6761 71.078 49.6898 71.5117 49.8047C72.1365 49.9702 72.6891 50.3377 73.0833 50.8499C73.4775 51.3621 73.6913 51.9904 73.6913 52.6367C73.6913 53.2831 73.4775 53.9113 73.0833 54.4235C72.6891 54.9358 72.1365 55.3033 71.5117 55.4688Z" fill="white"/>
<path d="M40.0664 20.5078C25.8086 20.5078 14.2852 30.2734 14.2852 42.1875C14.2852 48.6328 17.6055 54.4922 23.0742 58.3984C23.6602 58.7891 24.0508 59.375 23.8555 60.3516L22.4883 65.0391C22.293 66.0156 23.0742 66.4062 23.6602 66.2109L29.5195 62.8906C30.1055 62.5 30.8867 62.3047 31.668 62.5C36.7461 64.0625 41.043 63.6719 41.6289 63.6719C36.9414 47.2656 53.1523 37.8906 65.6523 38.6719C63.6992 28.5156 52.957 20.5078 40.0664 20.5078ZM31.4727 38.6719C30.9558 38.7963 30.4174 38.8019 29.898 38.6882C29.3786 38.5745 28.8918 38.3445 28.4742 38.0155C28.0565 37.6865 27.719 37.267 27.4869 36.7887C27.2548 36.3103 27.1342 35.7856 27.1342 35.2539C27.1342 34.7222 27.2548 34.1975 27.4869 33.7192C27.719 33.2408 28.0565 32.8214 28.4742 32.4923C28.8918 32.1633 29.3786 31.9333 29.898 31.8196C30.4174 31.7059 30.9558 31.7115 31.4727 31.8359C32.24 32.0207 32.9229 32.4583 33.4114 33.0783C33.8998 33.6983 34.1654 34.4646 34.1654 35.2539C34.1654 36.0432 33.8998 36.8095 33.4114 37.4295C32.9229 38.0495 32.24 38.4871 31.4727 38.6719ZM48.8555 38.6719C48.3386 38.7963 47.8002 38.8019 47.2808 38.6882C46.7614 38.5745 46.2746 38.3445 45.857 38.0155C45.4393 37.6865 45.1018 37.267 44.8697 36.7887C44.6376 36.3103 44.517 35.7856 44.517 35.2539C44.517 34.7222 44.6376 34.1975 44.8697 33.7192C45.1018 33.2408 45.4393 32.8214 45.857 32.4923C46.2746 32.1633 46.7614 31.9333 47.2808 31.8196C47.8002 31.7059 48.3386 31.7115 48.8555 31.8359C49.6228 32.0207 50.3057 32.4583 50.7942 33.0783C51.2826 33.6983 51.5482 34.4646 51.5482 35.2539C51.5482 36.0432 51.2826 36.8095 50.7942 37.4295C50.3057 38.0495 49.6228 38.4871 48.8555 38.6719Z" fill="white"/>
</g>
<defs>
<clipPath id="clip0_2250_2923">
<rect x="0.0273438" width="100" height="100" rx="50" fill="white"/>
</clipPath>
</defs>
</svg>
