<svg viewBox="0 0 553 508" fill="none" xmlns="http://www.w3.org/2000/svg">
<path d="M439.872 183.31V383.342H114.098V173.723H376.139C375.399 175.424 374.748 176.978 374.054 178.511C354.934 220.715 335.834 262.928 316.667 305.11C311.844 315.723 311.788 326.132 318.206 335.982C324.812 346.122 334.502 350.931 346.602 349.907C358.502 348.9 367.162 342.635 372.087 331.818C394.375 282.87 416.514 233.855 438.71 184.866C438.959 184.314 439.255 183.783 439.53 183.243L439.872 183.31Z" fill="#EC2027"/>
<path d="M448.396 163.487C450.772 158.239 453.593 151.939 456.509 145.683C456.744 145.181 457.623 144.707 458.213 144.692C461.707 144.604 465.205 144.625 468.701 144.668C477.48 144.776 483.964 151.071 484.375 159.861C484.419 160.792 484.405 161.725 484.405 162.657C484.407 244.705 484.407 326.753 484.407 408.801V412.247H69.4494C69.4494 411.303 69.4494 410.396 69.4494 409.488C69.4494 326.664 69.448 243.839 69.4534 161.015C69.4547 151.245 76.0534 144.668 85.8627 144.667C186.092 144.66 286.32 144.663 386.549 144.663C387.317 144.663 388.087 144.663 389.069 144.663C388.925 145.272 388.892 145.703 388.725 146.073C386.345 151.385 383.915 156.675 381.579 162.007C381.063 163.181 380.401 163.708 379.119 163.567C378.275 163.475 377.412 163.553 376.557 163.553C288.139 163.555 199.721 163.555 111.303 163.555C110.371 163.555 109.431 163.492 108.507 163.588C105.825 163.867 103.996 165.831 103.843 168.537C103.804 169.233 103.831 169.935 103.831 170.635C103.831 242.736 103.831 314.839 103.831 386.941C103.831 391.74 105.485 393.42 110.225 393.42C221.331 393.421 332.437 393.421 443.544 393.42C448.409 393.42 450.131 391.712 450.131 386.821C450.136 314.641 450.145 242.461 450.072 170.281C450.069 168.335 449.139 166.389 448.396 163.487Z" fill="#EC2027"/>
<path d="M548.277 482.035C546.891 482.035 546.202 482.035 545.514 482.035C527.569 482.034 509.622 482.007 491.678 482.072C489.859 482.079 488.711 481.528 487.613 480.075C481.529 472.019 475.304 464.068 469.212 456.018C467.579 453.859 465.695 452.839 462.914 452.84C338.539 452.883 214.163 452.878 89.7885 452.838C87.0565 452.836 85.1124 453.731 83.4524 455.931C77.2311 464.178 70.9125 472.35 64.5378 480.478C63.9298 481.254 62.6805 481.964 61.7258 481.97C43.5471 482.059 25.3685 482.038 7.19112 482.034C6.88579 482.034 6.58045 481.968 5.92578 481.892C6.40845 481.286 6.7111 480.814 7.10177 480.431C24.1458 463.758 41.1991 447.092 58.2524 430.428C59.0298 429.67 59.9898 429.043 60.5938 428.167C64.0725 423.127 68.9365 422.475 74.7205 422.482C211.292 422.623 347.864 422.596 484.436 422.543C486.719 422.543 488.283 423.24 489.895 424.823C508.572 443.158 527.325 461.418 546.053 479.7C546.649 480.282 547.203 480.906 548.277 482.035Z" fill="#EC2027"/>
<path d="M510.245 24.9863C514.221 31.3583 516.574 37.7863 517.719 44.657C521.422 66.8783 511.449 88.5996 492.173 100.221C484.302 104.965 475.677 107.329 466.538 107.773C463.693 107.912 461.974 109.198 460.831 111.73C449.335 137.193 437.805 162.641 426.273 188.088C409.263 225.622 392.243 263.152 375.231 300.686C371.163 309.662 367.118 318.65 363.039 327.622C359.343 335.749 351.162 340.74 342.686 340.077C333.835 339.385 326.583 333.642 324.167 325.398C322.613 320.096 323.197 314.992 325.469 309.985C337.27 283.978 349.031 257.952 360.819 231.938C381.545 186.204 402.266 140.466 423.043 94.7543C424.293 92.0023 423.979 89.8476 422.123 87.4876C404.805 65.4663 406.363 35.553 425.99 15.5463C433.969 7.41296 443.717 2.38898 455.49 0.335643C454.939 1.55298 454.543 2.42096 454.154 3.29296C448.551 15.8356 442.971 28.3876 437.329 40.913C436.277 43.2503 436.342 45.325 437.775 47.497C442.782 55.0783 447.767 62.6756 452.639 70.3436C454.322 72.9916 456.482 73.9343 459.515 73.485C468.578 72.1396 477.647 70.8423 486.722 69.589C489.214 69.245 490.751 67.949 491.769 65.6863C497.465 53.0156 503.219 40.3716 508.957 27.721C509.306 26.9503 509.677 26.1916 510.245 24.9863Z" fill="#EC2027"/>
<path d="M0.644531 492.666H552.799C551.363 495.85 549.053 498.196 546.561 500.335C541.31 504.84 535.155 507.159 528.251 507.487C526.933 507.55 525.611 507.546 524.291 507.546C358.887 507.547 193.483 507.54 28.0792 507.564C17.3365 507.567 8.58586 503.69 2.11386 494.996C1.6232 494.339 1.23386 493.607 0.644531 492.666Z" fill="#EC2027"/>
<path d="M475.305 480.375H77.6406C77.99 479.757 78.2126 479.228 78.5499 478.787C82.2793 473.915 85.9833 469.023 89.8139 464.232C90.3846 463.52 91.5393 463.06 92.4886 462.917C93.9313 462.7 95.4313 462.861 96.9073 462.861C217.554 462.861 338.199 462.868 458.846 462.808C461.031 462.808 462.381 463.439 463.663 465.184C467.334 470.183 471.195 475.041 475.305 480.375Z" fill="#EC2027"/>
</svg>
