<svg viewBox="0 0 102 102" fill="none" xmlns="http://www.w3.org/2000/svg">
<path d="M51.0273 1C78.641 1 101.027 23.3854 101.027 51C101.027 78.6136 78.641 101 51.0273 101C23.4128 101 1.02734 78.6136 1.02734 51C1.02734 23.3854 23.4128 1 51.0273 1Z" fill="#110F0D"/>
<path d="M51.0273 1C78.641 1 101.027 23.3854 101.027 51C101.027 78.6136 78.641 101 51.0273 101C23.4128 101 1.02734 78.6136 1.02734 51C1.02734 23.3854 23.4128 1 51.0273 1Z" stroke="white" stroke-width="0.144" stroke-miterlimit="10"/>
<path d="M28.1872 26.0177H36.6488L74.0166 75.9802H65.554L28.1872 26.0177ZM20.2274 22.0311L44.126 53.9858L20.0762 79.9668H25.4893L46.5455 57.2202L63.5573 79.9668H81.9773L56.7331 46.2148L79.1186 22.0311H73.7055L54.3146 42.9804L38.6464 22.0311H20.2274Z" fill="white"/>
</svg>
