<svg viewBox="0 0 101 100" fill="none" xmlns="http://www.w3.org/2000/svg">
<circle cx="50.0273" cy="50" r="50" fill="#ED1E24"/>
<path fill-rule="evenodd" clip-rule="evenodd" d="M43.1741 57.7984L43.1721 39.822L60.3369 48.8412L43.1741 57.7984ZM80.8629 36.707C80.8629 36.707 80.2415 32.2984 78.3376 30.357C75.9215 27.8078 73.2135 27.7957 71.9727 27.6478C63.0826 27 49.7474 27 49.7474 27H49.7196C49.7196 27 36.3843 27 27.4942 27.6478C26.2514 27.7957 23.5454 27.8078 21.1274 30.357C19.2235 32.2984 18.604 36.707 18.604 36.707C18.604 36.707 17.9688 41.8854 17.9688 47.0618V51.9163C17.9688 57.0947 18.604 62.271 18.604 62.271C18.604 62.271 19.2235 66.6797 21.1274 68.6211C23.5454 71.1703 26.7199 71.0903 28.1334 71.3562C33.2158 71.8481 49.7335 72 49.7335 72C49.7335 72 63.0826 71.98 71.9727 71.3322C73.2135 71.1823 75.9215 71.1703 78.3376 68.6211C80.2415 66.6797 80.8629 62.271 80.8629 62.271C80.8629 62.271 81.4982 57.0947 81.4982 51.9163V47.0618C81.4982 41.8854 80.8629 36.707 80.8629 36.707Z" fill="white"/>
</svg>
