<?xml version="1.0" encoding="utf-8"?>
<!-- Generator: Adobe Illustrator 28.1.0, SVG Export Plug-In . SVG Version: 6.00 Build 0)  -->
<svg version="1.1" id="Layer_1" xmlns="http://www.w3.org/2000/svg" xmlns:xlink="http://www.w3.org/1999/xlink" x="0px" y="0px"
	 viewBox="0 0 500 200" style="enable-background:new 0 0 500 200;" xml:space="preserve">
<style type="text/css">
	.st0{fill:#ED1C24;}
	.st1{fill:#FFFFFF;}
	.st2{font-family:'DiodrumCyrillic-Regular';}
	.st3{font-size:32.484px;}
</style>
<g>
	<g>
		<rect x="16.18" y="18.96" class="st0" width="467.65" height="115.84"/>
		<g>
			<g>
				<path class="st1" d="M254.13,38.58L254.13,38.58c-13.18,0-23.87,10.69-23.87,23.87v13.41h0v2.05h0v13.41
					c0,13.18,10.69,23.87,23.87,23.87h0c13.18,0,23.87-10.69,23.87-23.87V77.91v-2.05V62.45C278,49.26,267.31,38.58,254.13,38.58z
					 M237.72,62.45c0-8.7,6.81-15.84,15.39-16.37v7.78c-1.75,0.46-3.04,2.04-3.04,3.93v10.06c0,1.89,1.29,3.47,3.04,3.93v4.08
					h-15.39V62.45z M270.53,91.32c0,9.05-7.36,16.41-16.41,16.41c-9.05,0-16.41-7.36-16.41-16.41V77.91h32.82V91.32z M255.15,75.86
					v-4.08c1.75-0.46,3.04-2.04,3.04-3.93V57.79c0-1.89-1.29-3.47-3.04-3.93v-7.78c8.57,0.53,15.39,7.67,15.39,16.37v13.41H255.15z"
					/>
				<path class="st1" d="M70.8,72.21c-1.05-1.31-2.59-2.59-4.62-3.83c-2.09-1.25-3.96-2.2-5.6-2.85c-1.77-0.72-4.02-1.5-6.77-2.35
					c-4.72-1.57-8.05-3.15-10.02-4.72c-1.97-1.57-2.95-3.93-2.95-7.07c0-6.28,4.32-9.43,12.96-9.43c4.52,0,9.43,0.92,14.73,2.75
					l2.06-8.54c-5.3-2.16-11.1-3.24-17.38-3.24c-7.14,0-12.74,1.64-16.79,4.91c-4,3.21-5.99,7.82-5.99,13.85
					c0,5.24,1.5,9.33,4.52,12.28c3.08,3.01,7.69,5.53,13.85,7.56c5.76,1.9,9.75,3.7,11.98,5.4c2.35,1.77,3.53,4.42,3.53,7.95
					c0,6.81-4.68,10.21-14.04,10.21c-5.69,0-11.82-1.24-18.37-3.73l-1.77,8.54c5.83,2.56,12.7,3.83,20.62,3.83
					c7.2,0,13-1.6,17.38-4.81c4.45-3.27,6.68-8.08,6.68-14.43c0-2.62-0.39-4.97-1.18-7.07C72.87,75.39,71.92,73.65,70.8,72.21z"/>
				<path class="st1" d="M112.91,92.74c-3.4,1.77-7.27,2.65-11.59,2.65c-6.94,0-10.41-3.64-10.41-10.9V52.77h-9.92v31.72
					c0,12.84,6.71,19.25,20.13,19.25c8.12,0,15.35-1.57,21.7-4.71V52.77h-9.92V92.74z"/>
				<path class="st1" d="M148.02,51.59c-6.94,0-13.42,1.47-19.45,4.41v64.83h9.92v-19.16c3.15,1.31,6.45,1.97,9.92,1.97
					c7.66,0,13.56-2.45,17.68-7.36c4.12-4.92,6.19-11.46,6.19-19.65h0.1c0-7.59-2.13-13.68-6.39-18.27
					C161.73,53.85,155.74,51.59,148.02,51.59z M146.84,95.39c-2.75,0-5.6-0.72-8.54-2.16h0.1V62c2.95-1.37,5.95-2.06,9.04-2.06
					c4.91,0,8.54,1.54,10.9,4.62c2.36,3.08,3.54,7.2,3.54,12.37C161.86,89.24,156.86,95.39,146.84,95.39z"/>
				<path class="st1" d="M197.65,51.59c-6.94,0-13.42,1.47-19.45,4.41v64.83h9.92v-19.16c3.14,1.31,6.45,1.97,9.92,1.97
					c7.66,0,13.56-2.45,17.68-7.36c4.12-4.92,6.19-11.46,6.19-19.65h0.1c0-7.59-2.13-13.68-6.39-18.27
					C211.37,53.85,205.38,51.59,197.65,51.59z M196.47,95.39c-2.75,0-5.6-0.72-8.54-2.16h0.1V62c2.95-1.37,5.95-2.06,9.04-2.06
					c4.91,0,8.54,1.54,10.9,4.62c2.36,3.08,3.54,7.2,3.54,12.37C211.5,89.24,206.49,95.39,196.47,95.39z"/>
				<path class="st1" d="M286.58,56.3h-0.1v46.26h9.92V62.49c3.27-1.69,7.1-2.55,11.49-2.55c1.97,0,3.6,0.23,4.91,0.69l1.37-8.34
					c-1.9-0.46-4.22-0.69-6.97-0.69C299.09,51.59,292.21,53.16,286.58,56.3z"/>
				<path class="st1" d="M347.67,94.7c-1.57,0.46-3.44,0.69-5.59,0.69c-5.11,0-7.66-3.05-7.66-9.14V60.83h12.28v-8.06h-12.28V40.88
					l-9.92,0.5v11.39h-7.07v8.06h7.07v25.53c0,11.59,5.31,17.38,15.91,17.38c2.75,0,5.4-0.33,7.95-0.98h-0.1L347.67,94.7z"/>
				<path class="st1" d="M371.83,51.79c-7.14,0-12.83,2.42-17.09,7.27c-4.26,4.85-6.39,11.13-6.39,18.86
					c0,8.18,2.36,14.57,7.07,19.15c4.78,4.65,11.1,6.97,18.95,6.97c6.29,0,11.92-1.14,16.89-3.44l-1.57-8.34
					c-4.72,2.03-9.53,3.05-14.44,3.05c-10.08,0-15.61-5.11-16.6-15.32h33.49c0.26-2.17,0.4-4.32,0.4-6.48
					c0-6.42-1.87-11.62-5.6-15.62C383.22,53.82,378.18,51.79,371.83,51.79z M382.83,73.98h-24.06c0.46-4.25,1.83-7.62,4.12-10.11
					c2.23-2.42,5.27-3.64,9.13-3.64l-0.1-0.2c3.66,0,6.41,1.18,8.25,3.54c1.83,2.29,2.75,5.24,2.75,8.84
					C382.93,73.2,382.9,73.72,382.83,73.98z"/>
				<path class="st1" d="M419.31,51.59c-8.12,0-14.99,1.57-20.62,4.71h-0.1v46.26h9.92V62.49c3.27-1.69,7.1-2.55,11.49-2.55
					c1.97,0,3.6,0.23,4.91,0.69l1.37-8.34C424.39,51.82,422.06,51.59,419.31,51.59z"/>
			</g>
		</g>
		<polygon class="st1" points="468.2,92.85 446.38,79.27 447.42,104.95 453.67,98.43 460.79,110.8 466.69,107.36 459.45,95.07 		"/>
		<rect x="424.83" y="92.59" class="st1" width="9.97" height="9.97"/>
	</g>
	<text transform="matrix(1 0 0 1 59.8092 173.7623)" class="st2 st3">Your Success, Our Priority.</text>
</g>
</svg>
