<svg viewBox="0 0 167 167" fill="none" xmlns="http://www.w3.org/2000/svg">
<path d="M43.8301 146.505C44.3801 147.773 44.7681 148.647 45.1431 149.528C47.5581 155.228 46.2221 158.62 40.5311 161.173C37.3311 162.609 34.1471 164.097 30.8881 165.397C26.6801 167.076 23.0281 165.816 21.1881 161.697C14.3215 146.343 7.55247 130.943 0.881134 115.497C-0.818866 111.574 0.730134 108.045 4.64413 106.135C7.57913 104.703 10.6101 103.473 13.6031 102.162C19.8771 99.414 22.3171 100.095 26.3271 105.939C32.2511 103.108 38.2081 100.208 44.2141 97.411C48.1611 95.573 52.0881 93.639 56.1801 92.187C62.5321 89.934 69.1391 90.103 74.8051 93.648C82.9291 98.732 92.0401 100.477 100.986 102.919C106.786 104.502 107.999 105.236 111.821 110.106C121.193 107.359 130.635 104.376 140.204 101.882C144.73 100.599 149.412 99.9441 154.116 99.937C163.726 100.162 168.472 108.153 164.778 117.037C163.988 119.08 162.776 120.934 161.223 122.479C159.67 124.024 157.809 125.225 155.762 126.005C138.724 132.605 121.676 139.178 104.618 145.723C96.9101 148.689 89.1971 149.323 81.2181 146.459C75.7621 144.496 70.0541 143.247 64.5271 141.467C62.4215 140.689 60.1684 140.392 57.9331 140.598C55.6979 140.804 53.537 141.508 51.6091 142.658C49.2231 144.058 46.6461 145.124 43.8311 146.499M41.8781 142.12C44.4201 140.886 46.7781 139.908 48.9711 138.644C51.5682 137.072 54.4893 136.112 57.5127 135.838C60.5361 135.563 63.5823 135.981 66.4201 137.059C71.6701 138.885 77.2041 139.916 82.4031 141.859C89.5631 144.53 96.4131 143.817 103.293 141.166C120.114 134.685 136.968 128.29 153.709 121.608C156.125 120.54 158.178 118.791 159.615 116.574C163.61 110.408 160.577 104.846 153.251 104.436C151.559 104.294 149.856 104.422 148.204 104.817C137.01 107.894 125.843 111.06 114.704 114.317C114.271 114.525 113.889 114.827 113.587 115.201C113.284 115.575 113.069 116.012 112.956 116.479C111.037 125.912 104.751 129.843 95.3771 127.342C87.4281 125.222 79.4601 123.17 71.5501 120.915C69.6181 120.364 66.0291 120.64 67.1661 117.123C68.1461 114.089 70.8661 115.945 72.7751 116.436C81.0961 118.575 89.3641 120.909 97.6851 123.036C102.549 124.28 106.731 122.036 107.829 117.85C109.015 113.319 106.566 109.438 101.594 108.012C99.8512 107.512 98.0941 107.057 96.3391 106.588C88.4221 104.471 80.4001 102.854 73.3201 98.188C69.2081 95.476 64.0931 94.4 59.3511 96.34C48.7791 100.667 38.4021 105.47 27.7971 110.14C32.6781 121.218 37.2521 131.606 41.8821 142.116M26.4361 162.305C32.2721 159.605 36.5821 157.721 40.7361 155.542C41.2841 155.254 41.4681 153.251 41.0841 152.362C34.5991 137.377 27.9841 122.447 21.4331 107.492C20.5081 105.381 19.0951 104.912 17.0611 105.818C13.8611 107.246 10.6701 108.718 7.42313 110.038C5.09913 110.986 4.64514 112.516 5.58914 114.666C12.1098 129.504 18.6311 144.341 25.1531 159.178C25.6411 160.289 26.0761 161.424 26.4381 162.305" fill="#EC1C24"/>
<path d="M85.7712 57.258V51.948C84.3552 52.674 83.3652 53.61 82.3962 53.587C80.5362 53.544 78.0962 53.529 77.0192 52.418C76.1292 51.503 76.1452 48.324 77.0432 47.409C78.1242 46.309 80.5552 46.366 82.4182 46.279C83.2252 46.241 84.0272 47.333 84.9112 47.506C90.5112 48.606 90.5112 48.564 90.6032 54.231C90.6172 55.062 90.7032 55.892 90.7422 56.59C91.1222 56.84 91.3082 57.062 91.5142 57.082C97.8612 57.712 97.8622 57.709 99.4212 63.701C100.334 67.2583 102.426 70.4012 105.355 72.6164C108.284 74.8317 111.878 75.9885 115.549 75.8979C119.221 75.8074 122.753 74.4749 125.569 72.118C128.386 69.7611 130.32 66.519 131.056 62.921C132.097 57.5 132.097 57.504 137.778 57.221C138.252 57.198 138.72 57.075 139.691 56.921C139.601 54.9117 139.623 52.899 139.755 50.892C139.874 49.829 140.419 48.201 141.169 47.93C144.01 46.8068 146.987 46.064 150.023 45.721C151.28 45.621 153.306 47.067 153.843 48.305C154.083 49.0594 154.133 49.861 153.99 50.6395C153.847 51.4179 153.514 52.1492 153.022 52.769C151.922 53.732 149.792 53.802 148.128 53.742C147.128 53.706 146.167 52.681 144.634 51.773V57.25C146.563 57.25 148.681 57.25 150.8 57.25C153 57.25 155.273 56.988 155.625 60.203C156.084 64.416 154.968 67.129 152.047 68.036C150.897 68.394 149.626 68.389 148.501 68.8C144.917 70.109 143.661 74.473 145.809 77.885C148.689 82.459 148.591 83.38 144.804 87.198C143.695 88.317 142.59 89.441 141.455 90.533C139.212 92.689 136.881 92.858 134.265 91.061C129.037 87.467 124.977 89.172 123.836 95.393C123.269 98.487 121.529 100.069 118.364 100.05C117.031 100.042 115.698 100.058 114.364 100.057C107.953 100.051 107.882 99.996 106.296 93.851C106.066 92.9077 105.613 92.0334 104.975 91.3014C104.337 90.5693 103.533 90.0008 102.63 89.6434C101.727 89.2861 100.752 89.1503 99.7857 89.2475C98.8196 89.3447 97.8908 89.672 97.0772 90.202C92.1072 93.218 91.4472 93.15 87.4662 89.189C86.3502 88.078 85.2152 86.983 84.1372 85.835C82.1242 83.693 81.9202 81.469 83.6122 78.946C87.2782 73.479 85.6962 69.752 79.1992 68.266C75.3402 67.383 72.9992 62.194 75.1102 58.756C75.492 58.3288 75.9551 57.9819 76.4724 57.7357C76.9897 57.4895 77.5509 57.3489 78.1232 57.322C80.6232 57.116 83.1442 57.256 85.7702 57.256M137.362 87.239L143.147 82.245C139.937 78.434 138.971 74.505 140.802 70.145C142.633 65.785 146.389 63.945 150.84 62.698C147.142 62.2405 143.419 62.018 139.693 62.032C137.248 61.932 135.959 62.325 135.242 65.224C134.1 69.6597 131.5 73.5828 127.86 76.3633C124.22 79.1439 119.751 80.6205 115.171 80.556C110.533 80.582 106.018 79.0635 102.339 76.24C98.659 73.4166 96.0237 69.4487 94.8482 64.962C94.6032 64.052 94.3552 63.142 94.1912 62.539H79.5962C90.8802 67.301 92.7472 71.839 87.6902 82.139L92.6772 87.344C101.629 81.644 107.577 84.113 111.755 95.296H118.497C122.826 84.073 128.774 81.596 137.358 87.235" fill="#EC1C24"/>
<path d="M110.629 57.043H119.109C119.309 56.785 119.59 56.577 119.564 56.421C118.632 50.901 121.798 47.466 125.474 44.072C128.051 41.693 131.001 39.572 131.868 35.61C132.105 34.528 134.989 33.244 136.462 33.451C137.257 33.7322 137.965 34.2141 138.518 34.8498C139.071 35.4855 139.451 36.2534 139.619 37.079C139.619 38.584 138.157 41.058 136.847 41.434C131.238 43.043 128.841 48.163 124.997 51.634C124.091 52.452 124.603 54.842 124.471 56.415C128.502 58.515 128.953 59.685 127.515 63.882C126.633 66.519 124.932 68.805 122.659 70.4063C120.386 72.0077 117.66 72.8405 114.88 72.783C112.1 72.7256 109.412 71.7811 107.206 70.0873C105.001 68.3935 103.396 66.0391 102.623 63.368C101.367 59.236 101.739 58.38 105.483 56.723C105.954 55.2805 105.943 53.724 105.451 52.2884C104.96 50.8528 104.015 49.6161 102.758 48.765C99.4283 46.159 97.3423 42.065 92.6313 41.011C91.6313 40.787 90.5023 38.018 90.6913 36.588C90.9226 35.8231 91.343 35.1289 91.9137 34.5695C92.4844 34.0102 93.1869 33.6038 93.9563 33.388C95.3853 33.23 98.0853 34.399 98.3313 35.441C99.5313 40.528 103.631 43.199 107.038 46.173C110.556 49.242 110.682 52.922 110.629 57.052M123.029 62.352H107.282C108.917 66.114 111.456 67.99 115.199 67.952C118.917 67.918 121.406 66.015 123.026 62.352" fill="#EC1C24"/>
<path d="M115.348 0.271973C124.778 0.340968 133.847 3.90395 140.802 10.272C142.125 11.478 144.018 12.934 141.956 14.646C141.256 15.229 138.796 14.632 137.807 13.791C124.02 2.06799 106.243 2.05199 92.466 13.921C91.154 15.051 89.635 16.621 88.288 14.621C87.743 13.812 88.419 11.379 89.329 10.521C96.592 3.635 105.397 0.434973 115.348 0.271973Z" fill="#EC1C24"/>
<path d="M135.152 20.966C134.546 21.838 134.152 22.982 133.624 23.043C132.515 23.1441 131.399 22.9277 130.408 22.419C127.223 20.752 124.317 18.291 120.959 17.266C113.497 14.988 106.606 16.818 100.608 21.827C99.1973 23.006 97.6083 24.715 96.1533 22.476C95.6443 21.691 96.5183 19.286 97.4783 18.384C107.025 9.40797 123.427 9.48898 132.959 18.415C133.735 19.2259 134.467 20.0774 135.152 20.966Z" fill="#EC1C24"/>
<path d="M115.118 21.78C118.944 23.704 122.396 25.263 125.618 27.206C126.278 27.606 126.069 29.44 126.26 30.614C125.085 30.658 123.519 31.214 122.797 30.663C117.63 26.722 112.683 26.695 107.505 30.645C106.776 31.201 105.215 30.666 104.038 30.636C104.216 29.464 103.989 27.627 104.638 27.236C107.855 25.285 111.302 23.715 115.119 21.783" fill="#EC1C24"/>
</svg>
